<svg width="129" height="251" viewBox="0 0 129 251" fill="none" xmlns="http://www.w3.org/2000/svg">
<path d="M24.0018 84.5618C24.6326 84.5618 25.3423 84.5618 26.052 84.4829C30.8619 84.0887 35.041 81.6443 38.5893 77.2286C49.1554 63.8239 50.4959 36.7779 49.392 29.9966L48.9977 30.0755C50.0228 36.7779 48.7612 63.6662 38.2739 76.9921C34.8045 81.3289 30.7042 83.7733 26.052 84.0887C18.8765 84.6406 13.5934 82.1962 10.9125 76.9921C6.65452 68.7915 9.88743 54.9925 18.4034 44.8996C21.1632 41.6666 22.0305 38.1183 20.9266 35.2797C20.0593 33.1507 18.2457 31.6525 15.8801 31.3371C12.8049 30.9429 9.65088 32.5987 7.20649 35.9893L7.52188 36.2259C9.88743 32.993 12.8838 31.416 15.8013 31.8102C17.9303 32.1256 19.7438 33.4661 20.4535 35.5162C21.4786 38.276 20.6112 41.5878 18.0091 44.7418C9.25662 55.1502 6.10256 68.8704 10.4394 77.3075C12.3318 80.6192 16.1167 84.5618 24.0018 84.5618Z" fill="#307CC4"/>
<path d="M65.7932 2.71423C71.3128 5.31632 78.7248 7.20876 76.3593 17.144C73.9938 27.0793 80.223 29.9968 75.5708 33.8605C70.8397 37.7242 54.5175 37.4088 48.2094 34.9644C41.1127 32.2046 32.9122 22.9002 40.8762 18.1691C47.1054 14.4631 49.8652 9.65315 50.7326 6.73565C52.7039 0.821793 59.0909 -2.56881 65.7932 2.71423Z" fill="#263238"/>
<path d="M34.9623 17.7747C41.0339 16.5131 47.1054 14.3053 50.4961 6.26244C51.8365 3.02954 53.9655 1.05825 56.5676 0.585145C59.4063 0.0331859 62.6392 1.53136 65.5567 4.68542L65.8721 4.37001C62.7969 1.05825 59.4851 -0.439922 56.4099 0.112037C53.729 0.585145 51.4423 2.71413 50.0229 6.02589C46.7112 13.8322 40.7973 16.04 34.8046 17.3016L34.9623 17.7747Z" fill="#263238"/>
<path d="M37.249 47.344L36.9336 47.6594L36.5393 48.0536C36.3028 48.2902 35.9874 48.6056 35.672 48.8421C35.12 49.3941 34.4892 49.8672 33.8584 50.4192C32.5968 51.4442 31.2563 52.3904 29.9158 53.3367C28.4965 54.2829 27.0772 55.0714 25.6578 55.8599C24.8693 56.2542 24.1597 56.6484 23.45 57.0427L21.7153 57.91C21.5576 57.9889 21.3999 57.9889 20.9268 57.91C20.5325 57.7523 19.9805 57.5158 19.4286 57.0427C18.3247 56.2542 17.2207 55.0714 16.1957 53.7309C14.1455 51.1288 12.2531 48.2113 10.5972 45.215L7.28546 46.5554C8.38938 50.1038 9.8087 53.4944 11.78 56.8061C12.8051 58.462 13.909 60.039 15.5649 61.5372C16.3534 62.2469 17.2996 63.0354 18.5612 63.5873C19.744 64.1393 21.3999 64.5336 22.9769 64.2181C23.3711 64.1393 23.7654 64.0604 24.1597 63.9027L24.8693 63.6662L26.2098 63.1931C27.0772 62.8777 27.9445 62.4834 28.8119 62.0892C30.5466 61.3006 32.2025 60.4333 33.8584 59.4082C35.5143 58.3831 37.0913 57.3581 38.5895 56.1753C39.378 55.5445 40.0876 54.9137 40.7973 54.2829C41.1916 53.9675 41.507 53.5732 41.9012 53.2578L42.4532 52.7058C42.6109 52.4693 42.7686 52.3116 43.084 51.9962L37.249 47.344Z" fill="#FEA1A1"/>
<path d="M43.0052 40.7205C40.0877 40.0108 32.6756 49.6307 32.6756 49.6307L37.1701 58.2255C37.1701 58.2255 49.6287 51.2077 49.1556 47.344C48.6825 43.2437 47.2631 41.7455 43.0052 40.7205Z" fill="#307CC4"/>
<path opacity="0.2" d="M43.0052 40.7205C40.0877 40.0108 32.6756 49.6307 32.6756 49.6307L37.1701 58.2255C37.1701 58.2255 49.6287 51.2077 49.1556 47.344C48.6825 43.2437 47.2631 41.7455 43.0052 40.7205Z" fill="white"/>
<path opacity="0.2" d="M41.1126 44.0322L41.8223 55.2291C39.3779 56.8849 37.17 58.1466 37.17 58.1466L36.2238 56.333L41.1126 44.0322Z" fill="black"/>
<path d="M11.1492 47.0287L8.46822 39.4589L4.6045 45.5305C4.6045 45.5305 6.73349 49.473 9.72984 49.473L11.1492 47.0287Z" fill="#FEA1A1"/>
<path d="M4.52569 35.9894L0.583125 40.5628L4.60455 45.5305L8.46826 39.4589L4.52569 35.9894Z" fill="#FEA1A1"/>
<path d="M49.4707 239.505L42.4529 239.82L41.1913 223.498L48.2879 223.183L49.4707 239.505Z" fill="#FEA1A1"/>
<path d="M117.914 142.912L119.333 149.851L103.8 155.292L102.38 148.353L117.914 142.912Z" fill="#FEA1A1"/>
<path d="M118.15 150.876L115.469 143.464C115.391 143.227 115.469 142.912 115.706 142.754L121.304 139.758C121.856 139.442 122.645 139.758 122.881 140.389C123.749 142.991 124.064 144.331 125.247 147.564C125.957 149.614 127.77 153.32 128.795 156.08C129.742 158.84 127.139 160.023 126.43 158.919C123.433 154.109 121.068 153.005 119.018 151.743C118.545 151.586 118.308 151.27 118.15 150.876Z" fill="#263238"/>
<path d="M42.2164 239.426L49.865 237.297C50.1804 237.218 50.4169 237.376 50.5746 237.612L53.0979 243.368C53.3344 243.999 53.019 244.709 52.3094 244.867C49.6284 245.576 48.2879 245.734 44.9762 246.68C42.926 247.232 36.8545 249.992 33.937 250.228C31.0195 250.465 30.6252 247.548 31.808 247.232C37.2487 245.576 39.8508 242.186 41.1913 240.136C41.4279 239.741 41.8221 239.505 42.2164 239.426Z" fill="#263238"/>
<g opacity="0.2">
<path opacity="0.2" d="M41.1915 223.498L41.9012 231.935L48.9189 231.62L48.2881 223.183L41.1915 223.498Z" fill="black"/>
<path opacity="0.2" d="M102.38 148.353L103.799 155.291L111.763 152.453L110.423 145.514L102.38 148.353Z" fill="black"/>
</g>
<path d="M39.378 43.638C38.6683 47.6594 38.0375 57.6736 40.955 81.0924L69.4992 82.8272C69.7357 71.8668 70.2877 63.0355 76.2015 41.9033C76.9112 39.6955 75.3342 37.4876 72.9686 37.3299C70.7608 37.1722 68.0799 37.0934 65.2412 37.2511C60.3524 37.4876 56.4099 37.6453 52.073 38.4338C48.367 39.0646 44.3456 40.0897 41.9801 40.7994C40.6396 41.1148 39.6145 42.2975 39.378 43.638Z" fill="#307CC4"/>
<path opacity="0.2" d="M39.378 43.638C38.6683 47.6594 38.0375 57.6736 40.955 81.0924L69.4992 82.8272C69.7357 71.8668 70.2877 63.0355 76.2015 41.9033C76.9112 39.6955 75.3342 37.4876 72.9686 37.3299C70.7608 37.1722 68.0799 37.0934 65.2412 37.2511C60.3524 37.4876 56.4099 37.6453 52.073 38.4338C48.367 39.0646 44.3456 40.0897 41.9801 40.7994C40.6396 41.1148 39.6145 42.2975 39.378 43.638Z" fill="white"/>
<path d="M40.955 81.1713C40.955 81.1713 32.0448 135.027 31.1774 156.474C30.31 178.789 40.3242 229.648 40.3242 229.648H49.8652C49.8652 229.648 46.3957 181.155 48.6036 159.234C50.9691 135.421 61.8506 82.4329 61.8506 82.4329L40.955 81.1713Z" fill="#307CC4"/>
<path d="M50.7325 229.964H39.5356L38.6682 226.415L51.2056 226.021L50.7325 229.964Z" fill="#263238"/>
<path opacity="0.2" d="M52.4673 95.4433C44.5821 109.163 48.6035 135.263 50.496 144.962C52.625 130.69 55.8579 113.185 58.3811 100.411C57.7503 92.9989 56.0944 89.1352 52.4673 95.4433Z" fill="black"/>
<path d="M48.5245 81.6443C48.5245 81.6443 48.7611 138.417 57.4347 155.055C67.7643 174.847 110.581 154.424 110.581 154.424L108.688 144.962C108.688 144.962 80.3016 151.349 72.8896 146.066C64.9256 121.307 79.592 100.332 69.5779 82.8271L48.5245 81.6443Z" fill="#307CC4"/>
<path d="M108.452 143.937L110.817 155.607L107.427 157.578L104.036 143.937H108.452Z" fill="#263238"/>
<path d="M69.4991 46.792C70.7607 50.2614 72.1012 53.8886 73.284 57.4369C74.4668 60.9852 75.6495 64.6124 76.6746 68.1607L76.8323 68.8704L76.9111 69.2646C76.9111 69.3435 76.99 69.5012 76.99 69.4223V69.3435V69.1069C76.99 69.0281 76.99 68.9492 76.99 68.8704C76.99 68.7915 77.0688 68.6338 77.0688 68.4761C77.0688 68.3973 77.1477 68.3184 77.1477 68.3184C77.1477 68.2396 77.2266 68.1607 77.2266 68.0819C77.3054 67.9242 77.4631 67.7664 77.542 67.5299C77.6997 67.3722 77.8574 67.1356 78.0939 67.0568C78.2516 66.8991 78.4882 66.8202 78.6459 66.7414C78.8824 66.6625 79.0401 66.5837 79.119 66.5837C79.2767 66.5837 79.4344 66.5048 79.5132 66.5048C79.9075 66.5048 80.0652 66.5837 80.1441 66.5837C80.3018 66.6625 80.2229 66.5837 80.0652 66.5837C79.9864 66.5048 79.8286 66.5048 79.6709 66.426C79.3555 66.2683 78.9613 66.0317 78.6459 65.7952C77.2266 64.8489 75.7284 63.6662 74.2302 62.5623C71.2338 60.2756 68.3163 57.8312 65.32 55.4656L62.7968 57.9889C65.2411 61.0641 67.8432 63.9027 70.603 66.7414C72.0224 68.1607 73.4417 69.5012 75.0976 70.8417C75.4918 71.1571 75.9649 71.4725 76.438 71.8667C76.6746 72.0244 76.99 72.1821 77.3054 72.4187C77.6208 72.5764 77.9362 72.7341 78.567 72.9706C78.8824 73.0495 79.2767 73.1283 79.9075 73.1283C80.0652 73.1283 80.3018 73.1283 80.4595 73.0495C80.696 73.0495 80.8537 72.9706 81.1691 72.8129C81.4057 72.7341 81.6422 72.5764 81.8788 72.4187C82.1153 72.261 82.3519 72.0244 82.5884 71.7879C82.7461 71.5513 82.9039 71.3936 83.0616 71.0782C83.1404 70.9994 83.2193 70.8416 83.2193 70.7628L83.2981 70.5262C83.377 70.3685 83.377 70.132 83.4558 69.9743C83.4558 69.8166 83.4558 69.7377 83.4558 69.58C83.4558 69.2646 83.4558 69.1069 83.4558 68.9492V68.7127V68.4761C83.377 68.1607 83.377 68.0819 83.377 67.9241L83.2981 67.5299L83.1404 66.8202C82.3519 62.9565 81.3268 59.1716 80.1441 55.3868C78.9613 51.6019 77.6997 47.9748 76.2803 44.2687L69.4991 46.792Z" fill="#FEA1A1"/>
<path d="M75.2553 37.6453C78.094 38.7492 80.8538 48.7633 80.8538 48.7633L69.2626 56.0177C69.2626 56.0177 65.5566 46.319 66.9759 42.6918C68.5529 38.9069 72.0224 36.4625 75.2553 37.6453Z" fill="#307CC4"/>
<path opacity="0.2" d="M75.2553 37.6453C78.094 38.7492 80.8538 48.7633 80.8538 48.7633L69.2626 56.0177C69.2626 56.0177 65.5566 46.319 66.9759 42.6918C68.5529 38.9069 72.0224 36.4625 75.2553 37.6453Z" fill="white"/>
<path d="M120.279 154.03V154.109C120.122 154.424 119.885 154.582 119.57 154.661C119.254 154.74 119.097 154.582 119.018 154.503C118.387 153.872 118.939 151.349 119.018 151.113C119.018 151.034 119.097 151.034 119.175 150.955C119.254 150.955 119.333 150.955 119.333 151.034C119.727 151.822 120.516 153.163 120.279 154.03ZM119.175 151.586C118.939 152.611 118.86 153.951 119.175 154.267C119.254 154.345 119.254 154.345 119.412 154.345C119.649 154.267 119.806 154.188 119.885 153.951C120.122 153.557 119.806 152.611 119.175 151.586Z" fill="#307CC4"/>
<path d="M119.176 151.428C118.939 152.295 118.072 153.636 117.283 153.793C117.125 153.793 116.81 153.793 116.652 153.399C116.495 153.163 116.495 152.926 116.652 152.689C117.047 151.743 118.939 151.034 119.018 151.034C119.097 151.034 119.097 151.034 119.176 151.034C119.254 151.034 119.254 151.112 119.254 151.191C119.254 151.27 119.254 151.349 119.176 151.428ZM116.968 152.847C116.889 153.005 116.968 153.163 116.968 153.241C117.047 153.399 117.204 153.478 117.283 153.399C117.756 153.32 118.545 152.216 118.86 151.349C118.229 151.664 117.204 152.216 116.968 152.847C116.968 152.847 116.968 152.768 116.968 152.847Z" fill="#307CC4"/>
<path d="M40.0087 241.318C39.2991 241.476 38.6682 241.555 38.274 241.397C37.9586 241.24 37.8009 241.003 37.8009 240.688C37.8009 240.53 37.8009 240.293 37.9586 240.215C38.6682 239.505 41.7435 240.136 42.1377 240.215C42.2166 240.215 42.2954 240.293 42.2954 240.372C42.2954 240.451 42.2954 240.53 42.2166 240.53C41.5069 240.766 40.7972 241.082 40.0087 241.318ZM38.4317 240.215C38.274 240.215 38.1951 240.293 38.1163 240.372C38.0374 240.451 38.0374 240.451 38.0374 240.609C38.1163 240.845 38.1951 241.003 38.3528 241.082C38.9048 241.318 40.0087 241.082 41.428 240.451C40.403 240.215 39.0625 240.057 38.4317 240.215Z" fill="#307CC4"/>
<path d="M42.0588 240.451C42.0588 240.451 41.98 240.451 42.0588 240.451C41.1126 240.293 39.0625 239.268 38.9836 238.48C38.9836 238.322 39.0625 238.007 39.4567 237.849C39.7722 237.691 40.0876 237.77 40.403 237.849C41.428 238.322 42.1377 240.136 42.1377 240.215C42.1377 240.293 42.1377 240.293 42.1377 240.372C42.1377 240.451 42.0588 240.451 42.0588 240.451ZM39.6933 238.164H39.6144C39.299 238.243 39.3779 238.401 39.3779 238.401C39.4567 238.874 40.8761 239.741 41.8223 239.978C41.5857 239.505 41.0338 238.401 40.403 238.164C40.0876 238.164 39.851 238.086 39.6933 238.164Z" fill="#307CC4"/>
<path d="M70.0512 81.2501L70.6031 83.8522C70.682 84.0887 70.4454 84.2464 70.13 84.2464L40.7185 82.4329C40.4819 82.4329 40.2453 82.2752 40.2453 82.1174L40.1665 79.5154C40.1665 79.3577 40.4031 79.2 40.6396 79.2L69.5781 81.0135C69.8146 81.0135 69.9723 81.1712 70.0512 81.2501Z" fill="white"/>
<path d="M65.9508 84.2466L66.7393 84.3254C66.897 84.3254 67.0547 84.2465 66.9759 84.1677L66.8181 80.8559C66.8181 80.7771 66.6604 80.6982 66.5027 80.6982L65.7142 80.6194C65.5565 80.6194 65.3988 80.6982 65.4777 80.7771L65.6354 84.0888C65.7142 84.1677 65.7931 84.2466 65.9508 84.2466Z" fill="#307CC4"/>
<path d="M42.9261 82.8271L43.7146 82.906C43.8723 82.906 44.03 82.8271 43.9512 82.7483L43.7935 79.4365C43.7935 79.3577 43.6358 79.2788 43.4781 79.2788L42.6896 79.2C42.5319 79.2 42.3742 79.2788 42.453 79.3577L42.6107 82.6694C42.6107 82.7483 42.7684 82.8271 42.9261 82.8271Z" fill="#307CC4"/>
<path d="M54.4383 83.5368L55.2268 83.6157C55.3845 83.6157 55.5423 83.5368 55.4634 83.458L55.3057 80.1462C55.3057 80.0674 55.148 79.9885 54.9903 79.9885L54.2018 79.9097C54.0441 79.9097 53.8864 79.9885 53.9652 80.0674L54.1229 83.3791C54.1229 83.458 54.2806 83.5368 54.4383 83.5368Z" fill="#307CC4"/>
<path d="M65.2411 37.2511C60.3524 37.4876 56.4098 37.6454 52.073 38.4339C50.4959 38.7493 48.8401 39.0647 47.263 39.4589C46.4745 41.9822 45.8437 47.2652 48.2092 51.602C48.8401 49.9462 50.1017 48.7634 51.8364 47.896C53.3346 49.2365 54.1231 50.7347 54.6751 52.2329C57.7503 51.6809 66.0297 44.5054 69.7357 38.7493L70.6819 37.2511C69.1049 37.1722 67.2124 37.1722 65.2411 37.2511Z" fill="white"/>
<path d="M64.847 22.8212C63.743 27.0792 62.4814 34.7278 65.2412 37.251C65.2412 37.251 63.8219 41.5879 55.9368 42.2975C47.2631 43.086 52.073 38.4338 52.073 38.4338C56.883 36.9356 56.9618 33.4662 56.331 30.3121L64.847 22.8212Z" fill="#FEA1A1"/>
<path d="M65.2411 37.251C60.3523 37.4875 56.4097 37.6452 52.0729 38.4338C51.7575 38.5126 51.521 38.5126 51.2055 38.5915C50.0228 40.6416 49.7074 42.9283 51.9152 47.1863C51.9152 47.1863 63.6641 42.2975 66.897 37.251C66.4239 37.1721 65.8719 37.251 65.2411 37.251Z" fill="#FEA1A1"/>
<path opacity="0.2" d="M61.3774 25.8964L56.3309 30.3121C56.4886 31.0218 56.5675 31.8103 56.5675 32.5988C58.3811 32.2045 61.3774 30.391 61.6928 28.4985C61.9294 27.5523 61.5351 26.2907 61.3774 25.8964Z" fill="black"/>
<path d="M70.4453 17.6958C67.9221 24.2405 67.0547 27.0791 62.5602 29.4446C55.8578 32.993 48.4458 28.4984 48.9189 21.323C49.392 14.8571 53.3346 5.31613 60.7466 4.68532C68.0009 4.05451 72.9686 11.1511 70.4453 17.6958Z" fill="#FEA1A1"/>
<path d="M60.1946 18.1691L60.7466 18.0902C60.6677 17.4594 60.1158 16.592 59.5638 16.1189C59.0907 15.8035 58.7753 15.8035 58.5387 15.8824C58.2233 15.9612 57.9868 16.2766 57.8291 16.6709L58.381 16.8286C58.4599 16.592 58.5387 16.4343 58.6964 16.4343C58.8542 16.3555 59.0907 16.5132 59.2484 16.592C59.7215 16.9863 60.1158 17.6959 60.1946 18.1691Z" fill="#263238"/>
<path d="M53.5711 15.1727C53.6499 14.6996 53.4922 14.3842 53.3345 14.2265C53.1768 13.9899 52.8614 13.8322 52.4671 13.8322C51.8363 13.7534 51.3632 14.0688 50.969 14.6996L51.5209 15.015C51.6786 14.7784 51.9152 14.463 52.3883 14.463C52.546 14.463 52.7037 14.5419 52.8614 14.6996C52.9403 14.7784 53.0191 15.015 52.9403 15.1727H53.5711Z" fill="#263238"/>
<path d="M54.9929 16.119C54.9929 16.119 53.337 18.1692 51.9966 18.9577C52.4697 19.825 52.8614 18.9574 52.8614 18.9574L54.9929 16.119Z" fill="#FEA1A1"/>
<path d="M70.6031 23.6887C69.7357 24.8714 68.3953 25.5023 67.2125 25.5811C65.3989 25.8177 64.847 24.1618 65.5566 22.5848C66.1874 21.1654 67.9222 19.4307 69.578 19.9038C71.2339 20.4558 71.6282 22.3482 70.6031 23.6887Z" fill="#FEA1A1"/>
<path d="M59.0906 4.68535C53.9652 8.47022 60.431 9.02218 63.7428 11.782C66.8968 14.4629 64.4525 18.8786 69.8143 20.6133C71.5491 21.1653 74.782 21.1653 74.782 21.1653C74.782 21.1653 72.3376 16.3554 73.1261 13.4379C73.8358 10.5204 65.0044 0.269676 59.0906 4.68535Z" fill="#263238"/>
<path d="M60.037 4.13343C58.9331 6.49897 56.2522 6.02586 54.0443 8.3914C52.7038 9.88958 50.496 4.92194 53.9655 3.18721C57.4349 1.45248 61.6929 0.427414 60.037 4.13343Z" fill="#263238"/>
<path d="M65.6353 21.7962C64.9256 24.556 65.241 27.0792 68.0008 27.7889C70.7606 28.4985 73.6781 26.8426 74.3878 24.0828C75.0975 21.3231 73.4416 18.4056 70.6818 17.6959C67.8431 16.9862 66.3449 19.0364 65.6353 21.7962Z" fill="#307CC4"/>
<path d="M65.4774 2.47748L68.868 4.13336C75.4915 9.49525 71.7066 19.3517 71.7066 19.3517L69.1045 18.1689C69.1834 18.1689 72.1009 7.83937 65.4774 2.47748Z" fill="#307CC4"/>
<path d="M71.7856 19.5883H71.8645C71.9433 19.5883 71.9433 19.5094 72.0222 19.4306C72.0222 19.3517 75.8071 9.41645 69.1047 3.97571L65.6352 2.31983C65.5564 2.24098 65.3987 2.31983 65.3987 2.39868C65.3198 2.47753 65.3987 2.63524 65.4775 2.71409C71.9433 7.91828 69.1047 18.0901 69.1047 18.169C69.1047 18.2478 69.1047 18.4055 69.1835 18.4055L71.7856 19.5883C71.7068 19.5883 71.7068 19.5094 71.7856 19.5883ZM66.6603 3.26605L68.7893 4.29112C74.6243 9.0222 72.101 17.5381 71.6279 19.0363L69.4201 18.0113C69.7355 16.7496 71.5491 8.47024 66.6603 3.26605Z" fill="#307CC4"/>
<path opacity="0.3" d="M68.5527 22.5846C68.0007 24.7136 68.0796 26.606 69.7355 27.0792C71.3914 27.4734 73.2049 26.0541 73.7569 23.9251C74.3089 21.7961 73.4415 19.6671 71.7856 19.2729C70.1297 18.7998 69.1047 20.3768 68.5527 22.5846Z" fill="white"/>
<path d="M63.0332 15.8823C62.8755 15.8823 62.7967 15.7246 62.7967 15.5669C62.7178 13.9898 60.9831 12.9648 60.9831 12.9648C60.8254 12.8859 60.7465 12.6494 60.9043 12.4917C60.9831 12.334 61.2197 12.2551 61.3774 12.4128C61.4562 12.4917 63.3486 13.6744 63.5063 15.5669C63.5063 15.7246 63.3486 15.8823 63.1909 15.8823C63.1121 15.9611 63.0332 15.9611 63.0332 15.8823Z" fill="#263238"/>
<path d="M51.8365 10.3628C51.7576 10.3628 51.5999 10.2839 51.5211 10.2051C51.4422 10.0474 51.5211 9.81081 51.6788 9.73196C53.2558 8.78575 54.6751 9.49541 54.754 9.49541C54.9117 9.57426 54.9905 9.81081 54.9117 9.96852C54.8328 10.1262 54.5963 10.2051 54.4386 10.1262C54.3597 10.1262 53.3347 9.57426 51.9942 10.2839C51.9153 10.3628 51.8365 10.3628 51.8365 10.3628Z" fill="#263238"/>
<path d="M66.1873 56.8062L67.2913 49.3153L61.2197 53.1002C61.2197 53.1002 61.4563 57.5947 64.0583 58.8563L66.1873 56.8062Z" fill="#FEA1A1"/>
<path d="M65.1623 45.5304L59.485 47.5805L61.2197 53.1001L67.3701 49.3153L65.1623 45.5304Z" fill="#FEA1A1"/>
<path d="M0.18874 44.19L3.73705 46.871C3.97361 47.0287 4.21016 46.9498 4.36786 46.7921L10.3606 38.8281C10.5183 38.5916 10.4394 38.355 10.2817 38.1973L6.73341 35.5164C6.49685 35.3587 6.26029 35.4375 6.10259 35.5952L0.109896 43.5592C-0.0478077 43.7958 -0.0478144 44.0323 0.18874 44.19Z" fill="#307CC4"/>
<path d="M2.86939 41.2725L5.86573 43.5592C6.02343 43.7169 6.25999 43.638 6.33884 43.4803L9.4929 39.3012C9.6506 39.1435 9.57174 38.9069 9.41404 38.8281L6.4177 36.5414C6.26 36.3837 6.02344 36.4626 5.94459 36.6203L2.79053 40.7994C2.63283 40.8782 2.71168 41.1148 2.86939 41.2725Z" fill="white"/>
<path d="M5.62945 45.6093L5.70829 44.5842L4.68322 44.0322C4.13127 43.7168 3.65817 43.3226 3.26391 42.9283L2.9485 42.5341L3.18505 42.2187C3.42161 41.8244 3.89471 41.6667 4.28897 41.8244L5.15634 42.1398L9.41431 42.6918V44.5054L8.07384 46.3978L5.62945 45.6093Z" fill="#FEA1A1"/>
</svg>
