<svg width="218" height="258" viewBox="0 0 218 258" fill="none" xmlns="http://www.w3.org/2000/svg">
<path d="M96.7095 17.27C95.9796 17.8783 89.1673 21.7714 89.1673 21.7714L84.4231 15.6885L85.8829 8.63235L96.2229 9.24064L98.0476 14.4719C98.4125 15.8102 97.6826 16.5401 96.7095 17.27Z" fill="#FE9280"/>
<path d="M96.1013 9.36234L97.6827 13.9853L92.9385 15.9319C92.0869 16.2968 90.9921 16.4185 90.0189 16.1752C87.9509 15.5669 86.6128 13.6204 86.8561 11.4305L87.221 8.8757L96.1013 9.36234Z" fill="#E86767"/>
<path d="M93.7903 15.4452L97.9263 16.0535L100.238 12.1605C100.724 11.4305 100.481 10.5789 99.751 10.0923C99.0211 9.60565 98.1696 9.84897 97.683 10.5789L93.7903 15.4452Z" fill="#FEA1A1"/>
<path d="M90.7489 31.9907L82.2336 34.1806L79.1924 58.7554L89.1675 59.1204L90.7489 31.9907Z" fill="white"/>
<path d="M202.543 51.9426L187.702 50.1177L191.108 23.1097L205.949 24.9345C213.37 25.9078 218.722 32.7206 217.749 40.1418C216.776 47.5629 209.963 52.9158 202.543 51.9426Z" fill="#FE9280"/>
<path opacity="0.2" d="M203.273 45.8597L188.432 44.0348L187.702 50.2394L202.543 52.0642C209.963 53.0375 216.776 47.6845 217.749 40.2634C217.87 39.1685 217.87 38.1952 217.749 37.1003C215.559 42.8182 209.72 46.5896 203.273 45.8597Z" fill="#777470"/>
<path d="M185.877 49.8744L28.1006 29.5575L31.5067 2.5495L189.162 22.8663L185.877 49.8744Z" fill="#FEDA90"/>
<path d="M0 12.2821L28.1005 29.5575L31.5066 2.54947L0 12.2821Z" fill="#FFF4DD"/>
<path opacity="0.2" d="M0 12.2821L28.1005 29.5575L28.9521 22.8663L0 12.2821Z" fill="#777470"/>
<path d="M9.36686 9.36234L0 12.2821L8.39367 17.3917L9.36686 9.36234Z" fill="#2A294F"/>
<path d="M202.257 24.5231L189.221 22.882L185.818 49.9208L198.853 51.5618L202.257 24.5231Z" fill="#D3EAF5"/>
<path d="M202.433 23.3877L197.968 22.8255L194.275 52.1578L198.741 52.72L202.433 23.3877Z" fill="#D3EAF5"/>
<path opacity="0.2" d="M194.392 50.9692L28.1006 29.5575L28.9521 22.8663L195.244 44.3997L194.392 50.9692Z" fill="#777470"/>
<path opacity="0.05" d="M196.947 30.5308L30.6552 9.11902L31.5067 2.5495L197.799 23.9613L196.947 30.5308Z" fill="#777470"/>
<path opacity="0.15" d="M199.815 43.7396L195.349 43.1774L194.225 52.1098L198.691 52.6721L199.815 43.7396Z" fill="#777470"/>
<path d="M134.055 104.62L136.245 98.9025L143.787 98.2942C145.125 98.1725 146.342 99.0241 146.463 100.119C146.585 101.336 145.612 102.431 144.152 102.552L134.055 104.62Z" fill="#E86767"/>
<path d="M130.163 98.9025L134.055 104.62L141.476 103.161L133.326 90.8731L131.744 91.968C129.311 93.4279 128.703 96.591 130.163 98.9025Z" fill="#FEA1A1"/>
<path d="M137.462 6.5642C129.798 -4.62831 110.578 -1.58687 111.064 16.2968V16.4185C111.064 18.73 111.064 21.0415 110.456 23.1097C110.213 24.2046 109.604 25.1778 108.874 25.9078C108.145 26.6377 107.05 27.1244 106.077 27.246C104.982 27.4893 103.887 27.4893 102.67 27.7327C101.454 27.976 100.238 28.4626 99.2644 29.0709C97.1964 30.2875 95.3716 32.3556 94.6417 34.7888C93.0603 39.5335 94.2768 45.1297 97.9262 48.6578C98.7778 49.5094 99.8726 50.2393 100.967 50.8476C102.062 51.4559 103.4 51.5776 104.495 51.8209C106.685 52.3075 108.996 52.9158 111.307 53.4024L111.429 53.1591C109.361 52.1859 107.171 51.2126 104.982 50.361C103.765 49.996 102.792 49.7527 101.941 49.1444C101.089 48.6578 100.238 47.9278 99.5076 47.1979C98.0479 45.6163 97.0747 43.6698 96.4665 41.6016C95.8582 39.5335 95.7366 37.3436 96.3448 35.2754C96.953 33.2073 98.2912 31.504 100.116 30.2875C100.967 29.6792 102.062 29.3142 103.035 28.9492C104.13 28.7059 105.225 28.5843 106.442 28.2193C107.658 27.8543 108.753 27.3677 109.604 26.3944C110.456 25.4212 110.942 24.3262 111.186 23.1097C111.307 22.2581 111.429 21.4065 111.429 20.6765C111.672 23.9613 111.307 27.3677 107.901 28.7059C105.955 29.4359 104.009 29.4359 102.184 30.6524C100.359 31.869 98.8994 33.5722 98.2912 35.6404C96.1015 41.9666 101.697 50.1177 108.266 50.8476C110.942 51.0909 113.74 51.8209 116.417 52.3075C117.146 52.4292 127.73 54.619 127.851 54.3757L140.138 18.1217L137.462 6.5642Z" fill="#265B91"/>
<path d="M136.853 96.2259L161.669 78.9505L158.263 69.3396L133.204 90.873L136.853 96.2259Z" fill="white"/>
<path d="M155.1 76.5174C156.317 78.9506 159.236 80.0455 161.791 78.9506C164.224 77.734 165.319 74.8142 164.224 72.2594C163.008 69.8262 160.088 68.7313 157.533 69.8262C154.979 71.1645 153.884 74.0842 155.1 76.5174Z" fill="white"/>
<path d="M156.317 78.3422L163.372 71.2861L142.936 48.2928C140.624 45.1297 136.002 44.7647 133.326 47.5628C130.528 50.361 130.893 57.9037 133.934 60.3369L156.317 78.3422Z" fill="white"/>
<path d="M121.671 46.5982L130.035 47.3066L131.524 29.7298L123.16 29.0213L121.671 46.5982Z" fill="#FEA1A1"/>
<path d="M83.5717 54.984C80.7738 55.2273 78.7058 57.5388 78.9491 60.3369C79.1924 63.135 81.5037 65.2032 84.3016 64.9599C87.0995 64.7166 89.1675 62.4051 88.9242 59.607C88.6809 56.9305 86.3696 54.8623 83.5717 54.984Z" fill="white"/>
<path d="M80.4089 55.714L85.3964 64.7167L116.295 55.714C120.066 54.7407 122.134 47.5629 120.674 44.0348C119.214 40.3851 114.835 38.9252 111.551 40.9934L80.4089 55.714Z" fill="white"/>
<path d="M127.608 90.3864L143.179 52.0642C143.909 48.901 141.841 45.8596 138.678 45.373L116.295 40.2633C113.132 39.7767 110.212 42.3315 110.091 45.4946L102.427 87.2232L127.608 90.3864Z" fill="white"/>
<path d="M125.175 8.63235C122.621 11.9171 117.876 13.2553 116.781 16.2968L116.538 17.635C116.538 17.7567 116.538 17.7567 116.538 17.8783L115.808 22.1364C114.957 27.4893 118.485 32.4773 123.837 33.4505C129.189 34.3021 134.177 30.7741 135.15 25.4211L136.002 20.6765C135.394 15.6885 126.513 15.3235 125.175 8.63235Z" fill="#FEA1A1"/>
<path d="M134.055 22.988C133.812 24.2046 134.664 25.4212 135.88 25.5428C137.096 25.7861 138.313 24.9345 138.435 23.718C138.678 22.5014 137.826 21.2848 136.61 21.1631C135.393 20.9198 134.299 21.7714 134.055 22.988Z" fill="#FEA1A1"/>
<path d="M113.497 88.6832L124.81 116.3L114.105 245.865H105.833L96.7747 124.586C96.3283 118.609 96.78 112.598 98.1148 106.755L102.549 87.345L113.497 88.6832Z" fill="#265B91"/>
<path d="M113.497 88.6832V110.649C113.497 114.383 114.194 118.085 115.553 121.563L164.102 245.865H170.306L144.629 118.048C143.755 113.693 141.923 109.586 139.268 106.024L127.608 90.3864L113.497 88.6832Z" fill="#02A3A3"/>
<path d="M110.456 252.678H106.928V245.865H111.429L110.456 252.678Z" fill="#FEA1A1"/>
<path d="M106.806 251.096L108.874 251.948L110.699 251.096L111.904 254.971C112.155 255.777 111.571 256.6 110.728 256.63L93.4284 257.239C92.1118 257.285 91.7593 255.443 93 255L106.806 251.096Z" fill="#2A294F"/>
<path d="M168.238 252.678H171.644L169.576 245.865H165.075L168.238 252.678Z" fill="#FEA1A1"/>
<path d="M171.766 251.096L169.698 251.948L167.873 251.096L166.714 254.823C166.44 255.702 167.079 256.6 168 256.63L185.991 257.21C187.584 257.261 188.003 255.031 186.5 254.5L171.766 251.096Z" fill="#2A294F"/>
<path d="M117.755 61.1885C117.755 65.0816 114.592 68.2446 110.699 68.2446C106.806 68.2446 103.644 65.0816 103.644 61.1885C103.644 57.2955 106.806 54.1324 110.699 54.1324C114.592 54.1324 117.755 57.2955 117.755 61.1885Z" fill="white"/>
<path d="M117.025 40.5068L117.876 55.714L131.014 42.3316L117.025 40.5068Z" fill="#FEA1A1"/>
<path d="M145.612 9.72727C144.517 8.26737 143.179 7.17245 141.598 6.32085C139.165 4.98261 136.367 5.10427 134.055 3.15775L135.88 21.0414C139.165 20.0682 138.921 27.1243 135.15 25.1778C135.15 25.1778 127.73 28.3409 124.932 35.2754C122.985 39.8984 122.621 45.373 123.229 48.5361C124.08 54.1323 128.825 57.0521 134.299 55.3489C137.462 54.3757 140.138 51.9425 141.962 49.1444C148.41 39.2901 152.789 23.1096 147.193 12.0388C146.585 11.3088 146.098 10.5789 145.612 9.72727Z" fill="#265B91"/>
<path d="M85.7613 7.65912L85.6397 8.75404C85.2747 11.0655 86.8561 13.377 89.2891 13.742L91.1138 13.9853C93.4251 14.3503 95.7364 12.7688 96.1013 10.3356L96.223 9.24067L85.7613 7.65912Z" fill="#FEA1A1"/>
<path d="M125.418 22.8664C124.81 22.5014 121.039 21.7715 120.553 22.0148C120.066 22.2581 119.823 22.988 119.944 23.4747C120.066 24.0829 120.431 24.4479 120.917 24.8129C122.012 25.5428 123.472 25.6645 124.689 25.0562C125.175 24.8129 125.54 24.5696 125.783 24.0829C125.905 23.718 125.905 23.1097 125.418 22.8664Z" fill="white"/>
</svg>
