<svg width="110" height="271" viewBox="0 0 110 271" fill="none" xmlns="http://www.w3.org/2000/svg">
<g clip-path="url(#clip0_18_328)">
<path d="M40.7383 83.4773C41.4094 81.5344 43.0202 70.748 43.0202 70.748L45.5034 84.4823L40.7383 83.4773Z" fill="#FEA1A1"/>
<path d="M0 79.3906L2.34899 60.8326L38.0537 73.8299V81.5345L0 79.3906Z" fill="#FF7900"/>
<path d="M1.07385 78.5866L3.62419 60.4976L37.2484 72.6239L36.7786 81.0655L1.07385 78.5866Z" fill="white"/>
<path d="M39.5302 143.104C39.5973 146.856 37.3154 186.049 42.349 197.304C47.3826 208.559 77.4497 232.812 78.3893 238.373C79.396 243.934 82.953 236.43 83.1544 242.527C83.2886 248.556 86.1074 245.474 86.443 239.311C86.7785 233.214 86.6443 243.465 85.9732 236.966C85.302 230.467 82.349 228.524 72.4161 210.77C67.1141 201.257 58.3893 196.031 58.7919 185.379C59.1946 174.659 77.1141 156.838 77.9866 143.037C78.8591 129.303 39.5302 143.104 39.5302 143.104Z" fill="#FEA1A1"/>
<path d="M74.2282 123.876C74.2282 123.876 82.2148 130.04 73.1544 165.749C64.094 201.458 64.1611 199.984 68.5235 211.105C72.8859 222.227 67.5168 252.777 66.8456 256.06C66.1745 259.343 68.9933 261.821 60.5369 263.898C52.0805 266.042 49.5302 267.717 44.9664 266.176C40.3356 264.635 53.2215 263.63 56.1745 252.777C59.1275 241.924 48.6577 202.061 48.6577 188.662C48.7248 175.329 45.6376 138.682 45.6376 138.682L74.2282 123.876Z" fill="#FEA1A1"/>
<path d="M45.302 33.5651C45.1678 34.0341 45.3692 36.9149 45.302 38.7238C45.2349 40.5327 44.3625 41.6047 46.0403 41.8057C47.7182 42.0067 50.9396 42.6096 52.349 40.3987C53.6242 38.1879 45.302 33.5651 45.302 33.5651Z" fill="#307CC4"/>
<path d="M60.2013 23.3147C60.2013 23.3147 58.255 16.9501 52.0805 16.8831C45.8389 16.8161 41.2081 19.3619 42.6846 25.4586C44.1611 31.6222 46.1074 38.2549 49.4631 40.7337C49.4631 40.7337 50.7383 41.3367 52.2819 41.1357L53.0201 49.4433C53.0201 49.4433 60.604 52.8601 63.7584 46.4284L61.4094 31.3543C61.4094 31.3543 65.3691 29.0764 65.0336 24.9896C64.6309 20.9698 60.2013 23.3147 60.2013 23.3147Z" fill="#FEA1A1"/>
<path d="M52.5503 42.4756H52.4161L52.2819 41.1357C52.2819 41.1357 56.4429 40.8007 59.1946 38.5228C61.9463 36.2449 58.0537 42.4756 52.5503 42.4756Z" fill="#FEA1A1"/>
<path d="M75.302 26.5305C71.6779 20.9698 68.3222 12.1933 61.745 11.4563C59.8658 10.7864 58.3222 11.0544 58.3222 11.0544C58.3222 11.0544 51.0067 9.44646 48.1879 12.4613C45.839 15.0071 42.8859 13.4662 41.4765 18.223C40.8725 19.7639 40.4698 21.7068 41.0067 23.8507C41.3423 26.1955 42.2148 29.8133 44.094 30.8853C44.094 30.8853 43.7584 28.3394 43.6913 26.1955C45.0336 25.9945 46.6443 25.0566 48.2551 24.9226C50.8725 24.7886 52.0134 26.1285 54.698 24.7886C57.5168 24.7216 58.3222 28.0044 59.3289 27.0665C60.4698 26.0615 59.6645 23.5157 62.4161 22.6447C62.4161 22.6447 64.6309 22.1088 64.7651 25.3916C64.8322 26.7315 64.3624 28.0714 63.5571 29.1434C63.0202 29.8133 62.2819 30.6173 61.3423 31.3542C61.3423 31.3542 60 33.1631 59.5302 35.374C59.396 36.245 59.396 36.8479 59.4631 37.3169C59.3289 37.7189 59.2618 38.1209 59.1275 38.5229C58.4564 41.9397 61.9463 39.3938 64.8994 38.5229C67.9195 37.6519 71.3423 35.642 73.0202 34.1011C74.8322 32.5602 78.9262 32.0912 75.302 26.5305Z" fill="#307CC4"/>
<path d="M73.6913 16.0791C71.6108 16.682 67.9195 14.3372 65.1007 13.8682C62.2819 13.3992 60.6041 14.8731 60.6041 14.8731C60.6041 14.8731 61.4095 13.6672 61.5437 10.7194C61.6108 7.77154 58.7249 6.16363 56.9799 1.2729C55.235 -3.55083 54.9665 6.09663 55.7048 9.44645C56.1074 11.3223 57.3826 12.3943 58.188 13.1982C56.3759 11.7913 53.7584 10.9204 50.1343 11.1884C49.396 11.4563 48.7249 11.8583 48.2551 12.3943C47.7182 12.9973 47.1142 13.3322 46.5101 13.6672C46.7115 13.6002 57.5168 10.9204 61.0068 23.5157C61.3423 23.1137 61.8121 22.8457 62.4833 22.6447C62.4833 22.6447 62.6175 22.6447 62.7517 22.6447C62.5504 21.2378 62.2148 19.5629 61.6108 17.955C61.6779 17.955 61.8121 18.022 61.8793 18.022C64.4967 18.6919 67.7853 18.424 71.141 18.6919C74.4296 18.9599 75.7719 15.5431 73.6913 16.0791Z" fill="#FFB000"/>
<path d="M52.6846 45.4905L52.9531 48.3713C52.9531 48.3713 52.349 48.0363 52.349 47.9693C52.2819 47.9023 52.0135 46.6964 52.6846 45.4905Z" fill="#010811"/>
<path d="M56.5772 47.0313C57.3826 46.5623 63.0201 41.6716 63.9597 41.1356C64.8993 40.5997 67.4497 41.0017 68.5906 44.0835C69.7316 47.1653 71.6779 48.2373 74.1611 53.396C76.6443 58.5547 74.8993 74.7678 72.5503 81.8694C70.2014 88.971 67.9866 100.628 71.9463 108.4C75.9061 116.172 83.2886 144.176 83.6242 154.493C83.6242 154.493 51.141 163.203 35.0336 158.982C35.0336 158.982 36.7785 108.869 39.6644 98.6855C42.5503 88.569 44.5638 82.6734 42.7517 74.4328C40.9396 66.1253 40.604 66.6612 43.2215 60.8326C45.9061 54.9369 52.6846 45.4234 52.6846 45.4234C52.6846 45.4234 51.2081 50.1132 56.5772 47.0313Z" fill="#02A3A3"/>
<path d="M6.30872 82.1375L0 79.3906C0 79.3906 11.5436 70.8821 12.349 71.2841C13.1544 71.686 47.9195 85.4873 47.9195 85.4873L34.2282 93.6608L6.30872 82.1375Z" fill="#FFB000"/>
<path d="M39.6644 98.7525C39.6644 98.7525 24.5637 93.1918 21.6778 91.5169C18.7919 89.842 44.0268 93.5938 44.0268 94.0627C43.9597 94.5317 39.6644 98.7525 39.6644 98.7525Z" fill="#FEA1A1"/>
<path d="M22.4161 85.6883C22.4161 85.6883 21.0067 85.3533 18.3893 83.4104C15.7718 81.4005 13.7584 81.1325 12.0806 80.1276C10.4027 79.1226 7.91948 77.6487 8.85908 79.4576C9.79868 81.2665 12.6846 82.6734 11.0067 82.9414C9.32888 83.2764 7.44968 82.7404 6.24163 82.1375C5.03358 81.5345 7.65103 85.8223 12.6846 88.9041C17.7181 91.9859 17.7853 91.7849 22.349 92.4549C26.9799 93.0579 52.2819 98.6856 56.1074 98.4846C59.9329 98.2836 65.7718 85.4203 66.3759 81.8695C66.3759 81.8695 62.8188 81.1995 57.9195 80.7305C53.0202 80.2616 55.302 80.7305 52.0806 87.5642C50.7383 90.847 33.49 85.4203 22.4161 85.6883Z" fill="#FEA1A1"/>
<path d="M52.2148 81.8694C53.4229 82.0034 66.9799 86.7602 68.792 84.2143C69.7316 82.9414 72.8189 63.0435 70.6041 57.3488C68.4565 51.6541 62.9531 48.1033 59.1276 53.396C55.235 58.6887 52.2148 81.8694 52.2148 81.8694Z" fill="#008C8C"/>
<path d="M73.2886 236.698C73.2886 236.698 80.604 224.036 81.8121 224.371C82.953 224.706 84.9664 228.993 88.1208 231.606C91.2752 234.152 94.2953 235.425 93.3557 240.115C92.4161 244.737 88.3221 250.901 86.3758 255.323C84.4966 259.745 82.953 259.946 79.7315 259.745C76.4429 259.544 76.3758 257.601 78.1879 253.849C80.0671 250.03 80.8725 244.67 79.9329 243.13C78.9933 241.522 73.2886 236.698 73.2886 236.698Z" fill="#F0523A"/>
<path d="M54.7651 249.829C54.698 249.427 67.4496 246.01 69.1946 246.412C69.1946 246.412 68.5235 251.437 69.1946 255.122C69.8658 258.807 71.6778 263.764 65.4362 265.104C59.2617 266.377 48.0537 268.99 44.9664 268.454C41.8792 267.918 39.5302 266.578 44.9664 263.228C50.3355 259.812 55.7047 256.931 54.7651 249.829Z" fill="#F0523A"/>
</g>
<defs>
<clipPath id="clip0_18_328">
<rect width="110" height="271" fill="white"/>
</clipPath>
</defs>
</svg>
