<svg width="78" height="248" viewBox="0 0 78 248" fill="none" xmlns="http://www.w3.org/2000/svg">
<path d="M17.409 232.639C17.409 232.639 11.5371 237.879 3.22623 242.215C-0.748564 244.293 -2.46497 248.268 6.56865 247.364C15.6023 246.461 27.4363 244.925 28.701 243.299C30.2367 241.402 25.9909 236.163 24.0938 227.852C23.7325 225.864 17.409 232.639 17.409 232.639Z" fill="#02A3A3"/>
<path opacity="0.2" d="M17.409 232.639C17.409 232.639 11.5371 237.879 3.22623 242.215C-0.748564 244.293 -2.46497 248.268 6.56865 247.364C15.6023 246.461 27.4363 244.925 28.701 243.299C30.2367 241.402 25.9909 236.163 24.0938 227.852C23.7325 225.864 17.409 232.639 17.409 232.639Z" fill="#02A3A3"/>
<path d="M18.6738 236.163C18.6738 236.163 15.9638 233.452 14.3377 235.259L18.6738 236.163Z" fill="white"/>
<path d="M16.054 237.427C16.054 237.427 13.7052 235.078 12.2599 236.614L16.054 237.427Z" fill="white"/>
<path d="M13.7053 238.873C13.7053 238.873 11.5373 236.705 10.1822 238.15L13.7053 238.873Z" fill="white"/>
<path d="M26.8942 232.91C26.8942 232.91 19.6674 237.879 9.82071 241.312C5.12324 242.938 2.59381 247.184 12.8018 247.455C22.9194 247.816 36.1989 247.906 37.8249 246.371C39.8123 244.473 35.9279 238.15 35.1148 228.665C34.8438 226.316 26.8942 232.91 26.8942 232.91Z" fill="#02A3A3"/>
<path d="M25.8103 237.337C25.8103 237.337 23.4616 234.356 21.6548 235.891L25.8103 237.337Z" fill="white"/>
<path d="M23.1001 238.15C23.1001 238.15 21.1127 235.53 19.4867 236.885L23.1001 238.15Z" fill="white"/>
<path d="M20.5708 239.324C20.5708 239.324 18.6738 236.885 17.2284 238.15L20.5708 239.324Z" fill="white"/>
<path d="M26.8039 44.6499L32.9468 43.2045C32.9468 43.2045 30.2367 53.9545 37.4636 58.4713C44.6905 62.9881 32.1338 64.4335 32.1338 64.4335L19.7577 65.6982C19.7577 65.6982 24.5455 54.7676 21.3837 49.7991C19.1253 46.1856 26.8039 44.6499 26.8039 44.6499Z" fill="#FEA1A1"/>
<path opacity="0.47" d="M27.0751 43.1142L32.4952 40.4944C32.4952 40.4944 36.47 53.2318 34.9343 57.2066C32.1339 64.5239 20.0288 64.2528 20.0288 64.2528C20.0288 64.2528 24.8166 53.3222 21.6549 48.3537C19.3965 44.6499 27.0751 43.1142 27.0751 43.1142Z" fill="#FEA1A1"/>
<path d="M21.6548 29.9251C17.138 29.5638 13.7052 31.5512 11.6275 37.2424C10.3628 40.6751 11.9888 43.9272 10.8145 45.734C10.0918 46.9083 9.45943 46.818 9.91111 47.4503C10.5435 48.2634 11.6275 48.3537 11.6275 48.3537C11.6275 48.3537 13.4342 54.8579 17.5897 55.8516C21.2935 56.755 26.1716 53.1415 28.43 48.8054C30.0561 45.7339 32.0435 30.7382 21.6548 29.9251Z" fill="#FEA1A1"/>
<path opacity="0.47" d="M21.6548 29.9252C20.3901 29.8348 19.2157 29.9252 18.1317 30.1962C24.9069 32.5449 25.4489 44.1983 24.5455 47.1794C23.3712 50.9735 20.3901 54.5869 17.3187 55.671C17.409 55.671 17.4993 55.7613 17.5897 55.7613C21.2935 56.6647 26.1716 53.0512 28.43 48.7151C30.0561 45.734 32.0435 30.7382 21.6548 29.9252Z" fill="#FEA1A1"/>
<path d="M13.2535 127.94C13.2535 127.94 5.39429 168.862 5.12329 179.251C4.76194 194.608 16.4153 232.91 16.4153 232.91L31.9531 229.749C31.9531 229.749 31.6821 192.169 27.4363 185.394C23.1905 178.618 29.6947 121.526 29.6947 121.526L13.2535 127.94Z" fill="#F0523A"/>
<path opacity="0.2" d="M13.2535 127.94C13.2535 127.94 5.6653 170.579 5.12329 179.251C4.21992 193.343 16.4153 232.91 16.4153 232.91L31.9531 229.749C31.9531 229.749 31.6821 192.169 27.4363 185.394C23.1905 178.618 29.6947 121.526 29.6947 121.526L13.2535 127.94Z" fill="#F0523A"/>
<path opacity="0.2" d="M27.617 162.81L20.8418 135.98C20.8418 135.98 13.8859 173.289 13.5245 181.148C12.8922 193.976 26.8039 229.839 26.8039 229.839L32.4048 191.356L27.617 162.81Z" fill="#F0523A"/>
<path d="M36.4699 117.37L46.1359 124.417C46.1359 124.417 48.846 133.089 45.3229 144.471C41.7998 155.854 38.8187 166.513 39.7221 172.747C40.6254 178.98 43.4258 182.954 42.6128 192.801C41.7998 202.738 36.4699 234.265 36.4699 234.265H23.9132C23.9132 234.265 18.7641 181.238 18.7641 177.534C18.7641 173.831 16.054 134.444 18.7641 124.507C21.4741 114.48 36.4699 117.37 36.4699 117.37Z" fill="#F0523A"/>
<path d="M32.9468 122.158C23.8229 127.037 20.7515 139.684 20.7515 139.684C20.7515 139.684 13.2536 130.74 14.7893 126.223C16.325 121.616 36.9216 119.99 32.9468 122.158Z" fill="#F1F2F2"/>
<path d="M18.3122 128.301C14.4278 133.992 11.1757 141.852 11.1757 141.852C11.1757 141.852 10.182 136.07 10.2723 130.469C10.3627 126.765 19.7576 126.314 18.3122 128.301Z" fill="#F1F2F2"/>
<path opacity="0.1" d="M34.5729 233.723C34.5729 233.723 37.554 201.925 37.6443 191.988C37.7346 182.051 34.5729 178.257 33.2178 172.205C31.8628 166.062 34.0309 155.131 36.6506 143.568C39.2704 132.005 35.9279 123.513 35.9279 123.513L34.3019 117.099C35.5666 117.19 36.3796 117.37 36.3796 117.37L46.0456 124.417C46.0456 124.417 48.7557 133.089 45.2326 144.471C41.7094 155.854 38.7283 166.513 39.6317 172.747C40.5351 178.98 43.3355 182.955 42.5225 192.801C41.7094 202.738 36.3796 234.265 36.3796 234.265H28.159L34.5729 233.723Z" fill="#F0523A"/>
<path d="M34.7535 56.3032C34.7535 56.3032 31.6821 63.8915 20.7514 63.0784C20.7514 63.0784 13.9762 70.3053 12.7115 82.9524C11.4468 95.5091 9.00772 126.043 9.00772 126.043C9.00772 126.043 7.92369 135.98 10.9048 135.98C16.0539 135.98 20.3901 124.778 29.785 124.778C39.18 124.778 46.2262 124.326 46.2262 124.326C46.2262 124.326 53.6337 98.8515 50.3816 85.6625C47.0392 72.5637 45.1422 60.6394 34.7535 56.3032Z" fill="#FDC445"/>
<path d="M20.8417 63.0785L22.3774 63.1688C23.5517 63.2592 24.6358 63.8915 25.2681 64.8852L27.2555 67.8663C27.2555 67.8663 35.2051 59.0134 34.8438 56.213C34.5727 54.2256 31.682 53.4125 31.682 53.4125C31.682 53.4125 29.2429 61.0911 20.8417 63.0785Z" fill="white"/>
<path opacity="0.77" d="M46.2262 124.417C46.2262 124.417 39.18 124.868 29.785 124.868C20.39 124.868 16.0539 136.07 10.9048 136.07C10.1821 136.07 9.73038 135.528 9.45937 134.625C41.7094 108.698 32.4047 81.3264 32.4047 81.3264L43.5161 91.6247V103.188L49.5686 109.782C48.1232 117.913 46.2262 124.417 46.2262 124.417Z" fill="#FDC445"/>
<path d="M33.3984 119.629C33.3984 119.629 24.5455 129.927 24.3648 133.631C24.1841 137.335 33.3984 139.593 33.3984 139.593L39.7219 122.429L33.3984 119.629Z" fill="#FEA1A1"/>
<path d="M36.5601 126.314C36.5601 126.314 38.0958 129.205 40.2639 129.656L39.9929 124.597L38.3669 122.7L36.5601 126.314Z" fill="#F4AA27"/>
<path d="M34.031 117.732L29.5141 123.423C29.5141 123.423 35.386 129.566 37.4637 130.108L40.4448 123.965L34.031 117.732Z" fill="#F1F2F2"/>
<path d="M29.785 75.2738L41.8901 61.7234C41.8901 61.7234 53.8144 79.6099 54.0854 98.3095V99.3936C54.0854 100.749 53.7241 102.104 53.0917 103.278L40.264 129.656C40.264 129.656 39.0897 124.868 34.3018 120.894C32.4048 119.267 32.1338 119.448 32.1338 119.448L39.722 98.3999L29.785 75.2738Z" fill="#FDC445"/>
<path d="M26.1717 128.301C26.1717 128.301 28.5204 135.618 36.0183 135.98C36.0183 135.98 35.0246 144.291 31.5015 144.291C27.9784 144.291 23.0099 135.98 23.0099 135.98L26.1717 128.301Z" fill="#F0523A"/>
<path d="M25.6296 38.1457C24.9972 36.5197 23.3712 34.8936 20.9321 34.9839C18.9447 34.9839 17.5897 35.8873 15.6023 36.1583C10.9951 36.7003 7.02036 30.5575 11.6275 27.5764C12.5309 26.944 13.7052 26.7634 14.7893 26.673C16.1443 26.673 17.4993 27.1247 18.8544 27.0344C20.4804 26.8537 21.8355 25.589 23.4615 25.2276C25.0876 24.8663 26.804 24.8663 28.2493 25.7697C30.0561 26.8537 30.4174 28.9314 32.0435 30.0155C33.1275 30.8285 34.5729 30.7381 35.8376 31.3705C37.0119 31.9125 37.9153 33.0869 38.367 34.2613C38.909 35.797 38.909 37.423 38.5477 38.9587C38.2766 40.0428 37.9153 41.1268 37.7346 42.2108C37.554 43.6562 38.096 44.6499 38.638 45.9146C39.2703 47.4503 39.5414 49.1667 39.2704 50.8831C38.9993 52.7802 37.9153 54.5869 36.1989 55.4902C32.9468 57.1163 29.9657 54.5869 29.0624 51.5155C28.43 49.2571 28.159 46.1856 28.8817 43.9272C30.1464 39.5008 26.804 41.1268 25.6296 38.1457Z" fill="#271A11"/>
<path d="M21.7451 59.5554L18.5834 62.3558L20.8418 63.0785L21.7451 59.5554Z" fill="white"/>
<path d="M17.3187 64.6142L20.2094 63.8915L20.8418 63.0785L20.2094 62.8978C19.3061 62.6268 18.3124 62.9881 17.8607 63.8012L17.3187 64.6142Z" fill="#D3D2D1"/>
<path d="M25.8103 39.0491C25.8103 39.0491 28.159 36.5196 29.9657 37.965C33.0372 40.4944 29.2431 46.4566 26.4426 44.4692" fill="#FEA1A1"/>
<path d="M25.8103 39.0491C25.8103 39.0491 28.159 36.5196 29.9657 37.965C33.0372 40.4944 29.2431 46.4566 26.4426 44.4692" fill="#FEA1A1"/>
<path opacity="0.47" d="M25.8103 39.1394C25.8103 39.1394 28.159 36.5196 29.9657 37.965C33.0372 40.4944 29.2431 46.4566 26.4426 44.4692" fill="#FEA1A1"/>
<g opacity="0.56">
<path opacity="0.56" d="M30.0561 52.1478C30.5981 50.6121 30.6884 48.8054 30.4174 47.1793C30.1464 45.8243 29.7851 44.7403 30.2368 43.3852C30.5981 42.3012 31.1401 41.3978 31.5918 40.3138C32.2242 38.8684 32.5855 37.2424 32.3145 35.6163C32.1338 34.3516 31.4111 33.0869 30.4174 32.2739C29.3334 31.4609 27.888 31.2802 26.9846 30.2865C25.6296 28.8411 25.6296 26.7634 24.0939 25.4083C24.0035 25.318 23.8229 25.2277 23.7325 25.1373C25.2683 24.8663 26.804 24.9567 28.159 25.7697C29.9657 26.8537 30.3271 28.9315 31.9531 30.0155C33.0372 30.8285 34.4826 30.7382 35.7473 31.3705C36.9216 31.9125 37.825 33.0869 38.2767 34.2613C38.8187 35.797 38.8187 37.423 38.4573 38.9588C38.1863 40.0428 37.825 41.1268 37.6443 42.2109C37.4636 43.6562 38.0056 44.6499 38.5477 45.9146C39.18 47.4504 39.451 49.1667 39.18 50.8831C38.909 52.7802 37.825 54.5869 36.1086 55.4903C33.4889 56.8453 31.0498 55.3999 29.7851 53.2319C29.7851 52.7802 29.9657 52.5092 30.0561 52.1478Z" fill="#271A11"/>
</g>
<path d="M61.5234 33.5469C61.6641 31.5156 62.0781 29.8047 62.7656 28.4141C63.4688 27.0078 64.5469 25.7188 66 24.5469C67.4688 23.3594 68.4531 22.4922 68.9531 21.9453C70.2969 20.4609 70.8828 18.8828 70.7109 17.2109C70.5547 15.6953 69.6719 14.9141 68.0625 14.8672C66.9531 14.8359 66.0156 15.1875 65.25 15.9219C64.4844 16.6562 63.9766 17.6562 63.7266 18.9219L57.0938 18.9688C57.2969 16 58.4375 13.6484 60.5156 11.9141C62.6094 10.1641 65.2344 9.32031 68.3906 9.38281C71.3438 9.44531 73.6484 10.2891 75.3047 11.9141C76.9609 13.5391 77.6875 15.7031 77.4844 18.4062C77.2969 21.0625 75.7812 23.5859 72.9375 25.9766L69.9375 28.4609C68.5 29.7891 67.625 31.4766 67.3125 33.5234L61.5234 33.5469ZM59.3438 40.8594C59.3125 39.8125 59.6484 38.9297 60.3516 38.2109C61.0547 37.4922 61.9375 37.1172 63 37.0859C64 37.0547 64.8672 37.375 65.6016 38.0469C66.3359 38.7031 66.7188 39.5547 66.75 40.6016C66.7812 41.5859 66.4531 42.4453 65.7656 43.1797C65.0781 43.9141 64.1875 44.2969 63.0938 44.3281C62.0469 44.3281 61.1641 44.0078 60.4453 43.3672C59.7422 42.7266 59.375 41.8906 59.3438 40.8594Z" fill="#F0523A"/>
</svg>
