<svg width="139" height="272" viewBox="0 0 139 272" fill="none" xmlns="http://www.w3.org/2000/svg">
<path d="M64.1526 76.64C61.0112 78.5241 57.8698 80.4082 54.5714 82.2923C53.0007 83.2343 51.5871 84.0194 50.0164 84.8044C47.5033 86.0605 44.8331 87.1595 42.1629 88.1016C41.5347 85.4324 40.5922 81.8212 39.9639 79.1521C37.922 70.5166 37.4508 68.1615 38.3932 63.1372C39.0215 60.154 37.765 59.0549 35.4089 57.1708C34.7807 58.4269 33.9953 59.526 33.3671 60.782C33.21 61.0961 32.8958 61.5671 32.8958 61.8811C32.7388 62.5091 33.21 63.1372 33.0529 63.7652C31.9534 76.1689 33.6812 86.0605 35.2519 97.2081C35.2519 97.3651 35.409 97.6792 35.566 97.8362C35.7231 97.9932 38.7074 97.5221 38.8645 97.5221C45.6184 95.481 50.3305 93.5969 56.7703 90.7708C61.4824 88.7296 65.4091 86.0605 69.3358 82.6063" fill="#FEA1A1"/>
<path d="M83.6292 44.6102C82.8438 50.1055 84.2574 55.9148 87.5559 60.6251C87.713 60.7821 87.87 61.0961 87.87 61.2532C87.87 61.5672 87.713 61.8812 87.5559 62.1952C84.5716 67.0625 79.3883 70.3597 73.8909 71.1447C76.2469 65.9634 76.0899 59.8401 73.4197 54.8158" fill="#FEA1A1"/>
<path d="M120.069 199.107C123.525 208.528 124.467 218.576 126.823 228.311C128.237 234.12 130.279 240.086 135.148 243.541C135.462 243.855 135.933 244.012 135.933 244.483C135.933 244.797 135.776 245.111 135.462 245.425C130.279 252.019 123.682 257.514 116.457 261.754C119.284 255.944 122.111 249.821 121.797 243.383C121.64 240.086 120.698 236.946 119.598 233.806C115.828 222.501 110.645 211.668 104.519 201.305" fill="#FEA1A1"/>
<path d="M131.849 240.4C134.991 241.656 137.347 244.483 138.76 247.78C138.918 248.094 139.075 248.408 138.917 248.722C138.917 249.036 138.603 249.35 138.446 249.507C135.462 253.118 131.535 255.63 128.394 259.084C127.294 260.34 126.352 261.754 125.095 262.853C124.153 263.638 123.211 264.423 122.268 265.051C120.069 266.621 117.87 268.034 115.671 269.604C114.258 270.546 112.373 271.645 110.802 270.86C110.488 270.703 110.331 270.546 110.174 270.232C110.174 269.918 110.174 269.761 110.331 269.447C112.059 265.208 114.572 261.125 117.713 257.671C118.027 257.357 118.342 257.043 118.813 256.729C119.127 256.572 119.598 256.415 119.912 256.415C126.823 254.688 130.75 247.309 131.849 240.4Z" fill="#265B91"/>
<path d="M113.001 270.703C114.729 269.761 115.985 268.034 117.399 266.778C119.127 265.051 121.483 263.952 123.211 262.225C124.624 260.812 125.724 259.084 126.98 257.514C128.551 255.316 130.593 253.589 132.792 252.019C134.52 250.92 136.247 249.821 137.661 248.408C137.975 248.094 138.289 247.623 138.603 247.152C138.603 247.309 138.76 247.466 138.76 247.623C138.918 247.937 139.075 248.251 138.917 248.565C138.917 248.879 138.603 249.193 138.446 249.35C135.462 252.961 131.535 255.473 128.394 258.927C127.294 260.184 126.352 261.597 125.095 262.696C124.153 263.481 123.211 264.266 122.268 264.894C120.069 266.464 117.87 267.877 115.671 269.447C114.572 270.232 113.315 270.86 112.059 271.017C112.53 270.86 112.687 270.86 113.001 270.703Z" fill="#154678"/>
<path d="M93.9958 102.075C93.3675 104.745 93.6817 107.414 94.6241 110.083C95.5665 112.595 96.823 114.95 98.2366 117.305C99.1791 119.032 100.279 120.759 101.221 122.33C100.121 122.958 98.8649 123.115 97.4513 123.272C90.3832 123.9 83.158 124.685 76.0899 125.313C75.7758 125.313 75.4617 125.313 75.1476 125.156C74.9905 124.999 74.9905 124.842 74.9905 124.685C74.3622 120.288 74.0481 115.892 73.891 111.496C73.7339 107.885 73.5769 104.117 73.2627 100.505" fill="#FEA1A1"/>
<path d="M75.3047 68.1616C71.8492 68.7897 69.022 70.9878 66.3518 73.1859C64.9382 74.285 63.6816 75.384 62.268 76.4831C62.8963 77.2682 63.5246 77.8962 64.1528 78.6812C66.3518 81.1934 68.3937 83.7055 70.5926 86.2177C70.7497 86.3747 70.9068 86.5317 71.2209 86.5317C71.378 86.5317 71.5351 86.3747 71.6921 86.3747C72.6345 85.7466 73.4199 85.1186 74.3623 84.4906" fill="#F0523A"/>
<path d="M87.2418 60.1541C85.5141 62.9802 82.5298 64.3933 79.3884 65.8064C78.446 66.2774 77.6607 66.5914 76.7182 66.9055C76.247 67.0625 75.6187 67.0625 75.3046 67.3765C74.9905 67.6905 74.6763 68.1615 74.5192 68.4755C72.1632 73.6568 69.6502 78.8382 67.2941 84.0195C66.98 84.4905 66.8229 85.1185 66.6658 85.5895C66.3517 87.4737 67.4512 89.2007 68.3936 90.9278C71.0637 95.6381 72.9486 100.976 73.7339 106.472C80.1737 107.1 86.7706 106.786 93.3675 105.844C93.5246 105.844 93.6817 105.844 93.8387 105.687C93.9958 105.53 94.1528 105.216 94.1528 105.059C95.7235 97.9933 96.3518 90.7709 96.0377 83.7054C95.8806 81.5073 95.7235 79.1522 95.2523 76.954C94.9382 75.384 94.3099 73.9709 93.8387 72.5578C93.0534 70.5167 93.6816 69.8886 92.8963 67.8475C91.7968 65.8064 88.8125 61.7242 87.2418 60.1541Z" fill="#EF3F24"/>
<g opacity="0.52">
<path opacity="0.52" d="M68.5508 90.6139C69.8074 91.242 71.6922 91.242 73.2629 90.9279C74.8336 90.6139 76.4043 90.1429 78.132 90.1429C79.3886 89.9859 80.8022 90.1429 82.0588 90.2999C83.4724 90.4569 85.043 90.2999 86.4567 90.2999C84.2577 91.242 81.5875 91.713 79.3886 92.655C78.132 93.1261 77.1896 93.9111 75.9331 94.3821C74.6765 94.8532 73.2629 95.1672 72.0064 94.8532C70.2786 94.3821 69.022 92.498 68.5508 90.6139Z" fill="#F0523A"/>
</g>
<g opacity="0.52">
<path opacity="0.52" d="M83.3151 68.0046C82.3727 69.2607 82.3727 71.9299 82.6868 73.5C83.3151 76.1691 84.2575 78.8383 85.9853 80.8794C86.2994 81.1934 86.7706 81.6644 87.2418 81.8214C87.713 81.9784 88.3413 81.9785 88.8125 81.9785C91.3256 81.9785 94.1529 84.3336 95.8806 86.0607L96.0377 82.9205L84.5717 68.9467L83.3151 68.0046Z" fill="#F0523A"/>
</g>
<path d="M113.41 99.3362C113.024 97.4073 102.158 80.3691 98.4612 73.7788L91.7102 80.0476C94.6035 84.5483 105.212 96.9251 105.212 98.854C105.212 100.783 94.6035 117.66 91.7102 119.107L91.7611 119.463C92.0481 121.472 92.5152 123.451 93.1568 125.376C98.4612 120.071 113.796 101.265 113.41 99.3362Z" fill="#FEA1A1"/>
<path d="M59.5977 216.692C55.3568 225.799 48.7599 233.492 43.4196 241.97C40.2782 246.995 37.4509 252.647 38.3934 258.456C38.3934 258.927 38.5505 259.399 38.2363 259.713C38.0793 260.027 37.608 260.027 37.2939 260.027C28.9692 260.812 20.4875 260.184 12.3199 257.828C18.4456 255.787 24.8854 253.432 29.2834 248.722C31.4823 246.367 33.053 243.384 34.6237 240.4C39.9641 229.724 44.2049 218.576 47.1892 206.957" fill="#FEA1A1"/>
<path d="M38.3933 254.06C39.6499 257.2 39.3357 260.968 38.0792 264.109C37.9221 264.423 37.765 264.737 37.608 264.894C37.2938 265.051 36.9797 265.051 36.6656 265.208C32.1106 265.679 27.3985 264.58 22.8435 264.737C21.1157 264.894 19.5451 265.051 17.8173 265.051C16.5608 265.051 15.4613 264.737 14.2047 264.58C11.5345 264.109 9.02143 263.638 6.35126 263.01C4.62351 262.696 2.58164 262.068 2.11043 260.34C1.95336 260.026 1.95336 259.712 2.11043 259.398C2.2675 259.241 2.42456 259.084 2.7387 258.927C6.97956 257.2 11.6916 256.101 16.2466 255.944C16.7178 255.944 17.189 255.944 17.6602 256.101C17.9744 256.258 18.2885 256.415 18.6027 256.572C24.5713 260.497 32.5818 257.985 38.3933 254.06Z" fill="#265B91"/>
<path d="M3.36693 261.754C5.25176 262.382 7.29367 262.068 9.1785 262.068C11.6916 262.225 14.0476 263.01 16.5607 263.01C18.6026 263.01 20.4875 262.539 22.5294 262.382C25.1995 262.068 27.8697 262.225 30.5399 262.696C32.5818 263.01 34.4666 263.638 36.5085 263.795C36.9797 263.795 37.4509 263.795 37.9221 263.638C37.9221 263.795 37.765 263.952 37.765 264.109C37.608 264.423 37.4509 264.737 37.2939 264.894C36.9797 265.051 36.6656 265.051 36.3514 265.208C31.7964 265.679 27.0844 264.58 22.5294 264.737C20.8016 264.894 19.2309 265.051 17.5031 265.051C16.2466 265.051 15.1471 264.737 13.8906 264.58C11.2204 264.109 8.70729 263.638 6.03712 263.01C4.78057 262.696 3.36692 262.382 2.4245 261.596C3.05278 261.596 3.20986 261.754 3.36693 261.754Z" fill="#154678"/>
<path d="M99.0221 73.3428C96.9802 71.1447 94.31 67.8475 91.7969 66.1204C90.8545 65.4923 89.9121 64.8643 88.8126 64.8643C87.5561 64.7073 86.6137 65.0213 85.5142 65.4924C84.5718 65.9634 83.4723 67.2195 83.3152 68.3185C83.3152 68.7896 83.3152 69.8886 83.3152 70.2026C83.7864 71.7727 83.9435 72.0867 84.7288 73.3428C85.5142 74.7559 86.4566 76.012 87.5561 77.268C88.6556 78.5241 89.7551 79.9372 90.8546 81.1933C91.0116 81.3503 91.0116 81.3503 91.1687 81.5073C91.4828 81.6643 91.6399 81.3503 91.954 81.1933C94.6242 79.1522 97.1373 76.483 99.0221 73.3428Z" fill="#F0523A"/>
<path d="M102.478 132.692C104.991 145.096 108.446 157.186 112.687 169.118C113.472 171.473 114.415 173.672 115.357 175.87C116.457 178.539 117.87 181.051 119.127 183.563L132.478 208.528C132.792 209.156 132.478 209.784 131.849 210.098C120.069 214.808 108.132 219.361 96.1948 223.757C95.5665 223.914 95.0953 223.6 94.9382 222.972C92.111 208.214 87.3989 193.926 83.3152 179.481C79.2314 164.722 75.7758 149.492 76.09 134.105" fill="white"/>
<path d="M102.635 132.692C104.519 141.328 106.718 149.963 109.389 158.442C110.645 162.681 112.216 166.92 113.629 171.16C115.2 175.399 117.085 179.324 119.284 183.249C122.582 189.216 125.724 195.339 129.022 201.305C130.279 203.66 131.535 206.016 132.792 208.371C133.106 208.999 132.949 209.784 132.164 210.098C131.378 210.569 130.436 210.726 129.493 211.197C128.394 211.668 127.137 212.139 126.038 212.61C121.797 214.18 117.556 215.907 113.315 217.477C109.074 219.047 104.676 220.774 100.436 222.344C99.4932 222.658 98.5508 223.13 97.4513 223.444C96.823 223.758 96.0377 224.229 95.4094 223.758C94.7811 223.287 94.7811 222.344 94.7811 221.716C94.6241 220.617 94.3099 219.361 93.9958 218.262C92.111 209.47 89.5978 200.991 87.0847 192.356C82.2156 175.556 77.0323 158.442 76.247 140.857C76.0899 138.659 76.0899 136.461 76.0899 134.262C76.0899 134.105 76.4041 134.105 76.4041 134.262C76.0899 151.69 80.4879 168.804 85.357 185.447C87.713 193.769 90.2261 202.09 92.4251 210.412C92.8963 212.61 93.5246 214.651 93.9958 216.849C94.1529 217.791 94.467 218.89 94.6241 219.832C94.7811 220.303 94.7811 220.931 94.9382 221.402C95.0952 221.873 95.0953 222.501 95.2523 222.972C95.5665 223.915 96.5089 223.601 97.1372 223.287C97.6084 223.129 98.2367 222.815 98.7079 222.658C99.8074 222.187 100.75 221.873 101.849 221.402C103.891 220.617 105.933 219.832 107.975 219.047C112.216 217.477 116.457 215.907 120.698 214.18C122.739 213.395 124.781 212.61 126.823 211.825C127.766 211.511 128.708 211.04 129.65 210.726C130.593 210.412 133.106 209.941 132.478 208.528C132.164 207.9 131.849 207.429 131.535 206.801C130.75 205.387 129.965 203.974 129.336 202.561C126.038 196.281 122.582 190.001 119.284 183.877C117.87 181.208 116.457 178.539 115.2 175.713C113.472 171.788 112.216 167.862 110.802 163.78C108.132 155.616 105.776 147.294 103.734 138.973C103.263 136.932 102.792 134.89 102.32 132.849C102.32 132.535 102.635 132.535 102.635 132.692Z" fill="#FEAC00"/>
<path d="M100.436 147.294C105.305 164.722 112.53 181.365 119.441 198.008C121.483 202.875 123.368 207.586 125.41 212.453C125.567 212.924 124.938 213.081 124.781 212.61C121.326 204.131 117.713 195.653 114.258 187.174C110.802 178.853 107.504 170.531 104.362 162.053C102.635 157.186 101.064 152.318 99.6502 147.451C99.6502 146.98 100.436 146.823 100.436 147.294Z" fill="#FEAC00"/>
<path d="M117.556 215.593C115.357 212.139 114.258 208.056 112.844 204.288C111.43 200.206 109.86 196.124 108.446 192.042C105.462 183.877 102.634 175.713 99.6501 167.391C97.9224 162.681 96.3517 158.128 94.6239 153.417C94.4669 152.946 95.0951 152.789 95.2522 153.26C101.064 169.589 106.875 185.761 112.687 202.09C113.472 204.288 114.258 206.643 115.043 208.842C115.828 211.04 116.771 213.238 118.027 215.122C118.341 215.593 117.713 215.907 117.556 215.593Z" fill="#FEAC00"/>
<path d="M109.074 218.733C103.106 203.189 96.3518 187.959 91.4826 172.102C90.069 167.548 88.9695 162.995 87.87 158.442C87.7129 157.971 88.4983 157.814 88.4983 158.285C91.9538 174.614 98.2366 190.001 104.519 205.387C106.247 209.784 107.975 214.18 109.703 218.576C109.86 218.89 109.231 219.047 109.074 218.733Z" fill="#FEAC00"/>
<path d="M101.535 221.402C96.509 206.801 91.0116 192.356 87.399 177.283C86.4566 173.044 85.5142 168.804 84.7288 164.565C84.5717 164.094 85.3571 163.937 85.3571 164.408C86.7707 171.945 88.4985 179.481 90.6975 186.86C92.8964 194.24 95.4095 201.462 97.9226 208.685C99.3362 212.767 100.75 217.006 102.321 221.088C102.478 221.716 101.692 221.873 101.535 221.402Z" fill="#FEAC00"/>
<path opacity="0.21" d="M103.42 136.303C103.42 136.303 110.331 162.367 102.949 180.109C95.5664 197.851 88.4984 195.81 88.4984 195.81L81.1161 171.159" fill="#E0D8CE"/>
<path d="M74.2046 118.718C81.1156 119.503 88.0266 117.619 94.6235 115.421C95.0947 115.264 96.0371 114.636 96.6654 114.793C96.9795 114.793 97.2937 115.421 97.6078 115.892C102.477 120.759 104.205 128.139 103.733 135.047C103.262 141.799 100.592 148.393 97.2937 154.359C95.4088 157.814 93.367 161.111 91.4822 164.565C90.0685 167.234 88.969 170.06 87.8695 173.043C81.7439 188.43 75.6182 203.817 71.8486 219.989C71.6915 220.931 71.0632 222.658 70.9061 222.815C70.7491 222.972 69.3355 222.815 68.7072 222.815C56.77 222.972 45.461 218.419 34.3092 213.866C33.5238 213.552 32.4243 212.924 32.4243 212.139C32.4243 211.668 32.7384 211.04 32.8955 210.569C40.2777 198.636 43.4191 184.662 49.3877 171.944C53.6286 162.995 59.126 154.83 63.8381 146.352C68.5501 137.873 73.1051 128.61 74.2046 118.718Z" fill="white"/>
<path d="M74.2052 118.718C79.2314 119.189 84.4147 118.404 89.2838 116.991C91.4828 116.363 93.6817 115.735 95.8807 114.95C96.509 114.793 96.9802 114.793 97.2943 115.264C97.9226 116.049 98.5509 116.834 99.1791 117.619C104.362 124.214 104.834 133.477 102.949 141.328C101.849 145.881 99.9645 150.12 97.6085 154.202C95.2524 158.442 92.5822 162.681 90.5403 167.077C88.4985 171.787 86.6136 176.498 84.8859 181.208C83.001 185.918 81.2733 190.628 79.5455 195.339C77.8178 200.049 76.2471 204.759 74.8334 209.627C74.0481 212.139 73.4198 214.494 72.7916 217.006C72.3204 218.89 72.0062 220.774 71.2209 222.501C71.0638 222.972 70.9067 222.972 70.2785 222.972C69.336 222.972 68.5507 222.972 67.6083 222.815C65.2522 222.815 62.8962 222.658 60.5402 222.187C55.671 221.402 51.116 220.146 46.561 218.576C44.205 217.791 41.849 216.849 39.65 215.907C38.5505 215.436 37.6081 215.122 36.5086 214.651C35.5662 214.18 34.4667 213.866 33.5243 213.395C32.896 213.081 32.4248 212.61 32.4248 211.825C32.4248 210.883 33.2101 210.098 33.6813 209.313C34.9379 207.271 35.8803 205.23 36.9798 203.189C41.0636 194.711 43.7338 185.761 47.1893 177.283C50.8019 168.333 55.8281 160.169 60.6972 152.004C65.5664 143.683 70.2785 135.204 72.7916 125.784C73.4198 123.429 73.734 121.073 74.2052 118.718C74.3623 118.561 74.0481 118.561 74.2052 118.718C73.2628 127.825 69.8072 136.303 65.4093 144.311C60.8543 152.632 55.514 160.483 51.2731 168.961C47.1893 177.126 44.3621 185.761 41.0636 194.24C39.4929 198.322 37.7652 202.404 35.7233 206.329C35.2521 207.271 34.6238 208.214 34.1526 209.156C33.6814 210.098 32.2677 211.511 32.896 212.61C33.3672 213.552 34.6238 213.866 35.5662 214.18C36.6657 214.651 37.9222 215.122 39.1788 215.593C47.9746 219.204 57.2417 222.344 66.8229 222.658C67.7653 222.658 68.8648 222.658 69.8072 222.658C70.1214 222.658 70.5926 222.815 70.9067 222.658C71.0638 222.501 71.2209 222.187 71.2209 221.873C72.0062 219.989 72.3204 217.948 72.7916 215.907C74.0481 211.197 75.4617 206.486 77.0324 201.933C80.1738 192.67 83.6293 183.563 87.2419 174.457C88.9696 170.06 90.6974 165.664 93.0535 161.425C95.4095 157.343 97.7655 153.417 99.8074 149.021C103.42 141.014 105.148 131.75 102.163 123.272C101.535 121.388 100.593 119.503 99.3362 117.933C98.7079 117.148 98.0797 116.363 97.4514 115.578C97.1372 115.107 96.9802 114.636 96.3519 114.793C95.8807 114.95 95.5665 115.107 95.0953 115.264C92.8964 116.206 90.5403 116.677 88.1843 117.305C85.9853 117.933 83.6293 118.404 81.4304 118.561C79.0743 118.875 76.7183 118.875 74.3623 118.561C74.0481 118.875 74.0481 118.561 74.2052 118.718Z" fill="#FEAC00"/>
<path d="M95.7235 115.264C99.179 121.387 98.8649 128.767 97.1371 135.361C96.1947 138.973 94.9381 142.584 93.6816 146.038C92.425 149.492 91.0114 153.103 89.5978 156.558C83.9433 170.688 77.6606 184.348 71.849 198.479C68.5506 206.329 65.5663 214.337 62.8961 222.501C62.739 222.972 62.1108 222.815 62.2678 222.344C66.8228 208.213 72.7914 194.397 78.76 180.737C81.7444 173.829 84.7287 167.077 87.5559 160.169C90.3831 153.26 93.2104 146.352 95.5664 139.13C97.9225 131.593 99.3361 122.958 95.4093 115.735C94.9381 115.107 95.5664 114.793 95.7235 115.264Z" fill="#FEAC00"/>
<path d="M91.1687 116.834C90.2263 131.122 86.6137 144.939 81.7446 158.285C76.7184 171.787 70.4356 184.662 63.8388 197.38C59.912 204.916 56.1424 212.453 53.9434 220.617C53.7864 221.088 53.1581 220.931 53.3151 220.46C55.357 213.238 58.4984 206.486 61.7969 199.892C65.0953 193.455 68.3937 187.174 71.5351 180.737C77.6608 167.862 83.1582 154.673 86.7708 140.857C88.8127 133.006 90.2263 125.156 90.6975 117.148C90.3834 116.363 91.1687 116.363 91.1687 116.834Z" fill="#FEAC00"/>
<path d="M83.9434 118.561C83.158 125.47 81.4303 132.064 79.3884 138.659C77.3465 145.253 74.9905 151.847 72.6345 158.285C67.7653 171.316 62.425 184.348 56.6135 196.909C53.315 204.131 49.8595 211.197 46.404 218.105C46.2469 218.576 45.6187 218.105 45.7757 217.791C52.0585 205.387 57.87 192.827 63.3674 180.109C68.7078 167.234 73.7339 154.203 77.9748 141.014C80.3308 133.634 82.5298 126.255 83.3151 118.561C83.3151 118.247 83.9434 118.247 83.9434 118.561Z" fill="#FEAC00"/>
<path d="M78.9173 119.19C77.6608 125.47 75.3048 131.279 72.7917 137.246C69.9644 143.683 67.2942 150.12 64.6241 156.558C59.1267 169.432 53.6293 182.307 48.1319 195.025C45.1476 201.933 42.1632 208.685 38.3936 215.122C38.2365 215.593 37.6082 215.122 37.7653 214.808C41.0638 208.999 43.891 203.032 46.5612 196.909C49.2313 190.629 51.9015 184.348 54.5717 178.068C60.0691 165.193 65.5665 152.318 71.0639 139.444C73.8911 132.692 76.8754 126.098 78.132 118.875C78.2891 118.561 79.0744 118.718 78.9173 119.19Z" fill="#FEAC00"/>
<path opacity="0.21" d="M74.2052 118.718C74.2052 118.718 83.7864 132.221 78.132 145.253C72.4775 158.285 73.1057 173.986 60.6973 176.969C48.2889 179.952 49.5454 171.945 49.5454 171.945C49.5454 171.945 58.0271 155.93 63.0533 148.236C68.0795 140.386 74.3623 123.115 74.2052 118.718Z" fill="#E0D8CE"/>
<path d="M39.4929 46.9654C39.1788 53.8738 38.3934 60.7822 37.294 67.5336C37.1369 68.6326 36.9798 69.7317 36.3515 70.6738C35.4091 71.9298 33.8384 72.5579 32.2677 72.2438C30.697 71.9298 29.4405 70.6738 29.1263 69.1037C28.6551 66.9055 29.7546 64.8644 30.697 62.8233C33.5243 56.857 34.4667 49.9486 33.6813 43.3542" fill="#EF3F24"/>
<path d="M8.23626 19.9598C17.0321 28.9094 27.0845 34.4047 37.9223 37.0738L38.0793 50.4196C27.0845 48.5355 15.6185 50.1056 4.93781 54.9729" fill="#D7E1FC"/>
<g opacity="0.15">
<path opacity="0.15" d="M38.0793 46.1804V50.4197C27.0845 48.5356 15.6185 50.1057 4.93781 54.973L6.19434 41.4702C17.1892 41.1561 27.8699 42.7262 38.0793 46.1804Z" fill="#EF3F24"/>
</g>
<path d="M4.37821 55.2006C1.96023 54.9717 0.75603 46.8085 1.68859 36.9676C2.62115 27.1267 5.33732 19.3347 7.7553 19.5637C10.1733 19.7927 11.3774 27.9559 10.4449 37.7968C9.51232 47.6376 6.79619 55.4296 4.37821 55.2006Z" fill="#EF3F24"/>
<path d="M6.17685 50.0362C4.53608 49.8808 3.71661 44.3665 4.34649 37.7195C4.97637 31.0726 6.81709 25.8102 8.45785 25.9656C10.0986 26.1209 10.9181 31.6353 10.2882 38.2822C9.65832 44.9291 7.81761 50.1915 6.17685 50.0362Z" fill="#FF9080"/>
<path d="M37.1369 36.7599C39.0217 37.0739 40.7494 37.3879 42.6343 37.702C43.5767 37.859 44.6762 38.173 45.3045 38.958C46.0898 39.9001 46.2468 41.1562 46.2468 42.4122C46.2468 44.9244 46.0898 47.2795 45.6186 49.7916C45.4615 50.4197 45.4615 50.8907 44.9903 51.3617C44.5191 52.1468 43.4196 52.3038 42.6343 52.3038C40.4353 52.3038 37.2939 51.5187 35.5662 50.1057" fill="#EF3F24"/>
<path d="M10.7495 32.9915C10.7495 32.9915 5.56625 30.9504 3.52436 33.6196C1.3254 36.1317 1.63955 44.1392 9.96417 43.0401C9.8071 43.0401 10.7495 36.2887 10.7495 32.9915Z" fill="#D7E1FC"/>
<path opacity="0.15" d="M3.36729 33.4627C3.52436 33.3056 3.52437 33.3056 3.68144 33.1486C3.68144 36.1318 5.40918 39.429 10.2783 39.115C10.1213 41.1561 9.80713 42.8832 9.80713 42.8832C1.63954 44.1393 1.32539 36.1318 3.36729 33.4627Z" fill="#EF3F24"/>
<path d="M33.8384 53.7167C33.6814 53.4027 33.5243 53.2457 33.2102 53.0887C32.896 52.9317 32.5819 52.9317 32.4248 53.2457C32.4248 53.4027 32.2677 53.5597 32.2677 53.5597C32.2677 54.1877 32.4248 54.6588 32.5819 55.1298C32.2678 54.9728 31.9536 54.8158 31.6395 54.9728C31.3253 55.1298 31.3253 55.6008 31.4824 55.7578C31.6395 56.0719 31.7966 56.3859 31.6395 56.6999C31.3253 56.3859 30.8541 56.6999 30.8541 57.0139C30.6971 57.3279 30.8541 57.642 31.0112 58.113C30.6971 58.113 30.3829 58.113 30.2259 58.27C29.9117 58.427 30.0688 58.898 30.0688 59.212C30.3829 60.1541 30.8541 60.9391 31.6395 61.5672C31.7966 61.7242 32.1107 61.8812 32.4248 61.8812C32.739 61.8812 33.0531 61.7242 33.0531 61.4101C33.0531 61.2531 33.0531 61.0961 32.896 61.0961C32.7389 60.7821 32.4248 60.3111 32.2677 59.9971C32.4248 60.3111 32.896 60.4681 33.2102 60.3111C33.5243 60.1541 33.6814 59.6831 33.6814 59.3691C33.6814 59.055 33.5243 58.584 33.2102 58.427C33.3672 58.27 33.6814 58.584 33.9955 58.584C34.3096 58.584 34.7808 58.27 34.6238 57.799C34.4667 57.3279 34.3096 57.0139 33.9955 56.8569C34.3096 57.1709 34.9379 57.0139 35.095 56.6999C35.4091 56.3859 35.4091 55.9149 35.252 55.4438C35.095 54.9728 34.7809 54.6588 34.3097 54.5018" fill="#FEA1A1"/>
<path d="M74.0482 56.3858C75.4618 57.1709 77.0325 56.8569 78.6032 56.0718C80.8022 54.9728 82.0588 53.8737 82.8441 51.5186C83.3153 50.4195 83.7865 48.3784 83.7865 47.2793C83.7865 45.5522 84.7289 44.2962 84.886 42.412C84.886 42.255 84.886 41.941 84.5719 41.784C84.4148 41.784 84.4148 41.784 84.2577 41.784C83.6294 42.098 83.1582 42.569 82.8441 43.0401" fill="#FD8F90"/>
<path d="M57.0845 41.313C57.2416 42.5691 57.8699 44.2962 59.4406 44.6102C61.6395 45.0812 62.4249 42.4121 62.2678 40.842C62.1107 39.2719 61.1683 37.5448 59.4406 37.5448C57.5557 37.5448 56.9275 39.743 57.0845 41.313C57.0845 41.4701 56.9274 41.4701 56.9274 41.313C56.7704 39.743 57.3987 37.3878 59.2835 37.2308C61.1683 37.0738 62.2678 39.1149 62.4249 40.685C62.582 42.2551 61.9537 44.6102 60.0688 44.7672C58.184 44.9243 57.0845 42.8831 56.9274 41.313C56.9274 41.313 57.0845 41.156 57.0845 41.313Z" fill="#154678"/>
<path d="M61.6399 27.8102C58.3415 30.6363 56.2996 35.1896 57.5561 39.4288C57.7132 40.0569 58.0273 40.6849 58.0273 41.313C58.3415 43.5111 56.7708 45.3952 54.886 46.6513C54.7289 46.6513 54.7289 46.8083 54.5718 46.9653C54.5718 47.1223 54.5719 47.2793 54.7289 47.4363C55.2001 48.0643 55.9855 48.2213 56.7708 48.5354C57.7132 49.0064 58.3415 49.7914 58.4986 50.7335C58.4986 51.0475 58.6556 51.5185 58.8127 51.6755C59.1268 51.8326 59.441 51.8326 59.7551 51.8326C61.0117 51.8326 62.2682 51.5185 63.5247 51.3615C62.8965 52.4606 61.9541 53.5596 60.8546 54.3447C60.5405 54.5017 60.3834 54.8157 60.3834 55.1297C60.3834 55.2867 60.5405 55.2868 60.6975 55.4438C61.9541 56.0718 63.0535 57.3279 63.5247 58.7409C63.6818 59.369 63.8389 59.997 64.3101 60.311C64.9384 60.7821 65.7237 60.6251 66.352 60.311C67.9227 59.683 69.4934 59.055 70.907 58.2699C71.8494 57.7989 72.7918 57.1709 73.5772 56.6998C74.6767 55.9148 75.9332 55.2868 77.0327 54.5017C77.661 54.1877 78.2892 53.7167 78.7604 53.4026C79.7029 52.6176 81.4306 51.0475 82.0589 49.9485C84.8861 44.9242 84.4149 39.1148 82.5301 33.7765" fill="#FEA1A1"/>
<path d="M61.7966 40.214C61.7966 40.685 61.9536 41.3131 61.9536 41.7841C61.9536 42.0981 61.6395 42.0981 61.4824 41.9411C61.0112 41.4701 60.8541 40.999 61.0112 40.214C61.0112 39.9 61.6395 40.057 61.4824 40.371C61.6395 40.685 61.6395 41.156 61.7966 41.4701C61.6395 41.4701 61.4824 41.6271 61.3253 41.6271C61.3253 41.1561 61.1683 40.528 61.1683 40.057C61.3253 39.9 61.7966 39.9 61.7966 40.214Z" fill="#154678"/>
<path d="M76.5612 39.4289C75.3046 40.3709 74.9905 42.255 74.2051 43.6681C74.0481 43.9821 73.7339 44.2962 73.4198 44.4532C72.9486 44.6102 72.3203 44.4532 71.8491 44.2961C69.6501 43.5111 67.4511 42.7261 65.4092 41.47C63.3673 40.2139 61.6396 38.6438 60.383 36.6027" fill="#FD8F90"/>
<path d="M75.1475 40.0569C75.6187 39.7429 76.0899 39.4289 76.7182 39.5859C77.3465 39.5859 77.8177 39.8999 78.1318 40.3709C78.2889 40.6849 78.2888 40.8419 78.4459 41.156C78.603 42.569 77.8177 44.1391 76.5611 44.7672C76.404 44.7672 76.2469 44.9242 76.0899 44.9242C75.9328 44.9242 75.7757 44.9242 75.6187 44.7672C75.1475 44.4531 74.6763 44.1391 74.3621 43.6681" fill="#FD8F90"/>
<path d="M67.7655 49.4775C66.4643 49.4775 65.4095 48.4231 65.4095 47.1224C65.4095 45.8217 66.4643 44.7673 67.7655 44.7673C69.0667 44.7673 70.1216 45.8217 70.1216 47.1224C70.1216 48.4231 69.0667 49.4775 67.7655 49.4775Z" fill="#FD8F90"/>
<path d="M58.9695 37.5447C60.5402 37.3877 62.1109 37.2307 63.5245 38.1728C63.8387 38.3298 63.5246 38.6438 63.3675 38.4868C62.1109 37.7018 60.5402 37.8588 59.1266 38.0158C58.6553 38.0158 58.6553 37.5447 58.9695 37.5447Z" fill="#154678"/>
<path d="M56.9276 40.8419C57.3988 40.6849 57.87 40.6849 58.3412 40.6849C58.3412 39.1148 58.9695 37.0737 60.6972 36.9167C62.5821 36.7597 63.6815 38.8008 63.8386 40.3709C63.8386 40.5279 63.8386 40.5279 63.8386 40.6849C67.137 40.8419 70.5925 40.9989 73.891 41.1559C74.0481 41.1559 74.0481 41.3129 73.891 41.3129C70.5925 41.1559 67.137 40.9989 63.8386 40.8419C63.8386 42.412 63.2103 44.2961 61.4826 44.4531C59.5978 44.6101 58.4983 42.569 58.3412 40.9989V40.8419C57.87 40.8419 57.3988 40.8419 56.9276 40.8419C56.7705 40.8419 56.9276 40.9989 56.9276 40.8419ZM60.8543 44.2961C63.0533 44.7671 63.8386 42.098 63.6815 40.5279C63.5245 38.9578 62.5821 37.2307 60.8543 37.2307C58.9695 37.2307 58.4983 39.2718 58.4983 40.8419C58.4983 40.9989 58.4983 40.9989 58.4983 41.1559C58.8124 42.255 59.4407 43.9821 60.8543 44.2961Z" fill="#154678"/>
<path d="M88.6555 34.2477C88.1843 35.1897 87.8702 36.2888 88.6555 37.0738C89.2838 37.7018 90.2262 37.7018 91.1686 37.8589C92.4252 38.0159 93.8388 38.6439 94.4671 39.743C94.7812 40.371 94.7812 40.999 94.7812 41.6271C94.7812 41.9411 94.6242 42.4121 94.4671 42.7261C94.31 43.1972 93.9959 43.6682 94.1529 44.2962C94.4671 45.0813 95.7237 45.3953 96.3519 45.7093C96.9802 46.0233 97.4514 46.4944 97.7655 46.9654C98.708 48.0644 99.1792 49.6345 98.708 51.0476C98.708 51.2046 98.3938 51.0476 98.5509 51.0476C99.0221 49.4775 98.3938 47.9074 97.2943 46.8084C96.666 46.1803 95.8807 45.8663 95.0954 45.5523C94.4671 45.2383 93.8388 44.9243 93.6817 44.2962C93.5247 43.5112 94.1529 42.8831 94.31 42.2551C94.6241 41.3131 94.6242 40.371 93.9959 39.586C93.5247 38.9579 92.7393 38.4869 91.7969 38.3299C91.0116 38.1729 90.2262 38.1729 89.4409 37.8589C87.556 37.3878 87.7131 35.5037 88.4985 34.2477C88.4985 34.0907 88.6555 34.0907 88.6555 34.2477Z" fill="#265B91"/>
<path d="M75.6189 21.2159C74.6765 19.4888 72.7917 18.3897 70.9069 18.5467C69.9644 18.7037 69.022 19.0178 68.2367 19.6458C67.6084 20.1168 66.9801 20.5878 66.1948 20.7449C64.7812 20.7449 63.9958 19.1748 63.5246 17.9187C63.0534 16.8196 62.5822 15.8776 61.4827 15.4065C60.5403 15.0925 59.5979 15.0925 58.6555 15.0925C56.9277 15.0925 55.0429 15.2495 53.6293 13.9935C53.4722 13.8365 53.6293 13.6795 53.7864 13.8365C55.357 15.2495 57.3989 14.9355 59.1267 14.9355C59.912 14.9355 60.8545 14.9355 61.6398 15.2495C62.4251 15.5636 62.8964 16.1916 63.2105 16.8196C63.9958 18.2327 64.7812 21.0589 66.8231 20.2738C67.7655 19.9598 68.3937 19.1748 69.1791 18.7037C69.8074 18.3897 70.5927 18.2327 71.378 18.2327C73.1058 18.2327 74.6765 19.3318 75.6189 21.0589C75.9331 21.2159 75.776 21.3729 75.6189 21.2159Z" fill="#265B91"/>
<path d="M83.1581 50.7336C80.9592 50.2626 79.0743 48.8495 77.9749 46.9654C77.8178 46.8083 77.8178 46.4943 77.8178 46.3373C77.8178 46.0233 78.132 45.7093 78.289 45.5523C79.2314 44.6102 79.8597 43.1971 79.8597 41.7841C79.8597 41.313 79.8597 40.842 79.5456 40.528C79.2314 39.9 78.4461 39.5859 77.6607 39.4289C76.4042 39.2719 74.9906 40.057 74.3623 41.156C74.2052 41.313 74.2052 41.627 73.8911 41.7841C73.734 41.9411 73.4199 41.9411 73.1057 41.9411C68.5507 42.2551 63.8387 40.528 60.3831 37.3878C59.2837 36.4458 58.3412 35.1897 58.0271 33.7766C57.713 32.3635 58.3413 30.7934 59.1266 29.5374C60.5402 27.0252 62.7392 24.9841 65.2523 23.571C67.7654 22.1579 70.5926 21.2159 73.4199 20.7449C75.1476 20.4308 77.0325 20.2738 78.9173 20.7449C80.1738 21.0589 81.4304 21.6869 82.5298 22.629C86.6136 25.7691 88.4985 31.1075 88.3414 36.1317C88.1843 40.999 85.6712 46.3373 83.1581 50.7336Z" fill="#265B91"/>
<path d="M60.8543 36.9167C62.8962 38.4868 65.2522 39.4289 67.7653 40.0569C69.0219 40.3709 70.2784 40.5279 71.535 40.3709C73.1057 40.0569 74.3622 39.2718 75.9329 39.1148C77.3465 38.9578 78.7602 39.2718 79.8596 40.0569C80.9591 40.9989 81.5874 42.412 81.2733 43.8251C81.1162 44.4531 80.802 45.0812 80.4879 45.8662C80.3308 46.3372 80.1738 46.8083 80.3308 47.1223C80.4879 47.2793 80.6449 47.4363 80.802 47.4363C81.7444 48.0643 83.1581 47.7503 84.1005 47.1223C85.0429 46.4943 85.5141 45.3952 86.1424 44.6101C86.2995 44.2961 86.7707 43.6681 86.9277 43.3541C86.1424 45.7092 84.5717 48.8494 83.3151 50.8905C81.1162 50.4195 79.2314 49.0064 78.1319 47.1223C77.9748 46.9653 77.9748 46.6513 77.9748 46.4942C77.9748 46.1802 78.2889 45.8662 78.446 45.7092C79.3884 44.7671 80.0167 43.3541 80.0167 41.941C80.0167 41.47 80.0167 40.9989 79.7026 40.6849C79.3884 40.0569 78.6031 39.7429 77.8177 39.5859C76.5612 39.4288 75.1475 40.2139 74.5193 41.313C74.3622 41.47 74.3622 41.784 74.0481 41.941C73.891 42.098 73.5769 42.098 73.2627 42.098C68.7077 42.412 63.9957 40.6849 60.5402 37.5447C59.7548 36.7597 58.9695 35.8176 58.4983 34.7186C59.1266 35.5036 59.9119 36.2887 60.8543 36.9167Z" fill="#154678"/>
<g opacity="0.42">
<g opacity="0.42">
<path opacity="0.42" d="M84.7287 36.6027C84.4145 33.9335 83.158 31.5784 81.1161 29.8513C81.1161 29.8513 81.1161 29.6942 81.2732 29.6942C83.158 31.5784 84.4145 33.9335 84.7287 36.6027C84.7287 36.7597 84.8857 36.7597 84.7287 36.6027Z" fill="#0097CF"/>
</g>
<g opacity="0.42">
<path opacity="0.42" d="M80.4878 34.7185C80.1737 33.6194 79.2313 32.8344 78.2889 32.2064V32.0493C79.3883 32.6774 80.3307 33.4624 80.4878 34.7185C80.4878 34.7185 80.6449 34.7185 80.4878 34.7185Z" fill="#0097CF"/>
</g>
<g opacity="0.42">
<path opacity="0.42" d="M76.4042 33.6195C75.933 32.9915 75.3047 32.6775 74.6765 32.5205C74.5194 32.5205 74.6765 32.3634 74.6765 32.3634C75.3047 32.5204 75.933 32.8345 76.4042 33.6195C76.4042 33.6195 76.5613 33.4625 76.4042 33.6195Z" fill="#0097CF"/>
</g>
<g opacity="0.42">
<path opacity="0.42" d="M73.7338 35.1896C73.1055 34.7186 72.3202 34.2476 71.3778 34.0906C71.2207 34.0906 71.3778 33.9335 71.3778 33.9335C72.3202 34.0905 73.1055 34.4046 73.7338 35.1896C73.7338 35.1896 73.8908 35.0326 73.7338 35.1896Z" fill="#0097CF"/>
</g>
<g opacity="0.42">
<path opacity="0.42" d="M69.179 32.8345C68.2365 32.5205 67.2941 32.0495 66.3517 31.5784C66.1946 31.5784 66.3517 31.4214 66.3517 31.4214C67.2941 31.8925 68.2365 32.3635 69.179 32.8345C69.179 32.8345 69.336 32.6775 69.179 32.8345Z" fill="#0097CF"/>
</g>
<g opacity="0.42">
<path opacity="0.42" d="M67.9224 35.8177C67.1371 35.1896 66.1946 34.7186 65.4093 34.0906V33.9335C66.1946 34.5616 67.1371 35.0326 67.9224 35.8177C67.9224 35.8177 68.0794 35.6606 67.9224 35.8177Z" fill="#0097CF"/>
</g>
<g opacity="0.42">
<path opacity="0.42" d="M63.2104 34.4045C62.7391 33.7765 62.1108 33.1485 61.3255 32.6774V32.5204C62.2679 32.9914 62.8962 33.6195 63.2104 34.4045C63.3674 34.4045 63.5245 34.4045 63.2104 34.4045Z" fill="#0097CF"/>
</g>
<g opacity="0.42">
<path opacity="0.42" d="M67.4513 25.9261C68.0796 26.3971 68.7079 26.7112 69.3362 27.1822V27.3392C68.7079 26.7111 68.0796 26.3971 67.4513 25.9261C67.2942 25.7691 67.2942 25.9261 67.4513 25.9261Z" fill="#0097CF"/>
</g>
<g opacity="0.42">
<path opacity="0.42" d="M72.1633 24.67C72.7916 24.984 73.4199 25.298 74.0482 25.769V25.9261C73.4199 25.298 72.7916 24.984 72.1633 24.67C72.1633 24.513 72.0062 24.67 72.1633 24.67Z" fill="#0097CF"/>
</g>
<g opacity="0.42">
<path opacity="0.42" d="M73.1058 28.4382C73.577 28.5952 74.0482 28.7522 74.3623 29.0663V29.2233C73.8911 28.9092 73.4199 28.7522 73.1058 28.4382C72.9487 28.2812 72.9487 28.4382 73.1058 28.4382Z" fill="#0097CF"/>
</g>
<g opacity="0.42">
<path opacity="0.42" d="M80.8022 37.7018C81.2734 38.3298 81.5876 38.9578 81.7446 39.7429C81.7446 39.8999 81.5876 39.8999 81.5876 39.7429C81.4305 38.9578 81.1163 38.3298 80.8022 37.7018C80.8022 37.7018 80.6451 37.7018 80.8022 37.7018Z" fill="#0097CF"/>
</g>
<g opacity="0.42">
<path opacity="0.42" d="M84.5719 40.5279C84.886 41.1559 85.0431 41.6269 85.0431 42.2549C85.0431 42.412 84.886 42.412 84.886 42.2549C84.886 41.6269 84.729 41.1559 84.5719 40.5279C84.5719 40.3708 84.4148 40.5279 84.5719 40.5279Z" fill="#0097CF"/>
</g>
<g opacity="0.42">
<path opacity="0.42" d="M86.2995 38.1727C86.4565 38.4867 86.4565 38.9578 86.4565 39.2718C86.4565 39.4288 86.2995 39.2718 86.2995 39.2718C86.4565 38.9578 86.2995 38.6438 86.2995 38.1727C86.2995 38.1727 86.1424 38.1727 86.2995 38.1727Z" fill="#0097CF"/>
</g>
<g opacity="0.42">
<path opacity="0.42" d="M79.8598 26.3971C80.331 26.7111 80.6451 27.0251 81.1163 27.3391C81.1163 27.3391 81.1163 27.4961 80.9593 27.4961C80.488 27.0251 80.1739 26.7111 79.8598 26.3971C79.7027 26.24 79.7027 26.3971 79.8598 26.3971Z" fill="#0097CF"/>
</g>
<g opacity="0.42">
<path opacity="0.42" d="M78.4462 36.6027C78.7603 36.2887 77.1896 35.8176 77.0325 35.6606C76.8755 35.6606 77.0325 35.5036 77.0325 35.5036C77.6608 35.6606 78.132 35.9746 78.6033 36.2887C78.6033 36.2887 78.6033 36.2887 78.6033 36.4457C78.7603 36.6027 78.7603 36.6027 78.4462 36.6027C78.4462 36.6027 78.6032 36.7597 78.4462 36.6027Z" fill="#0097CF"/>
</g>
<g opacity="0.42">
<path opacity="0.42" d="M73.2628 37.5448C72.9487 37.2307 72.6346 37.0737 72.3204 37.0737C72.1634 37.0737 72.1634 36.9167 72.3204 36.9167C72.7916 36.9167 73.1058 37.0737 73.2628 37.5448C73.4199 37.5448 73.4199 37.3878 73.2628 37.5448Z" fill="#0097CF"/>
</g>
</g>
<path d="M77.9749 26.8681C76.2471 26.5541 74.6764 25.1411 73.8911 23.571C72.9487 22.0009 72.6346 20.1168 72.4775 18.3897C72.3204 16.8196 72.1633 15.0925 73.1057 13.6794C73.8911 12.2663 75.6189 11.6383 77.1895 11.4813C78.7602 11.3243 80.488 11.6383 82.0587 12.1093C81.7446 8.65511 83.3152 5.20092 85.8283 2.84578C87.5561 1.27569 89.598 0.176635 91.954 0.0196261C94.153 -0.137383 96.6661 0.647662 98.0797 2.37476C99.4933 4.10186 99.9645 6.77101 98.708 8.81213C101.221 7.39905 104.677 8.18409 106.718 10.2252C108.76 12.2663 109.546 15.4065 109.075 18.2327C108.76 20.7448 107.347 23.0999 104.991 24.199C103.891 24.67 102.635 24.827 101.535 24.984C103.42 28.9093 101.849 34.0906 98.3938 36.6027C97.1373 37.3878 95.5666 38.0158 94.153 37.7018C92.5823 37.3878 91.3257 36.1317 90.2262 34.8756C89.4409 36.6027 86.9278 37.0737 85.2001 36.1317C83.4723 35.1896 82.5299 33.3055 81.5875 31.7354" fill="#265B91"/>
<path d="M96.1948 14.7785C95.2524 15.8775 93.0534 16.5056 91.4828 16.5056C89.1267 16.5056 86.7707 15.2495 85.2 13.6794C85.6712 15.0925 86.7707 16.1915 88.0272 17.1336C88.9696 17.7616 90.0691 18.3897 91.3257 18.5467C92.5822 18.7037 93.8388 18.3897 94.7812 17.6046C95.4095 16.9766 95.8807 15.8775 96.1948 14.7785Z" fill="#154678"/>
<path d="M84.5716 32.2065C85.514 32.2065 86.4564 31.7354 87.3988 31.7354C89.2837 31.7354 90.5402 33.1485 92.268 33.7766C93.9957 34.4046 95.8805 34.0906 97.4512 33.1485C98.8648 32.2065 99.8073 30.6364 99.9643 28.9093C100.121 27.4962 99.8073 26.0831 100.278 24.8271C100.278 24.67 100.436 24.513 100.593 24.356C100.75 24.199 101.064 24.199 101.221 24.199C102.634 24.199 104.048 23.571 105.148 22.9429C106.247 22.3149 107.032 21.5299 107.975 20.7448C107.347 22.1579 106.247 23.414 104.676 24.199C103.577 24.67 102.32 24.827 101.221 24.984C103.106 28.9093 101.535 34.0906 98.0795 36.6027C96.8229 37.3878 95.2523 38.0158 93.8387 37.7018C92.268 37.3878 91.0114 36.1317 89.9119 34.8756C89.1266 36.6027 86.6135 37.0737 84.8857 36.1317C83.158 35.1896 82.2156 33.3055 81.2732 31.7354L80.6449 30.9504C80.802 31.1074 80.8019 31.1074 80.959 31.2644C82.0585 31.5784 83.3151 32.3635 84.5716 32.2065Z" fill="#154678"/>
<path d="M72.9488 13.6794C73.7341 12.2663 75.4619 11.6383 77.0326 11.4813C78.6033 11.3243 80.331 11.6383 81.9017 12.1093C81.5876 8.65512 83.1583 5.20092 85.6714 2.84578C87.3991 1.27569 89.441 0.176635 91.7971 0.0196261C93.996 -0.137383 96.5092 0.647662 97.9228 2.37476C99.3364 3.94485 99.6505 6.45699 98.7081 8.3411C98.8652 6.45699 98.394 5.04391 97.1374 3.78783C95.5668 2.06073 93.2107 1.2757 91.0117 1.58972C88.8127 1.90373 86.7709 3.1598 85.3573 5.04391C83.9436 6.77101 83.0012 9.12614 82.6871 11.4813C82.6871 11.7953 82.53 12.1093 82.3729 12.2663C82.2158 12.4233 82.0588 12.4233 81.7447 12.4233C80.6452 12.5803 79.7028 12.5803 78.6033 12.8944C76.5614 13.3654 74.8336 14.9355 74.2054 16.9766C73.42 19.0177 73.8912 22.0009 74.9907 23.728C75.4619 24.513 76.0902 25.4551 76.5614 26.3971C75.4619 25.7691 74.5195 24.8271 73.8912 23.571C72.9488 22.0009 72.6347 20.1168 72.4776 18.3897C72.1635 16.6626 72.1634 14.9355 72.9488 13.6794Z" fill="#154678"/>
<g opacity="0.54">
<g opacity="0.54">
<path opacity="0.54" d="M97.7654 32.3635C97.1371 32.9915 96.5088 33.3056 95.7235 33.4626C95.7235 33.4626 95.5664 33.3056 95.7235 33.3056C96.5088 33.1486 97.1371 32.8345 97.7654 32.3635C97.9225 32.2065 97.7654 32.2065 97.7654 32.3635Z" fill="#0097CF"/>
</g>
<g opacity="0.54">
<path opacity="0.54" d="M95.5665 30.4795C95.2524 31.2645 93.9958 31.4215 93.2105 31.4215V31.2645C93.8388 31.2645 95.0953 31.1075 95.5665 30.4795C95.5665 30.3224 95.4095 30.3224 95.5665 30.4795Z" fill="#0097CF"/>
</g>
<g opacity="0.54">
<path opacity="0.54" d="M93.3674 32.9915C92.5821 33.3056 91.7968 33.4626 91.0114 33.4626V33.3056C91.7968 33.4626 92.5821 33.3056 93.3674 32.9915C93.3674 32.9915 93.3674 32.8345 93.3674 32.9915Z" fill="#0097CF"/>
</g>
<g opacity="0.54">
<path opacity="0.54" d="M89.912 30.4795C89.4408 31.1075 88.8125 31.5785 88.0272 31.7355C88.0272 31.7355 87.8701 31.7355 88.0272 31.5785C88.8125 31.4215 89.4408 30.9505 89.912 30.4795C90.0691 30.3224 89.912 30.3224 89.912 30.4795Z" fill="#0097CF"/>
</g>
<g opacity="0.54">
<path opacity="0.54" d="M91.1686 27.1823C90.6974 27.8103 90.2262 28.1243 89.7549 28.5954C89.7549 28.5954 89.5979 28.5954 89.7549 28.4383C90.2262 27.9673 90.6974 27.6533 91.1686 27.1823C91.1686 27.0253 91.1686 27.0253 91.1686 27.1823Z" fill="#0097CF"/>
</g>
<g opacity="0.54">
<path opacity="0.54" d="M97.4513 25.6122C97.6084 26.2402 96.666 26.8682 96.1948 27.1823C96.1948 27.1823 96.0377 27.1823 96.1948 27.0252C96.5089 26.8682 97.4513 26.2402 97.4513 25.6122C97.4513 25.6122 97.2942 25.6122 97.4513 25.6122Z" fill="#0097CF"/>
</g>
<g opacity="0.54">
<path opacity="0.54" d="M99.3362 27.3393C99.1791 27.9673 98.865 28.4383 98.5509 28.7524C98.5509 28.7524 98.3938 28.7524 98.5509 28.7524C98.865 28.2813 99.1791 27.8103 99.3362 27.3393C99.3362 27.3393 99.1791 27.1822 99.3362 27.3393Z" fill="#0097CF"/>
</g>
<g opacity="0.54">
<path opacity="0.54" d="M105.933 16.5056C106.09 16.6626 106.09 16.8196 106.09 17.1336C105.933 17.6047 105.776 18.0757 105.619 18.5467H105.462C105.619 18.0757 106.247 16.9766 105.933 16.5056C105.933 16.3486 105.776 16.5056 105.933 16.5056Z" fill="#0097CF"/>
</g>
<g opacity="0.54">
<path opacity="0.54" d="M104.048 16.8197C103.891 17.4477 103.734 17.9187 103.577 18.5468H103.42C103.577 17.9187 103.734 17.4477 104.048 16.8197C104.048 16.8197 103.891 16.8197 104.048 16.8197Z" fill="#0097CF"/>
</g>
<g opacity="0.54">
<path opacity="0.54" d="M101.064 16.6626C101.064 17.2906 100.75 17.9187 100.436 18.3897H100.279C100.593 17.7617 100.907 17.2906 101.064 16.6626C101.064 16.5056 100.907 16.5056 101.064 16.6626Z" fill="#0097CF"/>
</g>
<g opacity="0.54">
<path opacity="0.54" d="M103.891 20.9019C103.577 21.373 103.42 21.687 102.949 22.001C102.949 22.001 102.792 22.001 102.949 22.001C103.263 21.53 103.577 21.216 103.891 20.9019C103.891 20.7449 103.891 20.7449 103.891 20.9019Z" fill="#0097CF"/>
</g>
<g opacity="0.54">
<path opacity="0.54" d="M100.121 21.2159C99.9644 21.5299 99.6502 21.8439 99.4931 22.1579C99.4931 22.1579 99.3361 22.1579 99.4931 22.1579C99.6502 21.8439 99.8073 21.5299 100.121 21.2159Z" fill="#0097CF"/>
</g>
<g opacity="0.54">
<path opacity="0.54" d="M103.577 11.3244C103.734 11.7954 103.734 12.1094 103.577 12.5804H103.42C103.577 12.1094 103.577 11.7954 103.577 11.3244C103.42 11.3244 103.42 11.3244 103.577 11.3244Z" fill="#0097CF"/>
</g>
<g opacity="0.54">
<path opacity="0.54" d="M92.8965 6.14306C92.4253 6.61409 92.1111 6.92811 91.6399 7.24213C91.6399 7.24213 91.4828 7.24214 91.6399 7.08513C92.1111 6.77111 92.4253 6.45708 92.8965 6.14306C93.0536 5.98605 92.8965 5.98605 92.8965 6.14306Z" fill="#0097CF"/>
</g>
<g opacity="0.54">
<path opacity="0.54" d="M90.6974 2.84589C90.5403 3.15991 90.2262 3.47392 89.755 3.63093C89.755 3.63093 89.5979 3.63094 89.755 3.47393C90.0691 3.47393 90.3832 3.15991 90.6974 2.84589C90.6974 2.84589 90.5403 2.84589 90.6974 2.84589Z" fill="#0097CF"/>
</g>
<g opacity="0.54">
<path opacity="0.54" d="M86.9279 3.31696C86.6137 3.78798 86.2996 4.10199 86.1426 4.57301H85.9855C86.2996 4.10199 86.6137 3.78798 86.9279 3.31696Z" fill="#0097CF"/>
</g>
<g opacity="0.54">
<path opacity="0.54" d="M89.4407 6.77106C89.1266 7.24209 88.6554 7.71312 88.1842 8.18415C88.1842 8.18415 88.0271 8.18415 88.1842 8.18415C88.6554 7.71312 88.9695 7.24209 89.4407 6.77106C89.5978 6.77106 89.4407 6.77106 89.4407 6.77106Z" fill="#0097CF"/>
</g>
<g opacity="0.54">
<path opacity="0.54" d="M85.9852 7.71312C85.8282 8.18415 85.6711 8.49818 85.514 8.96921H85.357C85.514 8.49818 85.6711 8.02714 85.9852 7.71312C85.9852 7.55611 85.8282 7.55611 85.9852 7.71312Z" fill="#0097CF"/>
</g>
<g opacity="0.54">
<path opacity="0.54" d="M81.9017 15.2495C81.4305 15.7205 80.9593 16.0345 80.4881 16.5056C80.4881 16.5056 80.331 16.5056 80.4881 16.5056C80.8022 15.8775 81.2734 15.5635 81.9017 15.2495C81.9017 15.0925 81.9017 15.0925 81.9017 15.2495Z" fill="#0097CF"/>
</g>
<g opacity="0.54">
<path opacity="0.54" d="M78.7603 13.6796C78.4461 14.3076 77.9749 14.7786 77.5037 15.4067C77.5037 15.4067 77.3467 15.4067 77.5037 15.4067C77.9749 14.7786 78.289 14.3076 78.7603 13.6796C78.7603 13.6796 78.7603 13.5225 78.7603 13.6796Z" fill="#0097CF"/>
</g>
<g opacity="0.54">
<path opacity="0.54" d="M75.1477 13.9934C74.9906 14.4645 74.8335 15.0925 74.6765 15.5635H74.5194C74.8335 15.0925 74.9906 14.4645 75.1477 13.9934Z" fill="#0097CF"/>
</g>
<g opacity="0.54">
<path opacity="0.54" d="M78.9174 17.1337C79.0744 17.4477 79.0744 17.6047 78.9174 17.9187C78.7603 18.3898 78.6032 18.8608 78.2891 19.3318H78.132C78.2891 19.0178 78.4461 18.7038 78.6032 18.5468C78.7603 18.0757 79.0744 17.4477 78.9174 17.1337C78.9174 16.9767 78.7603 17.1337 78.9174 17.1337Z" fill="#0097CF"/>
</g>
<g opacity="0.54">
<path opacity="0.54" d="M75.462 18.2328C75.462 18.8608 75.462 19.4888 75.619 20.1168H75.462C75.3049 19.4888 75.3049 18.8608 75.462 18.2328C75.462 18.2328 75.3049 18.2328 75.462 18.2328Z" fill="#0097CF"/>
</g>
<g opacity="0.54">
<path opacity="0.54" d="M78.7603 21.53C78.6032 22.1581 78.289 22.7861 78.132 23.5711H77.9749C78.132 22.7861 78.4461 22.1581 78.7603 21.53C78.7603 21.53 78.6032 21.373 78.7603 21.53Z" fill="#0097CF"/>
</g>
<g opacity="0.54">
<path opacity="0.54" d="M87.0847 28.7524C86.7706 29.0664 86.4565 29.2234 85.9852 29.2234C85.9852 29.2234 85.8282 29.0664 85.9852 29.0664C86.2994 29.0664 86.7706 28.9094 87.0847 28.7524C87.0847 28.7524 87.0847 28.5954 87.0847 28.7524Z" fill="#0097CF"/>
</g>
<g opacity="0.54">
<path opacity="0.54" d="M95.4094 24.3561C95.0953 24.8271 94.7811 25.1411 94.3099 25.2982C94.3099 25.2982 94.1529 25.2982 94.3099 25.1412C94.6241 24.9842 95.0953 24.6701 95.4094 24.3561C95.4094 24.1991 95.4094 24.1991 95.4094 24.3561Z" fill="#0097CF"/>
</g>
</g>
</svg>
