<svg width="132" height="238" viewBox="0 0 132 238" fill="none" xmlns="http://www.w3.org/2000/svg">
<path d="M112.747 113.177C112.747 113.177 112.032 120.075 111.266 121.378C110.5 122.681 107.18 126.846 105.776 127.663C104.371 128.481 106.644 122.17 106.338 120.944C106.057 119.717 105.188 123.192 104.55 123.269C103.937 123.345 104.09 120.228 104.065 119.104C104.039 117.98 107.078 115.17 108.151 112.742C109.223 110.315 112.747 113.177 112.747 113.177Z" fill="#FEA1A1"/>
<path d="M28.0912 49.6105L26.5078 46.6213C26.5078 46.6213 27.2995 41.3071 20.6342 37.9346C20.6342 37.9346 18.2082 36.9382 16.8292 38.931C15.5523 40.7705 19.2552 40.4384 19.0509 43.5554C18.8466 46.6979 20.3278 48.5375 22.4219 49.5594L24.1329 51.5523L28.0912 49.6105Z" fill="#FEA1A1"/>
<path d="M91.1428 42.4568C91.1428 42.4568 85.4224 70.5864 53.8838 79.7841C44.0519 82.6456 21.6812 50.2238 21.6812 50.2238C21.6812 50.2238 22.4728 47.2345 27.4015 47.9243C27.4015 47.9243 49.1593 62.334 51.9174 63.9181C54.3434 65.2977 70.3298 46.0592 77.6335 42.9423C84.9116 39.8508 91.1428 42.4568 91.1428 42.4568Z" fill="#E6AE32"/>
<path d="M7.26182 36.9253L6.36633 42.7587L35.646 47.2576L36.5415 41.4242L7.26182 36.9253Z" fill="#02A3A3"/>
<path d="M0 38.8037L6.3588 42.7383L7.25261 36.9386L0 38.8037Z" fill="#FEA1A1"/>
<path d="M39.634 43.8876L39.3531 45.7271C39.1743 46.8513 38.1273 47.6433 36.9781 47.4645L35.6246 47.2601L36.5184 41.4349L37.9996 41.6648C39.0722 41.8181 39.7872 42.8145 39.634 43.8876Z" fill="#FEA1A1"/>
<path d="M128.759 219.282C128.759 219.282 132.666 222.859 131.9 225.389C131.134 227.918 127.61 229.604 127.125 232.721C126.64 235.813 124.75 237.524 123.013 237.524C121.302 237.524 114.816 237.524 114.816 237.524C114.816 237.524 113.564 235.353 116.603 234.688C119.668 234.024 120.817 230.396 120.613 226.998C120.434 223.626 120.894 219.103 120.894 219.103L127.38 217.596L128.759 219.282Z" fill="#104E89"/>
<path d="M80.8 228.506C80.8 228.506 81.4895 236.63 79.7785 237.473L57.8164 237.422C57.8164 237.422 57.8164 234.893 61.3406 234.331C64.8647 233.769 71.0703 231.699 72.1173 227.1C73.1644 222.502 80.8 228.506 80.8 228.506Z" fill="#104E89"/>
<path d="M62.2344 113.739C62.2344 113.739 63.3836 127.97 64.7626 145.113C66.6013 168.363 72.2321 187.832 69.0528 202.343C67.0467 211.5 64.7626 210.5 64.7626 210.5C64.7626 210.5 79.7474 217.507 87 216C87 216 88.308 207.376 90.1467 184.663C90.1722 184.28 90.1978 183.922 90.2233 183.539C91.9343 160.417 94.6157 111.746 94.6157 111.746L62.2344 113.739Z" fill="#307CC4"/>
<path d="M62.2344 113.739C62.2344 113.739 63.3836 127.97 64.7626 145.113L90.1467 184.663C90.1722 184.28 90.1978 183.922 90.2233 183.539C91.9343 160.417 94.6157 111.746 94.6157 111.746L62.2344 113.739Z" fill="#307CC4"/>
<path d="M67.5206 115.425C67.5206 115.425 88.4102 167.009 102.149 191.255C111.355 207.5 114.305 210.5 114.305 210.5C114.305 210.5 129.285 203.621 130 201.5C130 201.5 123.499 170.254 114.305 158.859C109.095 152.42 102.992 133.08 102.711 126.309C102.43 119.538 100.847 106.151 100.847 106.151L67.5206 115.425Z" fill="#307CC4"/>
<path d="M95.0246 35.9418C95.0246 35.9418 80.9024 42.7634 72.756 40.2341C72.756 40.2341 74.7734 37.7047 78.2721 35.8141C77.9911 34.1789 77.7613 32.7482 77.6336 31.5474C77.3016 28.7625 77.3016 27.204 77.3016 27.204L82.7411 22.9117L87.8996 18.7983C87.491 30.3465 95.0246 35.9418 95.0246 35.9418Z" fill="#FEA1A1"/>
<path d="M102.456 108.757C102.481 109.625 100.643 110.596 99.8255 110.98C93.7731 113.637 88.1294 115.476 81.745 116.115C74.186 116.881 65.2735 115.195 62.1834 115.246C61.877 115.246 61.5961 115.119 61.3407 114.914C61.1109 114.761 60.9576 105.665 61.1109 94.1938C61.1109 93.7339 61.1109 93.274 61.1364 92.8142V92.6609C61.1875 88.1898 61.3662 83.4887 61.5705 78.7877C62.0047 68.4659 62.8219 58.5272 64.2009 53.0342C65.8608 46.5447 69.6148 42.2525 73.0368 39.1355L75.8459 36.6572C78.655 37.2193 81.6429 37.066 84.6308 35.6097C87.8995 34.0256 91.3982 32.3394 91.96 32.7737C96.2247 35.8907 99.1104 42.8912 100.643 51.8589C101.511 57.0198 101.971 62.7939 101.92 68.8491C101.92 71.0719 101.868 73.3457 101.741 75.6196C101 87.8321 101.741 98.4605 102.175 104.618C102.328 106.381 102.43 107.786 102.456 108.757Z" fill="#FDC445"/>
<path d="M102.201 108.195C52.7091 108.093 93.0837 54.4649 93.0837 54.4649L101.102 51.8589C101.741 57.3775 102.047 63.5348 102.022 69.9988C102.022 72.3748 101.971 74.802 101.894 77.2292C101.358 90.2848 101.894 101.629 102.201 108.195Z" fill="#E6AE32"/>
<path d="M88.0017 23.2183C88.0017 23.2183 84.4264 29.7334 77.6335 31.5473C77.3015 28.7625 77.3015 27.204 77.3015 27.204L82.741 22.9117L88.0017 23.2183Z" fill="#FEA1A1"/>
<path d="M74.799 26.9996C74.799 26.9996 88.2827 29.1968 89.5596 20.9189C90.8364 12.6155 93.4157 7.32679 84.8607 5.5639C76.3057 3.80101 74.135 6.71361 73.0369 9.39627C71.9133 12.0534 71.3259 26.2076 74.799 26.9996Z" fill="#FEA1A1"/>
<path d="M94.4372 4.56746C94.5649 4.43972 94.8458 4.31197 95.4587 4.28642C95.4587 4.28642 94.948 3.97983 94.284 3.95429C94.1563 3.08561 93.6966 1.52712 92.1899 1.16943C92.1899 1.16943 93.0071 1.60377 93.1093 2.52353C91.3727 0.735095 87.6443 -0.567911 77.3017 0.249661C63.6902 1.32272 68.1848 10.035 69.9469 11.0825C71.709 12.13 76.1525 9.2685 79.4213 9.52399C82.7156 9.77949 83.3285 14.5316 84.4521 15.1959C85.5758 15.8346 85.1161 14.6849 86.6483 14.0206C88.155 13.3308 88.3083 15.8346 87.8741 17.4698C87.44 19.1049 89.5085 21.251 89.5085 21.251C89.5085 21.251 89.5085 21.251 91.6026 19.0027C93.6966 16.7544 95.663 7.19902 94.7181 5.15509C94.616 4.9507 94.5394 4.74631 94.4372 4.56746Z" fill="#02A3A3"/>
<path d="M91.9855 32.7227C91.9855 32.7227 100.515 36.7594 104.601 42.9679C110.934 52.5999 118.289 87.7299 118.442 90.9747C118.57 94.2194 113.079 117.188 113.079 117.188C113.079 117.188 107.487 116.83 106.057 113.994C106.057 113.994 107.18 90.4126 106.465 88.8796C105.75 87.3722 83.2007 57.2243 85.7289 50.8114C88.2826 44.3986 91.9855 32.7227 91.9855 32.7227Z" fill="#FDC445"/>
<path d="M26.4823 46.468C26.4823 46.468 26.942 44.6285 25.6651 43.8109C24.3883 42.9933 23.2135 40.745 22.6773 41.0516C21.5792 41.6903 23.2902 43.6321 22.9582 46.0848C22.8816 46.9279 24.8735 49.1762 26.4823 46.468Z" fill="#FEA1A1"/>
</svg>
