<svg width="16" height="16" viewBox="0 0 16 16" fill="none" xmlns="http://www.w3.org/2000/svg">
<path d="M12.2457 10.411H5.27096C5.15845 10.411 5.04704 10.3889 4.94309 10.3461C4.83914 10.3032 4.74469 10.2404 4.66513 10.1613C4.58557 10.0821 4.52247 9.98816 4.47942 9.88474C4.43637 9.78132 4.41421 9.67048 4.41422 9.55854V9.53776C4.41421 9.42583 4.43637 9.31499 4.47942 9.21157C4.52247 9.10816 4.58558 9.01419 4.66514 8.93504C4.74469 8.85589 4.83914 8.79311 4.94309 8.75028C5.04704 8.70744 5.15845 8.6854 5.27096 8.68541H11.0465C11.2793 8.68532 11.5098 8.63914 11.7245 8.54955C11.9392 8.45996 12.1339 8.32875 12.2971 8.16358C12.4603 7.99841 12.5889 7.80257 12.6752 7.58748C12.7616 7.37239 12.8041 7.14234 12.8003 6.91074C12.7842 5.95153 11.968 5.19544 11.0038 5.19544H7.48151C7.36869 5.19546 7.25698 5.17331 7.15278 5.13026C7.04859 5.08721 6.95397 5.0241 6.87435 4.94457C6.79474 4.86504 6.7317 4.77064 6.68886 4.66681C6.64602 4.56297 6.62421 4.45173 6.6247 4.33949C6.62981 4.11088 6.7253 3.89349 6.89045 3.73446C7.05561 3.57544 7.27712 3.48759 7.50695 3.48997H12.0263C13.0096 3.48997 13.8378 2.68949 13.8195 1.71148C13.8107 1.25458 13.622 0.819361 13.2941 0.499338C12.9662 0.179314 12.5252 2.64794e-05 12.0659 1.43757e-09L3.74659 1.43757e-09C3.51722 -9.28051e-06 3.2901 0.0449296 3.07819 0.132251C2.86628 0.219572 2.67373 0.347564 2.51154 0.50892C2.34936 0.670277 2.2207 0.861836 2.13293 1.07266C2.04516 1.28348 1.99999 1.50944 2 1.73763V12.1633C2.00002 12.6241 2.18404 13.0661 2.51158 13.392C2.83913 13.7178 3.28337 13.9009 3.74659 13.9009H12.2062C13.1904 13.9009 14.0188 13.0996 13.9993 12.1207C13.9901 11.6641 13.8013 11.2292 13.4734 10.9095C13.1455 10.5899 12.7047 10.4109 12.2457 10.411Z" fill="#72E58A"/>
<path d="M7.48166 5.19528C6.76178 5.19523 6.04895 5.33626 5.38386 5.61031C4.71878 5.88436 4.11446 6.28607 3.60544 6.79249C3.09641 7.2989 2.69263 7.90012 2.41717 8.56179C2.14171 9.22347 1.99995 9.93265 2 10.6488L2 8.94343C2.00016 7.50479 2.5717 6.1245 3.59014 5.10319C4.60858 4.08189 5.9914 3.50232 7.4374 3.49072C7.21415 3.50217 7.00423 3.59993 6.85239 3.76315C6.70055 3.92636 6.6188 4.14214 6.62458 4.36446C6.63035 4.58678 6.72318 4.79807 6.88329 4.95327C7.0434 5.10847 7.25811 5.19531 7.48166 5.19528Z" fill="#489B5A"/>
<path d="M13.9993 12.1208C14.0188 13.0997 13.1904 13.901 12.2062 13.901H5.50852C5.14808 13.9009 4.80237 14.0433 4.54742 14.2968L3.01033 15.826C2.9276 15.9084 2.82216 15.9645 2.70735 15.9873C2.59254 16.0101 2.47352 15.9984 2.36536 15.9539C2.25719 15.9093 2.16474 15.8339 2.09971 15.737C2.03467 15.6402 1.99997 15.5263 2 15.4099V10.6487C1.99997 9.93256 2.14174 9.22341 2.4172 8.56176C2.69266 7.90011 3.09642 7.29892 3.60544 6.79252C4.11445 6.28612 4.71874 5.88442 5.3838 5.61037C6.04886 5.33632 6.76166 5.19528 7.48151 5.19531H11.0041C11.9683 5.19531 12.7845 5.95154 12.8006 6.91061C12.8044 7.14221 12.7619 7.37226 12.6755 7.58735C12.5891 7.80244 12.4606 7.99828 12.2974 8.16345C12.1341 8.32862 11.9395 8.45982 11.7248 8.54942C11.5101 8.63901 11.2796 8.68519 11.0468 8.68528H5.99735C5.88483 8.68527 5.77342 8.70731 5.66946 8.75014C5.56551 8.79297 5.47106 8.85575 5.39149 8.9349C5.31193 9.01405 5.24882 9.10802 5.20576 9.21143C5.1627 9.31485 5.14053 9.42569 5.14053 9.53763V9.55841C5.14053 9.78448 5.23081 10.0013 5.39149 10.1612C5.55217 10.321 5.77011 10.4108 5.99735 10.4108H12.2457C12.7048 10.4107 13.1456 10.5898 13.4735 10.9095C13.8014 11.2292 13.9902 11.6641 13.9993 12.1208Z" fill="#E3796A"/>
<path d="M12.8006 6.94029C12.8005 7.40303 12.6158 7.84679 12.287 8.17411C11.9582 8.50143 11.5123 8.68553 11.0471 8.68598H10.9199C10.6293 8.24442 10.2328 7.88175 9.76615 7.63064C9.29952 7.37952 8.77742 7.24786 8.24689 7.24751H6.52353C5.84734 7.24757 5.19885 7.51484 4.72072 7.99054C4.24258 8.46624 3.97395 9.11141 3.97391 9.78414C3.97391 9.78414 3.70126 6.82812 6.94445 6.82812H12.7941C12.7948 6.82814 12.7955 6.82843 12.7961 6.82894C12.7966 6.82945 12.797 6.83014 12.797 6.83088C12.7993 6.86693 12.8006 6.90368 12.8006 6.94029Z" fill="#8A4C43"/>
<path d="M14 12.1563C13.9999 12.6191 13.8151 13.063 13.4861 13.3902C13.1572 13.7175 12.7111 13.9014 12.2459 13.9015H7.07415L4.90601 11.7446C5.36154 12.1177 5.93346 12.3213 6.52351 12.3205H9.39623C9.60649 12.3205 9.80817 12.4035 9.95695 12.5513L10.8526 13.4426C10.9008 13.4907 10.9623 13.5235 11.0292 13.5367C11.0962 13.55 11.1655 13.5432 11.2286 13.5172C11.2916 13.4912 11.3455 13.4472 11.3834 13.3907C11.4213 13.3342 11.4414 13.2678 11.4413 13.1999V10.4106H12.2459C12.4763 10.4106 12.7044 10.4558 12.9173 10.5435C13.1302 10.6312 13.3236 10.7598 13.4865 10.9219C13.6494 11.084 13.7786 11.2765 13.8667 11.4883C13.9548 11.7001 14.0001 11.9271 14 12.1563Z" fill="#8A4C43"/>
<path d="M10.5053 8.17815C10.209 7.88266 9.8569 7.64834 9.4693 7.48864C9.0817 7.32894 8.6662 7.24701 8.24668 7.24756H6.52375C6.18892 7.24755 5.85737 7.31316 5.54804 7.44063C5.2387 7.5681 4.95762 7.75494 4.72087 7.99048C4.48411 8.22602 4.29631 8.50565 4.16818 8.81341C4.04005 9.12116 3.97411 9.45101 3.97412 9.78411C3.97412 10.4568 4.24274 11.102 4.72089 11.5777C5.19904 12.0534 5.84754 12.3207 6.52375 12.3207H9.39646C9.6065 12.3207 9.80794 12.4037 9.95647 12.5514L10.8523 13.4426C10.9005 13.4907 10.9619 13.5234 11.0288 13.5366C11.0957 13.5499 11.1651 13.5431 11.2281 13.5172C11.2912 13.4912 11.345 13.4472 11.3829 13.3908C11.4208 13.3344 11.4411 13.268 11.4411 13.2002V10.4255C11.4416 10.008 11.3592 9.59458 11.1986 9.2089C11.038 8.82322 10.8024 8.47292 10.5053 8.17815Z" fill="#EFEFEF"/>
<path d="M7.62742 10.1665C7.83532 10.1665 8.00386 9.99883 8.00386 9.79199C8.00386 9.58515 7.83532 9.41748 7.62742 9.41748C7.41951 9.41748 7.25098 9.58515 7.25098 9.79199C7.25098 9.99883 7.41951 10.1665 7.62742 10.1665Z" fill="#8A4C43"/>
<path d="M6.10911 10.1665C6.31701 10.1665 6.48555 9.99883 6.48555 9.79199C6.48555 9.58515 6.31701 9.41748 6.10911 9.41748C5.9012 9.41748 5.73267 9.58515 5.73267 9.79199C5.73267 9.99883 5.9012 10.1665 6.10911 10.1665Z" fill="#8A4C43"/>
<path d="M9.14548 10.1665C9.35339 10.1665 9.52192 9.99883 9.52192 9.79199C9.52192 9.58515 9.35339 9.41748 9.14548 9.41748C8.93758 9.41748 8.76904 9.58515 8.76904 9.79199C8.76904 9.99883 8.93758 10.1665 9.14548 10.1665Z" fill="#8A4C43"/>
</svg>
