<svg width="20" height="27" viewBox="0 0 20 27" fill="none" xmlns="http://www.w3.org/2000/svg">
<path d="M7.88239 23.8565C7.88673 23.8565 7.89108 23.8565 7.89542 23.8565C8.29548 23.8496 8.61356 23.522 8.6069 23.125L8.31721 6.79271C8.31026 6.39578 7.98899 6.07737 7.58024 6.08629C7.18019 6.09319 6.86211 6.42081 6.86877 6.81774L7.15846 23.15C7.1657 23.543 7.48841 23.8565 7.88239 23.8565ZM12.1191 23.8565C12.513 23.8565 12.836 23.543 12.843 23.15L13.1327 6.81774C13.1393 6.42081 12.8213 6.09319 12.4212 6.08629C12.0252 6.07709 11.6915 6.39578 11.6842 6.79271L11.3946 23.125C11.3879 23.522 11.706 23.8496 12.106 23.8565C12.1104 23.8565 12.115 23.8565 12.1191 23.8565ZM17.8149 6.08629C17.4215 6.07737 17.0808 6.38485 17.0678 6.78178L16.4881 24.6782C16.4881 25.1658 16.0895 25.5621 15.5997 25.5621H4.40325C3.91251 25.5621 3.51304 25.1658 3.51275 24.6549L2.93337 6.7815C2.92034 6.38456 2.57793 6.07507 2.18627 6.086C1.7865 6.09866 1.47277 6.43087 1.48552 6.8278L2.0646 24.6779C2.0646 25.9585 3.11385 27 4.40325 27H15.5994C16.8879 27 17.9363 25.9582 17.936 24.701L18.5154 6.82752C18.5281 6.43116 18.2144 6.09923 17.8149 6.08629ZM19.2758 3.20997H0.724218C0.32416 3.20997 0 3.53183 0 3.92905C0 4.32627 0.32416 4.64813 0.724218 4.64813H19.2758C19.6758 4.64813 20 4.32627 20 3.92905C20 3.53183 19.6755 3.20997 19.2758 3.20997ZM5.50087 2.58869C5.90093 2.58869 6.22509 2.26683 6.22509 1.86961C6.22509 1.63174 6.42005 1.43816 6.65962 1.43816H13.3407C13.5802 1.43816 13.7752 1.63174 13.7752 1.86961C13.7752 2.26683 14.0994 2.58869 14.4994 2.58869C14.8995 2.58869 15.2236 2.26683 15.2236 1.86961C15.2236 0.838734 14.3789 0 13.3407 0H6.65962C5.62138 0 4.77665 0.838734 4.77665 1.86961C4.77665 2.26683 5.10081 2.58869 5.50087 2.58869Z" fill="#406B96"/>
</svg>
