<svg xmlns="http://www.w3.org/2000/svg" viewBox="0 0 2834.555 1737.944">
  <g id="Layer_2">
    <g id="Layer_1">
      <g>
        <path d="M158.466,1737.944l903.894-4.693,240.939-.073,79.821-.028,241.4-.071,1102.852-.3s252.254-323.469-17.2-630.692c-279.372-318.534-415.215-59.119-501.09-507.492C1992.921-534.028-144.215,122.855,416.34,1083.267,618.177,1429.081,19.04,1245.277,158.466,1737.944Z" style="fill: #ebf3fa"/>
        <g>
          <path d="M990.023,1502.4l-4.888-2.677a10.8,10.8,0,0,1-4.281-14.643l22.455-41.01a10.8,10.8,0,0,1,14.644-4.281l7,3.833a2.111,2.111,0,1,1-2.028,3.7l-7-3.833a6.571,6.571,0,0,0-8.912,2.605l-22.456,41.01a6.574,6.574,0,0,0,2.606,8.912l4.888,2.676a6.573,6.573,0,0,0,8.912-2.606l14.907-27.222a2.111,2.111,0,1,1,3.7,2.027l-14.907,27.224A10.8,10.8,0,0,1,990.023,1502.4Z" style="fill: #afcdfb"/>
          <path d="M969.188,1545.463l-8.761-4.8c-8.135-4.455-10.87-15.169-6.1-23.885l33.76-61.654a2.111,2.111,0,0,1,3.7,2.027l-33.76,61.655c-3.654,6.674-1.67,14.818,4.422,18.153l8.762,4.8c6.093,3.336,14.023.621,17.677-6.052l38.455-70.229c3.654-6.674,1.67-14.817-4.423-18.153a2.111,2.111,0,0,1,2.028-3.7c8.135,4.455,10.871,15.17,6.1,23.884L992.6,1537.735C987.824,1546.451,977.323,1549.918,969.188,1545.463Z" style="fill: #afcdfb"/>
        </g>
        <g>
          <rect x="689.872" y="275.896" width="1171.241" height="998.425" rx="47.874" style="fill: #fff;opacity: 0.6000000000000001"/>
          <path d="M725.613,275.9H1825.373a35.74,35.74,0,0,1,35.74,35.74v75.048a0,0,0,0,1,0,0H689.872a0,0,0,0,1,0,0V311.636A35.74,35.74,0,0,1,725.613,275.9Z" style="fill: #699dee"/>
          <g>
            <path d="M737.237,330.624a13.245,13.245,0,1,1,13.245,13.245A13.246,13.246,0,0,1,737.237,330.624Z" style="fill: #dde7fe"/>
            <path d="M792.83,330.624a13.246,13.246,0,1,1,13.246,13.245A13.247,13.247,0,0,1,792.83,330.624Z" style="fill: #dde7fe"/>
            <path d="M848.424,330.624a13.246,13.246,0,1,1,13.246,13.245A13.246,13.246,0,0,1,848.424,330.624Z" style="fill: #dde7fe"/>
          </g>
          <rect x="782.692" y="474.594" width="332.008" height="332.008" style="fill: #cde0fb;opacity: 0.5"/>
          <path d="M1469.061,499.341H1204.976a12.546,12.546,0,0,1-12.547-12.547h0a12.547,12.547,0,0,1,12.547-12.547h264.085a12.547,12.547,0,0,1,12.547,12.547h0A12.546,12.546,0,0,1,1469.061,499.341Z" style="fill: #7c9af2;opacity: 0.5"/>
          <path d="M1784.86,482.512H1520.775a12.547,12.547,0,0,1-12.548-12.547h0a12.547,12.547,0,0,1,12.548-12.547H1784.86a12.547,12.547,0,0,1,12.547,12.547h0A12.547,12.547,0,0,1,1784.86,482.512Z" style="fill: #7c9af2;opacity: 0.5"/>
          <g style="opacity: 0.30000000000000004">
            <path d="M1521.336,595.932H1200.561a8.132,8.132,0,0,1-8.132-8.132h0a8.132,8.132,0,0,1,8.132-8.132h320.775a8.132,8.132,0,0,1,8.133,8.132h0A8.132,8.132,0,0,1,1521.336,595.932Z" style="fill: #bdd1f9"/>
            <path d="M1643.282,595.932h-84.677a8.132,8.132,0,0,1-8.133-8.132h0a8.133,8.133,0,0,1,8.133-8.132h84.677a8.131,8.131,0,0,1,8.131,8.132h0A8.131,8.131,0,0,1,1643.282,595.932Z" style="fill: #bdd1f9"/>
            <path d="M1321.593,646.371H1200.561a8.132,8.132,0,0,1-8.132-8.133h0a8.132,8.132,0,0,1,8.132-8.132h121.032a8.132,8.132,0,0,1,8.133,8.132h0A8.133,8.133,0,0,1,1321.593,646.371Z" style="fill: #bdd1f9"/>
            <path d="M1517.63,646.371H1351.785a8.133,8.133,0,0,1-8.133-8.133h0a8.132,8.132,0,0,1,8.133-8.132H1517.63a8.132,8.132,0,0,1,8.132,8.132h0A8.132,8.132,0,0,1,1517.63,646.371Z" style="fill: #bdd1f9"/>
            <path d="M1643.282,646.371h-84.677a8.133,8.133,0,0,1-8.133-8.133h0a8.133,8.133,0,0,1,8.133-8.132h84.677a8.131,8.131,0,0,1,8.131,8.132h0A8.132,8.132,0,0,1,1643.282,646.371Z" style="fill: #bdd1f9"/>
            <path d="M1364.789,689.982H1200.561a8.132,8.132,0,0,1-8.132-8.132h0a8.132,8.132,0,0,1,8.132-8.133h164.228a8.132,8.132,0,0,1,8.132,8.133h0A8.132,8.132,0,0,1,1364.789,689.982Z" style="fill: #bdd1f9"/>
            <path d="M1678.4,689.982H1409.8a8.132,8.132,0,0,1-8.133-8.132h0a8.133,8.133,0,0,1,8.133-8.133h268.6a8.132,8.132,0,0,1,8.132,8.133h0A8.132,8.132,0,0,1,1678.4,689.982Z" style="fill: #bdd1f9"/>
          </g>
          <g style="opacity: 0.30000000000000004">
            <path d="M1521.336,756.164H1200.561a8.132,8.132,0,0,1-8.132-8.133h0a8.132,8.132,0,0,1,8.132-8.132h320.775a8.132,8.132,0,0,1,8.133,8.132h0A8.133,8.133,0,0,1,1521.336,756.164Z" style="fill: #bdd1f9"/>
            <path d="M1643.282,756.164h-84.677a8.133,8.133,0,0,1-8.133-8.133h0a8.133,8.133,0,0,1,8.133-8.132h84.677a8.131,8.131,0,0,1,8.131,8.132h0A8.132,8.132,0,0,1,1643.282,756.164Z" style="fill: #bdd1f9"/>
            <path d="M1321.593,806.6H1200.561a8.132,8.132,0,0,1-8.132-8.133h0a8.132,8.132,0,0,1,8.132-8.132h121.032a8.132,8.132,0,0,1,8.133,8.132h0A8.133,8.133,0,0,1,1321.593,806.6Z" style="fill: #bdd1f9"/>
            <path d="M1517.63,806.6H1351.785a8.133,8.133,0,0,1-8.133-8.133h0a8.132,8.132,0,0,1,8.133-8.132H1517.63a8.132,8.132,0,0,1,8.132,8.132h0A8.132,8.132,0,0,1,1517.63,806.6Z" style="fill: #bdd1f9"/>
          </g>
          <path d="M931.553,524.085h34.288l92.636,212.042h-39.1L998.023,685.3H898.469l-21.656,50.83h-37.9Zm52.936,128.427L948.1,568.3,912,652.512Z" style="fill: #bdd1f9"/>
          <g>
            <rect x="782.692" y="873.479" width="185.465" height="35.805" style="fill: #f99746"/>
            <rect x="782.692" y="909.284" width="185.465" height="35.805" style="fill: #ed7d2b"/>
            <rect x="782.692" y="945.088" width="185.465" height="35.804" style="fill: #474fea"/>
          </g>
          <g>
            <path d="M1104.805,893.75H1002.761a7.732,7.732,0,0,1-7.732-7.732h0a7.732,7.732,0,0,1,7.732-7.732h102.044a7.732,7.732,0,0,1,7.732,7.732h0A7.732,7.732,0,0,1,1104.805,893.75Z" style="fill: #bdd1f9"/>
            <path d="M1070.427,921h-67.666a7.731,7.731,0,0,1-7.732-7.731h0a7.731,7.731,0,0,1,7.732-7.731h67.666a7.731,7.731,0,0,1,7.732,7.731h0A7.731,7.731,0,0,1,1070.427,921Z" style="fill: #bdd1f9"/>
          </g>
          <g>
            <rect x="782.692" y="1058.602" width="185.465" height="73.159" style="fill: #f99746"/>
            <rect x="782.692" y="1113.694" width="185.465" height="52.322" style="fill: #b5453c"/>
            <polygon points="782.692 1058.602 849.226 1114.489 782.692 1166.016 782.692 1058.602" style="fill: #474fea"/>
          </g>
          <g>
            <path d="M1104.805,1078.873H1002.761a7.732,7.732,0,0,1-7.732-7.732h0a7.731,7.731,0,0,1,7.732-7.731h102.044a7.731,7.731,0,0,1,7.732,7.731h0A7.732,7.732,0,0,1,1104.805,1078.873Z" style="fill: #bdd1f9"/>
            <path d="M1070.427,1106.127h-67.666a7.732,7.732,0,0,1-7.732-7.732h0a7.732,7.732,0,0,1,7.732-7.731h67.666a7.732,7.732,0,0,1,7.732,7.731h0A7.732,7.732,0,0,1,1070.427,1106.127Z" style="fill: #bdd1f9"/>
          </g>
        </g>
        <g>
          <path d="M1872.94,366.314s4.826,57.569-8.289,56.7-39.012-26.215-91.27-22.093-116.2,15.556-154.848-52.839S1667.964,260,1667.964,260L1872.94,366.314Z" style="fill: #233862"/>
          <polygon points="1761.85 362.098 2025.174 383.753 2030.649 372.038 1778.194 185.686 1523.18 155.894 1518.281 166.376 1761.85 362.098 1761.85 362.098" style="fill: #2b478b"/>
          <g>
            <path d="M1941.052,560.409a10.209,10.209,0,1,0-7.007,12.625,10.216,10.216,0,0,0,7.007-12.625Z" style="fill: #f99746"/>
            <path d="M1932.273,563.244c10.563-.823,13.031,95.278,13.031,95.278s-6.886,3.238-10.271,2.477-5.115-13.74-5.115-13.74l-.326,13.607s-11.584.4-15.6-2.416c0,0,1.572-93.905,18.28-95.206Z" style="fill: #f99746"/>
          </g>
          <polygon points="1935.716 565.407 1933.809 355.451 1932.446 354.433 1794.901 252.685 1789.961 259.373 1926.136 360.104 1929.211 565.045 1935.716 565.407" style="fill: #f99746"/>
        </g>
        <g>
          <g>
            <g>
              <path d="M1534.691,1336.167H2115.1a84.944,84.944,0,0,1,84.944,84.944v47.976a86.87,86.87,0,0,1-86.87,86.87H1534.691a0,0,0,0,1,0,0v-219.79a0,0,0,0,1,0,0Z" style="fill: #fcecdb"/>
              <path d="M2696.286,1426.6v33.066a100.857,100.857,0,0,1-12.2,48.436c-15.587,28.619-44.579,47.855-77.771,47.855H1516.872c-7.209,0-13.049-6.252-13.049-13.956v-4.952c0-7.7,5.84-13.956,13.049-13.956h664.116a90.933,90.933,0,0,0,9.321-14.991,94.407,94.407,0,0,0,9.734-42.02v-42.033a93.479,93.479,0,0,0-2.689-22.368,90.2,90.2,0,0,0-15.4-32.635H1516.872c-7.209,0-13.049-6.252-13.049-13.969v-4.939c0-7.716,5.84-13.968,13.049-13.968H2611.8c38.584,0,71.128,27.685,81.229,65.511A96.162,96.162,0,0,1,2696.286,1426.6Z" style="fill: #699dee"/>
              <path d="M2693.03,1401.676H2197.354a90.2,90.2,0,0,0-15.4-32.635H1516.872c-7.209,0-13.049-6.252-13.049-13.969v-4.939c0-7.716,5.84-13.968,13.049-13.968H2611.8C2650.385,1336.165,2682.929,1363.85,2693.03,1401.676Z" style="fill: #548ee2"/>
            </g>
            <polygon points="1534.691 1446.062 1615.357 1449.756 1534.691 1451.982 1534.691 1446.062" style="fill: #f4d2b8"/>
            <polygon points="1534.691 1480.547 1726.602 1484.242 1534.691 1486.467 1534.691 1480.547" style="fill: #f4d2b8"/>
          </g>
          <g>
            <g>
              <g>
                <path d="M1368.122,1555.495H1936a82.038,82.038,0,0,1,82.038,82.038v11.883A77.037,77.037,0,0,1,1941,1726.453H1368.122a0,0,0,0,1,0,0V1555.495A0,0,0,0,1,1368.122,1555.495Z" transform="translate(3386.157 3281.947) rotate(180)" style="fill: #f99746"/>
                <path d="M1910.573,1555.495h647.213a80.1,80.1,0,0,1,80.1,80.1v12.529a78.326,78.326,0,0,1-78.326,78.326H1910.573a0,0,0,0,1,0,0V1555.495A0,0,0,0,1,1910.573,1555.495Z" transform="translate(4548.461 3281.947) rotate(180)" style="fill: #fcecdb"/>
                <rect x="1855.916" y="1700.884" width="815.709" height="25.568" rx="11.895" transform="translate(4527.542 3427.337) rotate(180)" style="fill: #f99746"/>
                <rect x="1855.916" y="1555.495" width="815.709" height="25.568" rx="11.895" transform="translate(4527.542 3136.558) rotate(180)" style="fill: #f99746"/>
              </g>
              <polygon points="2637.888 1640.974 2549.709 1643.847 2637.888 1645.579 2637.888 1640.974" style="fill: #f4d2b8"/>
              <polygon points="2637.888 1601.63 2428.106 1604.504 2637.888 1606.235 2637.888 1601.63" style="fill: #f4d2b8"/>
            </g>
            <g>
              <path d="M2430.266,1603.932a39.693,39.693,0,0,1,11.966,19.419,31.8,31.8,0,0,1,.932,6.755c.5,16.042,0,52.348,0,52.348l26.542-18.153,26.473,18.153v-49.207c0-9.305-2.272-18.356-6.489-24.283-2.044-2.871-4.525-5.032-7.332-5.032Z" style="fill: #699dee"/>
              <path d="M2430.266,1603.932a39.693,39.693,0,0,1,11.966,19.419l53.189.719s-2.087-17.288-13.063-20.138Z" style="fill: #568cdb"/>
            </g>
          </g>
          <g>
            <g>
              <g>
                <path d="M1388.725,1085.454H1949.68a89.806,89.806,0,0,1,89.806,89.806v69.527a91.842,91.842,0,0,1-91.842,91.842H1388.725a0,0,0,0,1,0,0V1085.454A0,0,0,0,1,1388.725,1085.454Z" style="fill: #fcecdb"/>
                <path d="M2039.806,1182.913v54.056c-.138,23.087-10.839,43.118-26.564,53.828a46.418,46.418,0,0,1-26.195,8.261H1371.6c-7.212,0-13.06,6.985-13.06,15.6v6.378c0,8.613,5.848,15.6,13.06,15.6H2434.8c30.51,0,57.466-18.112,73.751-45.835a121.806,121.806,0,0,0,16.3-61.71v-42.651a116.915,116.915,0,0,0-8.4-43.914c-13.673-33.773-42.628-57.062-76.151-57.062H1371.6c-7.212,0-13.06,6.971-13.06,15.584v6.378c0,8.615,5.848,15.6,13.06,15.6h617.331c14.753,0,28.108,7.5,37.437,19.5A66.453,66.453,0,0,1,2039.806,1182.913Z" style="fill: #afcdfb"/>
                <path d="M1358.538,1314.656v6.378c0,8.613,5.848,15.6,13.06,15.6H2434.8c30.51,0,57.466-18.112,73.751-45.835h-495.3a46.418,46.418,0,0,1-26.195,8.261H1371.6C1364.386,1299.058,1358.538,1306.043,1358.538,1314.656Z" style="fill: #a4c4f4"/>
              </g>
              <polygon points="1388.725 1211.042 1467.621 1215.263 1388.725 1217.807 1388.725 1211.042" style="fill: #f4d2b8"/>
              <polygon points="1388.725 1153.237 1576.426 1157.46 1388.725 1160.002 1388.725 1153.237" style="fill: #f4d2b8"/>
            </g>
            <g>
              <path d="M1574.494,1156.62s-12.387,7.965-16.49,21.056a27.651,27.651,0,0,0-1.285,7.324c-.683,17.394,0,56.76,0,56.76l-36.573-19.682-36.478,19.682v-53.354c0-10.089,3.131-19.9,8.942-26.33,2.817-3.113,6.235-5.456,10.1-5.456Z" style="fill: #f99746"/>
              <path d="M1574.494,1156.62s-12.387,7.965-16.49,21.056l-73.291.78s2.876-18.746,18-21.836Z" style="fill: #ed7d2b"/>
            </g>
          </g>
        </g>
        <g id="girl_2">
          <path d="M640.235,1314.412S754.8,1364.327,775.6,1363.418s148.943-39.032,148.943-39.032l-3.262,22.045s-98.895,56.878-133.47,60.105c-34.039,3.176-150.431-30.55-161.668-37.671S607.579,1321.619,640.235,1314.412Z" style="fill: #ed985f"/>
          <path d="M623.021,1130.789s-42.265-8.028-63.314,7.343c-38.131,27.846-40.179,123.846-54.47,138.147s-48.74,8.2-51.806,82.195,13.714,80.184-6.272,113.215,8.456,66.093,8.456,66.093-11.65-18.235-6.657-31.4c0,0,4.849,29.047,23.3,35.856s21.183,11.8,24.13,21.785c0,0,157.426-80.667,157.6-137.884s30.979-113.892,15.851-138.686c0,0,6.737,10.607,7.564,22.407,0,0,9.077-17.394-6.657-33.584s18.457-49.7,13.395-88.505C680.664,1161.134,661.97,1131.949,623.021,1130.789Z" style="fill: #233862"/>
          <path d="M654.158,1368.925c-10.061,6.982-22.678,12.738-38.516,16.393-59.371,13.717-82.123-36.462-90.668-70.906a51.011,51.011,0,0,1,20.115-6.179c4.291-.507,8.8-.843,12.541-1.028,6.667-5.107,16.6-26,18.8-58.453l2.793.75,46.79,12.806s-2.143,14.874-3.194,28.933c-.812,11-.94,21.513,1.144,24.086,3.651.793,5.843,1.309,5.843,1.309a.108.108,0,0,0,.023.044A301.265,301.265,0,0,1,654.158,1368.925Z" style="fill: #ffb27d"/>
          <path d="M626.014,1262.317s-2.152,14.861-3.194,28.932c-26.509-2.655-38.811-27.893-43.6-41.737Z" style="fill: #ed985f"/>
          <path d="M633.929,1276.279s-62.922-3.472-60.157-42.623-3.493-65.966,36.8-65.4,47.032,16.05,49.288,29.343S650.367,1276.172,633.929,1276.279Z" style="fill: #ffb27d"/>
          <path d="M659.55,1175.694c-8.871-12.472-16.4-10.414-20.764-7.17-33-21.349-57.134,4.984-57.134,4.984-6.219,27.788-27.629,42.426-27.629,42.426s10.947,7.9,37.842,3c8.215-1.495,15.829-6.712,22.449-13.225a147.014,147.014,0,0,1-27.444,29.009c32.589-12.318,48.4-55.281,50-59.83,3.59,3.721,10.615,11.747,12.394,19.248,2.418,10.2,12.849,26.13,18.88,25.862C668.142,1220,672.852,1194.4,659.55,1175.694Z" style="fill: #233862"/>
          <path d="M507.052,1496.854c-5.682-29.047-24.209-145.1-5.682-182.443,6.654-13.416,32.763-14.626,61.409-13.45,8.914,5.755,42.88,27.5,56.831,24.788.15-.03.421-.094.781-.184,6.57-1.644,9.05-6.26,3.57-10.238a125.162,125.162,0,0,1,31.807,1.949c9.952,1.874,36.793,15.762,36.793,15.762s-13.517,24.42-33.448,32.849c3.389,30.319-1.651,43.694-33.1,113.721-26.578,59.192,3.585,112.484,3.585,112.484s-156.455,125.793-157.327,61.744C471.615,1605.618,514.314,1533.98,507.052,1496.854Z" style="fill: #f9ddbf"/>
          <path d="M637.351,1728.875a29.09,29.09,0,0,0,20.926-12.739q1.132-1.695,2.419-3.642c17.809-26.96,24.738-109.525,64.8-197.483,9.758-21.413,44.782-25.264,54.332-49.473,0,0,23.506-78.461-44.991-80.776s-183.446,218.315-185.261,241.452C547.813,1648.629,504.286,1743.889,637.351,1728.875Z" style="fill: #dd6d22"/>
          <path d="M909.6,1727.071H812.105s-3.645-15.55,2.756-26.131c5.666-9.362,3.494-14.7-.7-22.441a37.876,37.876,0,0,0,16.42,3.091c4.858-.279,10-2.483,14.5-5.1,4.2,4.784,22.163,25.146,27.777,29.181C879.227,1710.251,907.636,1708.619,909.6,1727.071Z" style="fill: #233862"/>
          <path d="M782.052,1407.444c5.871,44.011,28.795,182.922,69.235,250.694,13.038,21.85-32.848,34.1-33.1,34.033-6.155-1.609-16.407-11.421-21.133-15.68-32.831-29.588-99.479-113.373-99.479-180.544,0-32.753-.575-95.3,23.242-111.2C735.489,1374.954,779.72,1389.963,782.052,1407.444Z" style="fill: #ed7d2b"/>
          <path d="M579.216,1727.072s3.613-5.029,9.913-14.578c7.5-11.357,15.794-33.7,25.861-62.352,10.575-30.073,23.12-67.072,38.8-105.568,4.838-11.883,9.976-23.91,15.44-35.919,9.758-21.413,36.6-18.454,46.149-42.663,0,0,37.262-83.919-31.235-86.235s-198.655,224.491-206.135,246.457C469.817,1650.26,429.869,1750.11,579.216,1727.072Z" style="fill: #f99746"/>
          <path d="M838.032,1727.071H740.538s-3.644-15.55,2.756-26.131c5.666-9.362,3.494-14.7-.7-22.441a37.873,37.873,0,0,0,16.42,3.091c4.857-.279,9.994-2.483,14.5-5.1,4.2,4.784,22.164,25.146,27.778,29.181C807.66,1710.251,836.07,1708.619,838.032,1727.071Z" style="fill: #2b478b"/>
          <path d="M614.99,1650.142c10.575-30.073,23.12-67.072,38.8-105.568-4.094-29.166-12.926-54.682-27.776-64.966C626.01,1479.608,589.982,1591.221,614.99,1650.142Z" style="fill: #ed7d2b"/>
          <path d="M725.142,1404.324c5.871,44.011,14.139,186.042,54.579,253.814,13.038,21.85-32.848,34.1-33.1,34.033-6.155-1.609-16.407-11.421-21.133-15.68-32.831-29.588-99.478-113.373-99.478-180.544,0-32.753,38.436-92.678,62.252-108.575C702.934,1377.581,722.81,1386.843,725.142,1404.324Z" style="fill: #f99746"/>
          <path d="M645.708,1253.763s-5.948-2.351-22.687-1c0,0,.89,6.53,13.234,7.176C643.247,1260.308,645.708,1253.763,645.708,1253.763Z" style="fill: #fff"/>
          <g>
            <g>
              <polygon points="936.769 1278.271 916.557 1241.803 872.832 1363.815 898.628 1391.508 936.769 1278.271" style="fill: #163560"/>
              <polygon points="831.231 1299.629 790.586 1415.745 898.628 1391.508 936.769 1278.271 831.231 1299.629" style="fill: #1c468a"/>
              <polygon points="792.74 1409.888 790.846 1406.577 829.307 1296.693 831.231 1299.629 792.74 1409.888" style="fill: #efdece"/>
              <polygon points="829.307 1296.693 931.739 1276.759 936.769 1278.271 831.231 1299.629 829.307 1296.693" style="fill: #fcecdb"/>
            </g>
            <polygon points="936.769 1278.271 914.914 1243.576 900.98 1282.745 931.739 1276.759 936.769 1278.271" style="fill: #efdece"/>
          </g>
          <path d="M862.427,1316.444c-3.514-.676-11.052-3.518-18.683-5.616,2.279-1.769,4.814-3.943,5.52-6.173,1.362-4.3,2.269-5.685-2.269-4.323s-20.418,8.645-20.418,8.645l.04.021c-9.022,2.635-17.335,15.388-17.335,15.388s-111.7,39.266-125.142,39.941c-20.79,1.044-159.166-49.915-159.166-49.915-32.656,7.207-25.33,47.332-14.093,54.453s110.808,43.343,169.818,44.024c29.889.346,138.61-69.532,138.61-69.532s12.709-5.809,22.694-3.993,33.132,0,38.124-8.169S868.327,1317.579,862.427,1316.444Z" style="fill: #ffb27d"/>
          <path d="M596.266,1339.543s-12.376,39.178-54.879,48.093c0,0-70.19-21.624-35.242-69.441C506.145,1318.2,540.7,1292.52,596.266,1339.543Z" style="fill: #f9ddbf"/>
          <path d="M934.95,1319.394l-.007.009a10.765,10.765,0,0,0-.372-3.186s-10.013-15.837-13.291-16.484c-9.988-1.973-9.988,11.178-7.87,19.661a34.483,34.483,0,0,0,8.268,14.644v0l-.4,12.391C938.151,1337.16,934.95,1319.394,934.95,1319.394Z" style="fill: #ffb27d"/>
        </g>
        <g>
          <path d="M348.516,1112.591c3.991-98.752-78.781-142.626-163.413-142.626S8.37,991.894.39,1123.207c-5.134,84.477,39.9,136.458,169.574,136.458,43.734,0,77.723-6.9,103.757-19.2l64.821,57.6-31.854-79.615C334.906,1192.212,346.8,1155.206,348.516,1112.591Z" style="fill: #ebf3fa"/>
          <g>
            <path d="M120.8,1079.574v23.069h15.088v-23.069h6.147v53.8h-6.147v-25.146H120.8v25.146h-6.146v-53.8Z" style="fill: #91b5f8"/>
            <path d="M155.13,1114.617c0,11.895,4.709,14.369,9.1,14.369a13.738,13.738,0,0,0,6.386-1.437l1.038,4.47a19.831,19.831,0,0,1-8.541,1.836c-9.261,0-14.05-7.583-14.05-19.4,0-12.454,5.348-20.277,13.092-20.277,7.822,0,11.015,8.3,11.015,16.923,0,1.518-.079,2.555-.159,3.513Zm12.134-4.55c.079-7.663-2.8-11.1-5.749-11.1-4.071,0-6.066,5.827-6.306,11.1Z" style="fill: #91b5f8"/>
            <path d="M179.8,1078.137h6.146v55.24H179.8Z" style="fill: #91b5f8"/>
            <path d="M195.044,1078.137h6.146v55.24h-6.146Z" style="fill: #91b5f8"/>
            <path d="M234,1114.058c0,14.928-6.865,19.957-12.851,19.957-6.946,0-12.533-6.306-12.533-19.877,0-14.05,6.306-19.957,12.931-19.957C228.493,1094.181,234,1100.648,234,1114.058Zm-19.238,0c0,6.387,1.118,15.088,6.706,15.088,5.269,0,6.386-9.02,6.386-15.088,0-5.906-1.117-15.007-6.546-15.007C215.8,1099.051,214.762,1108.152,214.762,1114.058Z" style="fill: #91b5f8"/>
          </g>
        </g>
        <g>
          <path d="M2043.756,816.22c3.649-90.281-72.021-130.39-149.394-130.39S1732.79,705.877,1725.5,825.924c-4.693,77.23,36.477,124.751,155.027,124.751,39.982,0,71.056-6.3,94.855-17.551l59.261,52.657L2005.516,913C2031.314,889.01,2042.183,855.178,2043.756,816.22Z" style="fill: #91b5f8"/>
          <g>
            <path d="M1804.759,800.556a31.045,31.045,0,0,1,7.564-.878c4.119,0,7.63.878,10.06,3.175a10.272,10.272,0,0,1,2.972,7.765,10.436,10.436,0,0,1-7.023,10.061v.2c5.267,1.418,8.441,5.672,8.441,11.614a13.083,13.083,0,0,1-3.241,9.049c-2.567,2.9-6.821,4.12-12.02,4.12a36.593,36.593,0,0,1-6.753-.473Zm5.132,18.637h2.363a7.814,7.814,0,0,0,7.9-8.035c0-4.187-1.957-7.427-7.495-7.427a9.258,9.258,0,0,0-2.769.337Zm0,22.081a12.033,12.033,0,0,0,2.634.271c5.335,0,8.845-3.173,8.845-9.049,0-6.279-4.321-9.25-9.182-9.318h-2.3Z" style="fill: #fff"/>
            <path d="M1852.974,829.052c0,12.628-5.809,16.882-10.872,16.882-5.875,0-10.6-5.334-10.6-16.814,0-11.884,5.334-16.882,10.939-16.882C1848.314,812.238,1852.974,817.708,1852.974,829.052Zm-16.274,0c0,5.4.945,12.763,5.671,12.763,4.457,0,5.4-7.63,5.4-12.763,0-5-.946-12.694-5.537-12.694C1837.578,816.358,1836.7,824.056,1836.7,829.052Z" style="fill: #fff"/>
            <path d="M1858.782,821.152c0-3.849-.2-5.808-.27-8.441h4.524l.271,3.984h.135a8.3,8.3,0,0,1,7.5-4.457c4.523,0,7.9,3.309,7.9,11.21v21.946h-5.2v-21c0-3.916-.743-7.766-4.524-7.766-2.161,0-4.254,1.824-4.862,5.268a12.713,12.713,0,0,0-.27,2.971v20.528h-5.2Z" style="fill: #fff"/>
            <path d="M1880.6,854.78c1.485-.4,3.309-.945,4.39-2.566,1.147-1.755,1.552-4.187,1.552-10.4v-29.1h5.2V843.3c0,6.888-1.013,10.062-3.309,12.493a11.418,11.418,0,0,1-7.158,3.106Zm11.615-50.509a3.086,3.086,0,1,1-6.145,0,3.129,3.129,0,0,1,3.105-3.377C1891,800.894,1892.21,802.245,1892.21,804.271Z" style="fill: #fff"/>
            <path d="M1918.882,829.052c0,12.628-5.807,16.882-10.871,16.882-5.875,0-10.6-5.334-10.6-16.814,0-11.884,5.335-16.882,10.939-16.882C1914.223,812.238,1918.882,817.708,1918.882,829.052Zm-16.273,0c0,5.4.944,12.763,5.672,12.763,4.457,0,5.4-7.63,5.4-12.763,0-5-.945-12.694-5.537-12.694C1903.487,816.358,1902.609,824.056,1902.609,829.052Z" style="fill: #fff"/>
            <path d="M1944.274,836.48c0,3.58.2,6.483.269,8.914h-4.523l-.4-3.444h-.135a8.365,8.365,0,0,1-6.955,3.984c-5.673,0-7.969-4.456-7.969-12.56V812.711h5.2v19.92c0,5.132.811,8.914,4.39,8.914,3.038,0,4.389-2.836,4.659-4.322a13.461,13.461,0,0,0,.271-2.971V812.711h5.2Z" style="fill: #fff"/>
            <path d="M1951.5,821.152c0-2.768-.2-6.01-.269-8.441h4.658l.271,5.2h.134c1.081-3.107,3.85-5.673,6.888-5.673a5.429,5.429,0,0,1,1.081.068v5.267h-1.081c-3.309,0-5.739,3.039-6.279,6.753a19.761,19.761,0,0,0-.2,2.971v18.1h-5.2Z" style="fill: #fff"/>
          </g>
        </g>
        <g>
          <path d="M2019.675,1292.56c18.361,32.483,41.652,45.136,41.652,45.136l97.263.686S2005.669,1267.78,2019.675,1292.56Z" style="fill: #233862"/>
          <g>
            <path d="M2092.612,1543.4a8.993,8.993,0,0,1,1.535,9.628.073.073,0,0,1-.026.048c-2.365,6.394-10.079,13.5-19.032,20.585-1.143.911-2.162,1.738-3.049,2.506-.233.2-.465.4-.684.605-.181.156-.355.319-.528.469-8.355,7.594-5.244,9.369-20.267,24.793-17.132,17.574-28.842,17.81-32.162,16.175-2.808-1.395,2.984-10.739,9.4-21.242.311-.506.615-1.019.935-1.531.854-1.4,1.7-2.814,2.552-4.218,7.525-12.641,5.658-18.612,4.029-37.516-1.324-15.363-23.279-85.937-23.279-85.937l32.629-5.384s9.419,56.141,20.171,64.853c5.75,4.643,12.223,4.747,17.756,8.2.391.239.776.486,1.151.738A42.8,42.8,0,0,1,2092.612,1543.4Z" style="fill: #ffb27d"/>
            <path d="M2092.612,1543.4a8.993,8.993,0,0,1,1.535,9.628.073.073,0,0,1-.026.048c-2.885,6.384-10.407,13.454-19.062,20.519-1.131.926-2.13,1.777-3.019,2.572-.233.2-.465.4-.684.605-.181.156-.355.319-.528.469-8.355,7.594-5.244,9.369-20.267,24.793-17.132,17.574-28.842,17.81-32.162,16.175-2.808-1.395,2.984-10.739,9.4-21.242a72.469,72.469,0,0,0,30.472-22.123c10.332-13,17.28-29.736,24.321-39.412.391.239.776.486,1.151.738A42.8,42.8,0,0,1,2092.612,1543.4Z" style="fill: #233862"/>
            <path d="M1829.969,1521.191c-2.083,10.046-16.41,8.267-32.4,4.238s-12.218.654-35-2.032-29.63-11.234-30.3-14.63c-.6-3.013,10.672-3.994,22.766-5.3,1.521-.159,3.048-.337,4.577-.514,13.655-1.616,23.709-10.349,36.152-17.492,11.787-6.766,29.5-34.545,29.5-34.545l31.252,2.7s-16.585,24.806-23.008,35.6c-3.778,6.346-3.638,14.776-3.219,21.287A40.147,40.147,0,0,1,1829.969,1521.191Z" style="fill: #ffb27d"/>
            <path d="M1797.566,1525.429c-15.993-4.027-12.218.654-35-2.032s-29.63-11.234-30.3-14.63c-.6-3.013,10.672-3.994,22.766-5.3l.111.234a64.284,64.284,0,0,0,32.582,10.38c15.466.485,31.882-3.831,42.563-3.583a40.147,40.147,0,0,1-.317,10.694C1827.886,1531.237,1813.559,1529.458,1797.566,1525.429Z" style="fill: #233862"/>
            <path d="M1951.211,1322.1l28.676,78.863,37.438,102.971a61.81,61.81,0,0,0,20.286-1.71c9.149-2.574,19.675-9.4,19.675-9.4s-9.819-110.348-29.139-173.789c-4.951-16.283-10.536-29.467-16.749-36.908C1981.009,1245.686,1951.211,1322.1,1951.211,1322.1Z" style="fill: #233862"/>
            <path d="M1981.812,1197.389c19.193-6.042,73.757,2.275,128.548,13.4l11.621-18.868,118.574-8.419s38.494,87,16.7,142.106c-3.2,8.1-11.017,11.47-21.676,11.565l-.013.016s-70.729,1.227-93.632,1.066c-58.936-.416-124.443-41.392-132.943-43.155-13.911-2.885-19.681,24.939-33.818,54.1S1843.3,1477.833,1843.3,1477.833s-17.986.051-25.4-2.788c-7.969-3.052-10.865-6.964-10.865-6.964S1938.528,1211.015,1981.812,1197.389Z" style="fill: #2b478b"/>
            <path d="M2123.828,1028.725c42.038,23.533,127.309,72.308,127.756,72,0,0,31.383,12.08,49.319.35,29.892-19.55,46.224-72.617-7.867-118.767-26.976-23.016-46.216-28.709-48.889-65.175-1.449-19.784-28.018-85.229-72.968-79.511a68.47,68.47,0,0,1-11.324.664,42.034,42.034,0,0,0-22.828,5.724C2111.5,858.96,2060.627,1019.285,2123.828,1028.725Z" style="fill: #233862"/>
            <path d="M2159.339,1009.2c-.186.119,20.713,7.419,34.765,1.313,13.219-5.73,23.355-27.341,23.159-27.354-5.993-.319-12.537-5.607-17.362-40.032l-2.56.9-43.029,15.141s3.013,13.794,4.931,26.92C2160.86,997.1,2161.7,1007.656,2159.339,1009.2Z" style="fill: #ffb27d"/>
            <path d="M2154.312,959.162s1.834,9.667,4.38,23.482c24.683-4.264,35.084-25.319,38.649-38.623Z" style="fill: #ed975d"/>
            <path d="M2147.824,972.786s58.778-7.467,53.564-44-1.139-62.1-38.888-58.878-43.035,18.2-44.26,30.819S2132.4,973.787,2147.824,972.786Z" style="fill: #ffb27d"/>
            <path d="M2120.521,880.738s37.363,32.661,62.914,35.453,35.29-5.348,35.29-5.348a99.844,99.844,0,0,1-23.911-32.879,17.982,17.982,0,0,0-14.747-10.7C2161.82,865.557,2127.213,864.593,2120.521,880.738Z" style="fill: #233862"/>
            <path d="M2144.04,878s-12.661,12.07-16.685,21.061c-3.884,8.677-5.177,29.483-2.192,37.772,0,0-19.325-38.237-8.1-56.669C2128.963,860.622,2144.04,878,2144.04,878Z" style="fill: #233862"/>
            <path d="M2109.281,1095.351c.937,118.882-.176,94.034,12.747,105.4,3.114,2.738,11.911,4.418,23.5,5.266,36.432,2.677,100.549-2.876,103.033-9.6,8.571-23.248,2.686-30.53,9.953-66.164.758-3.79,1.692-7.891,2.785-12.357,6.023-24.468,11.774-32.765-8.7-72.285-18.565-35.8-37.908-64.884-39.674-63.852-49.851,29.119-53.681,4.321-53.681,4.321S2108.82,1037.364,2109.281,1095.351Z" style="fill: #f9ddbf"/>
            <path d="M1979.887,1400.959l37.438,102.971a61.81,61.81,0,0,0,20.286-1.71c9.149-2.574,19.675-9.4,19.675-9.4s-9.819-110.348-29.139-173.789Z" style="fill: #2b478b"/>
            <path d="M2159.243,986.082s-51.142,8.3-57.3,30.251-42.365,151-42.365,151,25.936,4.848,38.017-7.064,42.528-111.005,42.528-111.005Z" style="fill: #f9ddbf"/>
            <path d="M2145.526,1206.022c36.432,2.677,100.549-2.876,103.033-9.6,8.571-23.248,2.686-30.53,9.953-66.164l-17.231-49.629s2.518,55.147-13.842,69.533c-16.343,14.384-66.76,27.519-74.748,39.579C2148.837,1195.532,2146.289,1201.345,2145.526,1206.022Z" style="fill: #f2ccaa"/>
            <path d="M2187.452,1183.131s-35.9-8.26-41.729-5.11-20.087,14.672-21.891,18.7,12.94-2.978,17.728-4.226c3.1-.808,11.227,2.08,15.251,3.453,16.932,5.777,27.351,2.94,27.351,2.94Z" style="fill: #ffb27d"/>
            <path d="M2212.956,981.742s48.263,3.315,64.814,26.746c23.3,32.983,68.986,173.171,42.1,191.636-30.273,20.793-137.145,4.527-137.145,4.527s-3.443-16.665,1.567-24.68,85.6-20.449,89.338-24.138-45.928-72.773-45.849-83.918S2212.956,981.742,2212.956,981.742Z" style="fill: #f9ddbf"/>
            <path d="M2143.912,1188.017s-7.6,9.666-10.082,10.809a7.367,7.367,0,0,1-4.071.842l5.142-9.1Z" style="fill: #ffb27d"/>
            <path d="M2145.723,1178.021l-21.98,10.483s.92,1.532,3.619,1.427,9.519-2.544,9.519-2.544Z" style="fill: #ffb27d"/>
          </g>
          <g>
            <g>
              <polygon points="2138.518 1214.513 1965.234 1213.291 1914.022 1083.297 2087.038 1084.518 2138.518 1214.513" style="fill: #f99746"/>
              <polygon points="1963.239 1208.225 2192.061 1209.84 2192.026 1214.89 1965.234 1213.291 1963.239 1208.225" style="fill: #ed7d2b"/>
            </g>
            <path d="M2009.434,1148.786c-1.274-4.566,1.387-8.241,5.943-8.208s9.284,3.758,10.558,8.325-1.386,8.241-5.942,8.209S2010.708,1153.352,2009.434,1148.786Z" style="fill: #fff"/>
          </g>
        </g>
        <g>
          <rect x="1296.327" y="1412.693" width="104.665" height="526.497" transform="translate(-327.546 3024.273) rotate(-89.989)" style="fill: #c65447"/>
          <path d="M1085.4,1728.226l-77.381-33.1-45.007-19.252,46.068-19.689,76.347-32.627s10.189,25.486,10.34,49.45C1096,1710.622,1085.4,1728.226,1085.4,1728.226Z" style="fill: #fcecdb"/>
          <path d="M1673.12,1658.393l-.007,33.089a36.854,36.854,0,0,1-36.862,36.848l-24.353,0,.02-104.665,26.487,0A34.722,34.722,0,0,1,1673.12,1658.393Z" style="fill: #fcecdb"/>
          <path d="M1009.078,1656.184c1.916,10.575,3.582,26.779-1.061,38.941l-45.007-19.252Z" style="fill: #2b478b"/>
        </g>
        <g>
          <path d="M1198.6,1078.6s9.432,40.92,36.922,40.92c23.563,0,55.887-53.264,55.887-53.264Z" style="fill: #f99746"/>
          <path d="M1514.209,1682.993l-17.663,12.143S1411.6,1604.6,1391.1,1517.813c-3.656-15.5-5.138-30.778-3.571-45.277,0,0-1.24-3.93-3.409-10.88-.1-.3-.193-.616-.29-.928-.949-3.05-2.088-6.636-3.353-10.7-4.117-13.114-9.775-31.06-16.221-51.491-14.845-47.018-48.8-153.056-63.308-197.164l104.279-37.729s11.845,27.01,28.865,100.424c2.621,9.582,5.249,20.178,7.7,31.722,2.782,13.077,5.376,27.375,7.537,42.822a657.326,657.326,0,0,1,6.251,87.9c.058,13.136-.263,26.758-1.043,40.812-.569,10.305.961,24.039,3.834,39.661C1471.509,1578.414,1514.209,1682.993,1514.209,1682.993Z" style="fill: #2b478b"/>
          <path d="M1569.764,1726.623h-84.308s-3.151-13.447,2.383-22.6c4.9-8.1,3.023-12.708-.606-19.405a32.765,32.765,0,0,0,14.2,2.673c4.2-.241,8.643-2.148,12.538-4.41,3.628,4.137,19.166,21.746,24.021,25.235C1543.5,1712.077,1568.068,1710.666,1569.764,1726.623Z" style="fill: #233862"/>
          <path d="M1449.328,1338.615l-65.5,122.113c-.949-3.05-2.088-6.636-3.353-10.7-4.117-13.114-9.775-31.06-16.221-51.491-14.845-47.018-48.8-153.056-63.308-197.164l104.279-37.729s11.845,27.01,28.865,100.424c2.621,9.582,5.249,20.178,7.7,31.722C1444.573,1308.87,1447.167,1323.168,1449.328,1338.615Z" style="fill: #233862"/>
          <path d="M1299.248,1700.233s-5.835,14.316-.34,26.39h45.858s.952-10.888-15.689-23.512C1316.472,1693.549,1299.248,1700.233,1299.248,1700.233Z" style="fill: #233862"/>
          <path d="M1349.154,768.065c.028-2.282,1.2-26.9,38.6-29.084,0,0-18.353,2.638-21.339,10.807,0,0,12.292-10.3,22.576-7.331s16.709,20.706,16.91,26.586-5.011,24.975-11.449,26.744a19.78,19.78,0,0,1-7.845.2,88.211,88.211,0,0,1,5.243,8.853c15.674,30.3,2.152,65.989-10.571,62.983-8.16-1.928-13.121,12.215-13.121,12.215l-78.478-67.488S1317.172,751.975,1349.154,768.065Z" style="fill: #2c3a64"/>
          <path d="M1299.822,973.133c8.7,6.036,19.611,11.015,33.307,14.175,51.341,11.862,71.017-31.53,78.406-61.316a44.13,44.13,0,0,0-17.395-5.344c-3.71-.438-7.613-.728-10.845-.888-5.765-4.416-14.355-22.488-16.255-50.547l-2.415.647-40.463,11.075s1.854,12.862,2.763,25.019c.7,9.513.812,18.605-.99,20.83-3.157.684-5.052,1.132-5.052,1.132a.1.1,0,0,1-.02.038A260.431,260.431,0,0,0,1299.822,973.133Z" style="fill: #ffb27d"/>
          <path d="M1324.161,880.942s1.86,12.851,2.761,25.019c22.924-2.294,33.562-24.12,37.7-36.092Z" style="fill: #ed985f"/>
          <path d="M1323.691,900.246s52.779-13.563,43.827-46.3-8.169-56.537-42.246-49.262-37.181,21.55-36.851,33.2S1309.73,902.93,1323.691,900.246Z" style="fill: #ffb27d"/>
          <path d="M1284.986,819.26c5.419-12.075,12.149-11.6,16.4-9.585,24.383-23.675,49.3-5.414,49.3-5.414,9.964,22.518,30.593,31.32,30.593,31.32s-7.952,8.546-31.589,8.931c-7.22.118-14.558-3.021-21.272-7.429a127.116,127.116,0,0,0,28.172,19.973c-29.719-4.948-50.382-38.718-52.5-42.306-2.416,3.761-7.02,11.754-7.263,18.417-.331,9.053,3.2,26.534-1.958,27.323C1294.866,860.49,1276.861,837.369,1284.986,819.26Z" style="fill: #2c3a64"/>
          <path d="M1308.51,925.193s88.641-21.522,127.185,10.268l-19.263,268.633-173.357-41.881s4.877-17,38.119-62.2S1299.977,988.511,1308.51,925.193Z" style="fill: #ffb27d"/>
          <path d="M1360.185,1174.191s-.1.911-.282,2.645c-.079.746-.181,1.649-.291,2.7-.746,6.963-2.159,20.322-3.98,37.693-4.757,45.56-12.221,118.733-17.308,176.491-3.98,45.158-6.507,80.9-5.142,86.636,4.105,17.27,0,223.714,0,223.714-14.733,7.065-37.073,0-37.073,0s-39.248-186.035-33.754-211.893-3.673-47.929-3.673-47.929c-30.473-141.914-27.137-220.567-21.084-258.221a158.69,158.69,0,0,1,5.212-22.991,47.9,47.9,0,0,1,2.088-5.652C1312.114,1139.3,1360.185,1174.191,1360.185,1174.191Z" style="fill: #2b478b"/>
          <path d="M1447.645,1012.081c-4.277,32.317-21.4,71.863-27.513,93.151,0,0,10.221,73.9.464,94.195-1.107,2.316-2.481,3.933-4.161,4.663-36.147,15.746-176.922.455-182.864-44.955-2.159-16.5,53.62-74.54,56.87-81.581,1.35-2.912,2.787-12.355-3.752-31.924-9.27,28.58-60.434,20.362-60.434,20.362,6-10.276,20.966-81.362,37.67-113.45,12.56-24.123,46.093-27.616,46.093-27.616s13.957,22.136,47.71,19,39.925-23.8,39.925-23.8,29.936,3.98,39.16,11.421C1438.412,932.833,1453.258,969.74,1447.645,1012.081Z" style="fill: #f99746"/>
          <path d="M1420.132,1105.232s10.221,73.9.464,94.195c-26.336-13.218-47.091-48.978-42.3-88.814,3.542-29.447,8.805-36.164,24.56-53.015,11.576-12.381,38.339-13.079,36.242-7.188C1432.855,1067.953,1423.362,1093.988,1420.132,1105.232Z" style="fill: #ed7d2b"/>
          <g>
            <polygon points="1310.197 1017.835 1370.557 1114.671 1267.854 1114.671 1210.345 1019.931 1310.197 1017.835" style="fill: #1c468a"/>
            <polygon points="1367.418 1109.808 1368.459 1106.426 1311.342 1014.787 1310.197 1017.835 1367.418 1109.808" style="fill: #efdece"/>
            <polygon points="1311.342 1014.787 1214.591 1017.543 1210.345 1019.931 1310.197 1017.835 1311.342 1014.787" style="fill: #fcecdb"/>
            <polygon points="1210.345 1019.931 1156.068 990.552 1219.337 1089.907 1267.854 1114.671 1210.345 1019.931" style="fill: #163560"/>
          </g>
          <path d="M1497.57,1087.789c-5.813,2.657-20.736,20.234-26.063,22.019-23.948,8.012-125.869-13.311-125.869-13.311l3.155-17.851s100.036,2.656,111.033-.285c2.071-.558,12.881-17.466,17.037-19.894Z" style="fill: #ffb27d"/>
          <path d="M1348.8,1078.643s-12.064-9.818-20.215-7.6-20.145,12.531-24.6,14.971-16.553,11.172-10.421,16.451,25.225.746,32.788-3.3,19.291-2.665,19.291-2.665Z" style="fill: #ffb27d"/>
          <path d="M1330.894,1070.725s-14.662-1.748-18.666-1.668-2.916.958-.706,4.066,9.845,4.295,10.2,5.381S1330.894,1070.725,1330.894,1070.725Z" style="fill: #ffb27d"/>
          <path d="M1397.653,920.122s43.477,5.158,55.448,23.8c15.137,23.574,50.856,117.459,49.7,141.117,0,0-26.117,44.448-115.674,37.335,0,0-9.318-32.911,9.521-43.777,0,0,46-8.179,51.3-12.846l-37.505-68.157Z" style="fill: #f99746"/>
          <path d="M1224.252,1055.329c-1.348-5.477-13.292-2.056-17.318,1.1a16.367,16.367,0,0,0-3.06,3.6c-.126-.917-.234-1.794-.3-2.479-.227-2.573-3.224-7.181-3.968-3.731s-1.969,17.949-1.969,17.949c-.146,11.679,7.362,16.5,12.185,12.7S1225.6,1060.805,1224.252,1055.329Z" style="fill: #ffb27d"/>
        </g>
        <path d="M81.669,1726.585H2820.094a3.528,3.528,0,0,1,3.528,3.528v2.31a3.528,3.528,0,0,1-3.528,3.528H81.67a3.528,3.528,0,0,1-3.528-3.528v-2.311A3.527,3.527,0,0,1,81.669,1726.585Z" style="fill: #2e3552"/>
      </g>
    </g>
  </g>
</svg>
