<svg width="20" height="20" viewBox="0 0 20 20" fill="none" xmlns="http://www.w3.org/2000/svg">
<path fill-rule="evenodd" clip-rule="evenodd" d="M10 19C14.9705 19 19 14.9707 19 10C19 5.0293 14.9705 1 10 1C5.02954 1 1 5.0293 1 10C1 14.9707 5.02954 19 10 19ZM10 20C15.5229 20 20 15.5229 20 10C20 4.47705 15.5229 0 10 0C4.47705 0 0 4.47705 0 10C0 15.5229 4.47705 20 10 20ZM9 6C9 5.74414 9.09619 5.51074 9.25464 5.3335C9.43774 5.12891 9.70386 5 10 5C10.0952 5 10.1873 5.01318 10.2744 5.03809C10.6934 5.15723 11 5.54297 11 6V11C11 11.5522 10.5522 12 10 12C9.44775 12 9 11.5522 9 11V6ZM9.30249 13.2832C9.11597 13.4648 9 13.7188 9 14C9 14.5522 9.44775 15 10 15C10.5522 15 11 14.5522 11 14C11 13.4478 10.5522 13 10 13C9.72876 13 9.48267 13.1079 9.30249 13.2832Z" fill="#ED3535"/>
</svg>
