
<svg width="30" height="30" viewBox="0 0 30 30" fill="none" xmlns="http://www.w3.org/2000/svg">
<path d="M15.0304 0.5C11.4961 0.501069 8.07754 1.75969 5.38632 4.05065C2.69509 6.34162 0.906852 9.51544 0.341563 13.0042C-0.223726 16.493 0.470824 20.0691 2.30094 23.0927C4.13105 26.1163 6.97731 28.39 10.3304 29.507C11.0734 29.643 11.3454 29.183 11.3454 28.788C11.3454 28.436 11.3324 27.499 11.3254 26.258C7.18544 27.158 6.31143 24.258 6.31143 24.258C6.03724 23.3587 5.45108 22.5867 4.65843 22.081C3.30744 21.158 4.75843 21.176 4.75843 21.176C5.23223 21.2401 5.68498 21.4121 6.08183 21.6788C6.47867 21.9454 6.80903 22.2996 7.04743 22.714C7.24883 23.0815 7.52115 23.4053 7.84861 23.6668C8.17607 23.9282 8.55217 24.1221 8.9551 24.2372C9.35804 24.3522 9.7798 24.3862 10.196 24.3371C10.6121 24.2879 11.0144 24.1567 11.3794 23.951C11.4477 23.1966 11.7823 22.4911 12.3234 21.961C9.01543 21.586 5.54343 20.309 5.54343 14.605C5.52222 13.1266 6.0708 11.6968 7.07543 10.612C6.62106 9.32858 6.67183 7.92038 7.21743 6.673C7.21743 6.673 8.46744 6.273 11.3104 8.199C13.7499 7.53102 16.324 7.53102 18.7634 8.199C21.6034 6.273 22.8474 6.673 22.8474 6.673C23.3965 7.91926 23.4494 9.32805 22.9954 10.612C24.0004 11.6964 24.5484 13.1267 24.5254 14.605C24.5254 20.323 21.0464 21.581 17.7254 21.95C18.0804 22.3109 18.3541 22.7435 18.5283 23.2188C18.7025 23.6941 18.7731 24.2012 18.7354 24.706C18.7354 26.695 18.7174 28.301 18.7174 28.788C18.7174 29.188 18.9854 29.65 19.7404 29.505C23.0917 28.3855 25.9354 26.1104 27.7632 23.0867C29.591 20.0629 30.2837 16.4876 29.7173 13C29.151 9.51239 27.3626 6.33995 24.6719 4.04992C21.9812 1.75988 18.5637 0.501579 15.0304 0.5V0.5Z" fill="black"/>
</svg>