<svg width="30" height="40" viewBox="0 0 30 40" fill="none" xmlns="http://www.w3.org/2000/svg">
<g clip-path="url(#clip0_555_406)">
<path d="M25.6142 26.0274H8.17741C7.89612 26.0274 7.61759 25.9723 7.35772 25.8652C7.09784 25.7581 6.86172 25.6011 6.66283 25.4032C6.46393 25.2053 6.30617 24.9704 6.19854 24.7119C6.09091 24.4533 6.03553 24.1762 6.03555 23.8964V23.8444C6.03553 23.5646 6.09092 23.2875 6.19855 23.0289C6.30618 22.7704 6.46394 22.5355 6.66284 22.3376C6.86173 22.1397 7.09786 21.9828 7.35773 21.8757C7.6176 21.7686 7.89613 21.7135 8.17741 21.7135H22.6163C23.1983 21.7133 23.7745 21.5978 24.3113 21.3739C24.848 21.1499 25.3346 20.8219 25.7427 20.409C26.1508 19.996 26.4721 19.5064 26.6881 18.9687C26.9041 18.431 27.0104 17.8559 27.0007 17.2769C26.9606 14.8788 24.9201 12.9886 22.5095 12.9886H13.7038C13.4217 12.9887 13.1424 12.9333 12.882 12.8256C12.6215 12.718 12.3849 12.5603 12.1859 12.3614C11.9869 12.1626 11.8293 11.9266 11.7222 11.667C11.615 11.4074 11.5605 11.1293 11.5618 10.8487C11.5745 10.2772 11.8132 9.73373 12.2261 9.33616C12.639 8.93859 13.1928 8.71897 13.7674 8.72492H25.0657C27.5239 8.72492 29.5945 6.72374 29.5487 4.27871C29.5266 3.13646 29.055 2.0484 28.2353 1.24834C27.4155 0.448284 26.313 6.61984e-05 25.1647 3.59391e-09L4.36647 3.59392e-09C3.79305 -2.32013e-05 3.22524 0.112324 2.69547 0.330626C2.16569 0.548929 1.68433 0.868911 1.27886 1.2723C0.873389 1.67569 0.551758 2.15459 0.33233 2.68165C0.112903 3.20871 -2.33208e-05 3.7736 3.61244e-09 4.34408L3.61244e-09 30.4082C4.71026e-05 31.5603 0.4601 32.6653 1.27896 33.4799C2.09782 34.2946 3.20843 34.7523 4.36647 34.7523H25.5156C27.9759 34.7523 30.0469 32.749 29.9982 30.3017C29.9753 29.1601 29.5032 28.073 28.6836 27.2739C27.8639 26.4747 26.7618 26.0272 25.6142 26.0274Z" fill="#72E58A"/>
<path d="M13.7041 12.9884C11.9045 12.9883 10.1224 13.3409 8.45966 14.026C6.79694 14.7112 5.28616 15.7154 4.01359 16.9815C2.74102 18.2475 1.73158 19.7505 1.04293 21.4047C0.354272 23.0589 -0.000116598 24.8319 2.87766e-08 26.6223L2.87766e-08 22.3588C0.000397935 18.7622 1.42926 15.3115 3.97535 12.7582C6.52145 10.205 9.9785 8.75604 13.5935 8.72705C13.0354 8.75567 12.5106 9.00006 12.131 9.40811C11.7514 9.81616 11.547 10.3556 11.5614 10.9114C11.5759 11.4672 11.808 11.9954 12.2082 12.3834C12.6085 12.7714 13.1453 12.9885 13.7041 12.9884Z" fill="#489B5A"/>
<path d="M29.9982 30.3024C30.0469 32.7497 27.9759 34.753 25.5156 34.753H8.7713C7.8702 34.7528 7.00592 35.1087 6.36855 35.7425L2.52583 39.5655C2.319 39.7715 2.0554 39.9119 1.76837 39.9688C1.48135 40.0257 1.18381 39.9966 0.913394 39.8852C0.642983 39.7739 0.411859 39.5852 0.249268 39.3431C0.0866777 39.101 -7.08513e-05 38.8163 4.3419e-08 38.5252V26.6223C-6.99297e-05 24.8319 0.354341 23.059 1.043 21.4049C1.73165 19.7508 2.74106 18.2478 4.01359 16.9818C5.28612 15.7158 6.79684 14.7115 8.45949 14.0264C10.1221 13.3413 11.9042 12.9887 13.7038 12.9888H22.5103C24.9208 12.9888 26.9613 14.8793 27.0014 17.277C27.0111 17.856 26.9048 18.4311 26.6888 18.9689C26.4728 19.5066 26.1515 19.9962 25.7434 20.4091C25.3353 20.822 24.8487 21.1501 24.312 21.374C23.7752 21.598 23.199 21.7135 22.617 21.7137H9.99337C9.71208 21.7137 9.43354 21.7688 9.17366 21.8758C8.91378 21.9829 8.67764 22.1399 8.47873 22.3377C8.27983 22.5356 8.12204 22.7705 8.01439 23.0291C7.90674 23.2876 7.85134 23.5647 7.85134 23.8446V23.8965C7.85134 24.4617 8.07701 25.0037 8.47872 25.4034C8.88043 25.803 9.42527 26.0276 9.99337 26.0276H25.6142C26.7619 26.0273 27.864 26.4749 28.6837 27.2742C29.5034 28.0735 29.9754 29.1607 29.9982 30.3024Z" fill="#E3796A"/>
<path d="M27.0013 17.3512C27.001 18.5081 26.5391 19.6175 25.7172 20.4358C24.8952 21.2541 23.7804 21.7143 22.6176 21.7154H22.2995C21.5729 20.6116 20.5817 19.7049 19.4151 19.0771C18.2485 18.4493 16.9433 18.1201 15.617 18.1193H11.3086C9.6181 18.1194 7.99689 18.7876 6.80154 19.9768C5.6062 21.1661 4.93463 22.779 4.93453 24.4608C4.93453 24.4608 4.2529 17.0708 12.3609 17.0708H26.985C26.9868 17.0708 26.9886 17.0716 26.99 17.0728C26.9913 17.0741 26.9921 17.0758 26.9923 17.0777C26.9979 17.1678 27.0013 17.2597 27.0013 17.3512Z" fill="#8A4C43"/>
<path d="M30 30.3911C29.9997 31.5481 29.5375 32.6577 28.7152 33.4758C27.8928 34.294 26.7775 34.7537 25.6145 34.7541H12.6852L7.26489 29.3617C8.40372 30.2945 9.83353 30.8036 11.3087 30.8015H18.4905C19.0161 30.8014 19.5203 31.0089 19.8922 31.3784L22.1314 33.6068C22.2519 33.727 22.4056 33.8089 22.5729 33.8421C22.7403 33.8753 22.9137 33.8583 23.0714 33.7933C23.229 33.7284 23.3637 33.6183 23.4584 33.4771C23.553 33.3358 23.6035 33.1698 23.6032 33.0001V26.0269H25.6145C26.1905 26.0268 26.7609 26.1397 27.2931 26.359C27.8253 26.5783 28.3088 26.8998 28.7161 27.3051C29.1233 27.7104 29.4463 28.1915 29.6666 28.721C29.8869 29.2505 30.0002 29.818 30 30.3911Z" fill="#8A4C43"/>
<path d="M21.2631 20.4451C20.5224 19.7064 19.6423 19.1206 18.6733 18.7214C17.7043 18.3221 16.6655 18.1173 15.6167 18.1187H11.3094C10.4723 18.1186 9.64344 18.2826 8.87009 18.6013C8.09674 18.92 7.39406 19.3871 6.80217 19.976C6.21028 20.5648 5.74077 21.2639 5.42045 22.0333C5.10013 22.8027 4.93528 23.6273 4.9353 24.46C4.9353 26.1419 5.60685 27.7548 6.80222 28.9441C7.99759 30.1333 9.61886 30.8014 11.3094 30.8014H18.4911C19.0162 30.8014 19.5198 31.0089 19.8912 31.3783L22.1307 33.6064C22.2512 33.7264 22.4048 33.8082 22.5721 33.8413C22.7394 33.8745 22.9127 33.8575 23.0703 33.7926C23.2279 33.7278 23.3626 33.6178 23.4573 33.4767C23.5521 33.3357 23.6027 33.1698 23.6027 33.0001V26.0635C23.604 25.0198 23.3981 23.9862 22.9966 23.022C22.5951 22.0578 22.006 21.1821 21.2631 20.4451Z" fill="#EFEFEF"/>
<path d="M14.0683 25.4155C14.5881 25.4155 15.0094 24.9963 15.0094 24.4792C15.0094 23.9622 14.5881 23.543 14.0683 23.543C13.5485 23.543 13.1272 23.9622 13.1272 24.4792C13.1272 24.9963 13.5485 25.4155 14.0683 25.4155Z" fill="#8A4C43"/>
<path d="M10.2729 25.4155C10.7926 25.4155 11.214 24.9963 11.214 24.4792C11.214 23.9622 10.7926 23.543 10.2729 23.543C9.75313 23.543 9.33179 23.9622 9.33179 24.4792C9.33179 24.9963 9.75313 25.4155 10.2729 25.4155Z" fill="#8A4C43"/>
<path d="M17.864 25.4155C18.3837 25.4155 18.8051 24.9963 18.8051 24.4792C18.8051 23.9622 18.3837 23.543 17.864 23.543C17.3442 23.543 16.9229 23.9622 16.9229 24.4792C16.9229 24.9963 17.3442 25.4155 17.864 25.4155Z" fill="#8A4C43"/>
</g>
<defs>
<clipPath id="clip0_555_406">
<rect width="30" height="40" fill="white"/>
</clipPath>
</defs>
</svg>
