<svg width="81" height="30" viewBox="0 0 81 30" fill="none" xmlns="http://www.w3.org/2000/svg">
<path d="M4.982 8.8336H5.334C5.69103 8.83129 6.04013 8.93901 6.334 9.14214C6.64267 9.42796 6.8918 9.77218 7.067 10.1549L9.235 14.1911H13.835L11.872 10.3893C11.7121 10.0953 11.5203 9.8198 11.3 9.56789C11.1128 9.31358 10.8967 9.08195 10.656 8.87768C10.3289 8.66632 9.97333 8.50304 9.6 8.39282C10.0997 8.30435 10.5807 8.13087 11.022 7.87991C11.5721 7.55921 12.0248 7.09462 12.3314 6.53592C12.6381 5.97721 12.7873 5.34545 12.763 4.70831C12.7827 3.95193 12.5675 3.20809 12.147 2.57955C11.7646 2.0092 11.2006 1.58546 10.547 1.37742C9.61131 1.12575 8.64312 1.01667 7.675 1.05385H0.923V14.162H4.982V8.8336ZM4.982 3.71055H6.77C7.29606 3.65918 7.82474 3.77746 8.279 4.04814C8.51199 4.26816 8.65573 4.56658 8.68268 4.8862C8.70962 5.20582 8.61786 5.52416 8.425 5.7802C8.26775 5.99873 8.03108 6.1466 7.766 6.19193C7.41476 6.27976 7.05687 6.33839 6.696 6.36724H4.982V3.71055ZM18.623 26.3015C18.3919 26.5271 18.1159 26.7012 17.8129 26.8124C17.5099 26.9236 17.1869 26.9693 16.865 26.9466C16.5138 26.9681 16.1625 26.9069 15.8393 26.7677C15.5161 26.6285 15.23 26.4153 15.004 26.1452C14.4735 25.2418 14.2427 24.193 14.345 23.1499C14.2808 22.2534 14.4741 21.3573 14.902 20.5673C15.2457 20.0631 15.758 19.6985 16.3466 19.5396C16.9351 19.3807 17.5609 19.4379 18.111 19.7008C18.4428 19.8701 18.7292 20.1168 18.946 20.4201C19.1221 20.6915 19.2554 20.9885 19.341 21.3006L22.917 20.5082C22.556 19.2834 21.8174 18.2044 20.807 17.4258C19.6396 16.7008 18.2786 16.3512 16.907 16.424C16.0158 16.3693 15.1227 16.4959 14.2816 16.7962C13.4406 17.0964 12.6689 17.5641 12.013 18.1711C11.6965 18.4951 11.4233 18.8587 11.2 19.253C10.9819 18.4961 10.5212 17.8322 9.889 17.3637C8.74104 16.6633 7.40518 16.3351 6.064 16.424C4.96632 16.3803 3.87088 16.5549 2.841 16.9379C2.12785 17.2222 1.51545 17.7129 1.082 18.3474C0.702551 18.9105 0.499867 19.5744 0.5 20.2538C0.486512 20.7361 0.58236 21.2152 0.780334 21.655C0.978309 22.0949 1.27326 22.4841 1.643 22.7933C2.76048 23.6295 4.06494 24.1798 5.443 24.3961C6.18425 24.4942 6.89479 24.7548 7.524 25.1594C7.66075 25.2682 7.77124 25.4065 7.84725 25.564C7.92325 25.7215 7.96282 25.8941 7.963 26.069C7.96104 26.2509 7.91791 26.43 7.83684 26.5928C7.75577 26.7555 7.63889 26.8978 7.495 27.0087C7.11654 27.3066 6.64112 27.4529 6.161 27.4194C5.82049 27.437 5.4807 27.373 5.16988 27.2325C4.85907 27.0921 4.58621 26.8794 4.374 26.612C4.0801 26.1858 3.90319 25.6897 3.861 25.1735L0 25.4199C0.0790011 26.6567 0.598912 27.8238 1.465 28.7087C2.33 29.5742 3.865 30 6.096 30C7.17307 30.0322 8.24526 29.8423 9.246 29.442C10.0397 29.1051 10.7185 28.5444 11.2 27.8282C11.2855 27.6924 11.3639 27.5523 11.435 27.4084C11.9672 28.2516 12.7225 28.9303 13.617 29.3689C14.7232 29.8189 15.9119 30.0292 17.105 29.986C18.095 30.016 19.0806 29.841 20 29.4721C20.7496 29.1349 21.4029 28.6148 21.9 27.9594C22.4456 27.2155 22.8298 26.3655 23.028 25.464L19.488 24.3931C19.3654 25.0922 19.0678 25.7488 18.623 26.3015ZM10.333 22.5007C10.1311 22.3586 9.91963 22.2307 9.7 22.1181C8.48009 21.5823 7.20121 21.1929 5.89 20.958C5.40543 20.9015 4.93985 20.7361 4.528 20.4742C4.43952 20.4101 4.36703 20.3264 4.31621 20.2296C4.26538 20.1328 4.23759 20.0255 4.235 19.9162C4.22782 19.7742 4.25617 19.6326 4.31747 19.5044C4.37877 19.3762 4.47107 19.2653 4.586 19.1819C4.889 18.955 5.26379 18.8457 5.641 18.8743C6.12405 18.8314 6.60546 18.9727 6.989 19.27C7.35345 19.6081 7.58271 20.0674 7.634 20.5623L10.694 20.385C10.4847 21.0721 10.3634 21.783 10.333 22.5007ZM46.522 16.408C45.6141 16.3552 44.7048 16.4865 43.8488 16.7941C42.9927 17.1017 42.2074 17.5793 41.54 18.1981C41.0045 18.7483 40.5861 19.4016 40.31 20.1185V16.6424H36.236V21.2375H31.811V16.6424H27.767V29.7656H31.811V24.4562H36.236V29.7706H40.31V26.3225C40.4102 26.5727 40.5275 26.8157 40.661 27.0498C41.2097 28.0108 42.0307 28.7872 43.02 29.2807C44.1728 29.7875 45.4249 30.0272 46.683 29.982C47.9493 30.0224 49.205 29.7393 50.332 29.1595C51.2842 28.6337 52.0592 27.8367 52.559 26.8695C53.1176 25.693 53.3842 24.3987 53.336 23.0968C53.3917 22.1971 53.2631 21.2955 52.9582 20.4474C52.6533 19.5993 52.1785 18.8226 51.563 18.1651C50.8828 17.5493 50.0862 17.0765 49.2203 16.7747C48.3544 16.4729 47.4369 16.3482 46.522 16.408ZM48.559 26.0961C48.2968 26.3663 47.983 26.5808 47.6363 26.7268C47.2895 26.8728 46.9169 26.9473 46.5408 26.9459C46.1647 26.9445 45.7927 26.8672 45.447 26.7186C45.1014 26.57 44.7892 26.3532 44.529 26.0811C43.9703 25.2368 43.7124 24.2284 43.797 23.219C43.7042 22.2065 43.9685 21.1935 44.544 20.356C44.7859 20.0737 45.088 19.8495 45.4279 19.6997C45.7678 19.5499 46.1369 19.4784 46.508 19.4904C46.8871 19.4721 47.2655 19.539 47.6154 19.6864C47.9653 19.8337 48.2778 20.0577 48.53 20.3419C49.0958 21.1241 49.3611 22.0844 49.277 23.0467C49.3828 24.1149 49.1302 25.1879 48.559 26.0961ZM74.685 26.5359V16.6424H70.626V20.3119C70.3472 19.5065 69.8913 18.7742 69.292 18.1691C68.1018 17.0769 66.549 16.4668 64.935 16.4571C65.6726 16.1132 66.3724 15.6932 67.023 15.2039C69.0267 13.7342 70.4615 11.6156 71.084 9.20726C71.3782 8.13069 71.427 7.00164 71.2267 5.90364C71.0264 4.80565 70.5822 3.76683 69.927 2.86405C67.244 -0.701248 61.573 -0.975733 57.286 2.25798C55.3418 3.69235 53.9335 5.73801 53.286 8.06824C53.263 8.02717 53.247 7.98309 53.223 7.94302C52.8163 7.3086 52.2363 6.80445 51.552 6.49046C50.3321 5.95465 49.0532 5.56526 47.742 5.33041C47.2574 5.2739 46.7918 5.1085 46.38 4.84655C46.2916 4.78242 46.2191 4.6987 46.1683 4.60191C46.1175 4.50513 46.0897 4.39789 46.087 4.28857C46.0829 4.14702 46.1127 4.00655 46.1737 3.87883C46.2348 3.75112 46.3254 3.63984 46.438 3.55427C46.7461 3.33906 47.1182 3.23552 47.493 3.26075C47.9769 3.23214 48.455 3.37782 48.841 3.67148C49.2055 4.00953 49.4347 4.46885 49.486 4.96376L53.296 4.74337C53.2663 4.16236 53.1106 3.59481 52.8398 3.08015C52.5691 2.56548 52.1897 2.11606 51.728 1.76311C50.5797 1.06051 49.2426 0.730895 47.9 0.819439C46.8021 0.776041 45.7065 0.950347 44.676 1.33234C43.963 1.61633 43.3508 2.10713 42.918 2.74183C42.5368 3.30503 42.3326 3.96972 42.332 4.65021C42.318 5.13249 42.4135 5.61165 42.6114 6.05156C42.8092 6.49146 43.1042 6.88063 43.474 7.18969C44.5917 8.02562 45.8961 8.5758 47.274 8.79253C48.0099 8.89348 48.7149 9.15398 49.34 9.55587C49.4767 9.66466 49.5872 9.80294 49.6632 9.96043C49.7393 10.1179 49.7788 10.2906 49.779 10.4655C49.7784 10.6477 49.7358 10.8274 49.6544 10.9904C49.5731 11.1534 49.4552 11.2953 49.31 11.4051C48.9322 11.7034 48.4569 11.8499 47.977 11.8159C47.6367 11.8348 47.2968 11.7724 46.9852 11.634C46.6737 11.4955 46.3994 11.2849 46.185 11.0195C45.8915 10.5931 45.7147 10.0971 45.672 9.58092L41.819 9.83036C41.8935 11.0668 42.4204 12.2324 43.299 13.1041C44.163 13.9697 45.699 14.3954 47.929 14.3954C49.006 14.4274 50.078 14.2379 51.079 13.8384C51.8712 13.4998 52.5482 12.9381 53.028 12.2216C53.084 12.1384 53.128 12.0483 53.176 11.9611C53.3887 12.9145 53.8004 13.8121 54.384 14.5948C55.0692 15.4749 55.9434 16.1892 56.9417 16.6848C57.94 17.1805 59.0369 17.4446 60.151 17.4578H60.2C59.8665 17.6697 59.5564 17.9165 59.275 18.1941C58.6553 18.8652 58.1774 19.6548 57.8702 20.5156C57.5629 21.3763 57.4326 22.2905 57.487 23.203C57.4395 24.5425 57.7517 25.8703 58.391 27.0478C58.9397 28.0088 59.7607 28.7852 60.75 29.2787C61.9028 29.7855 63.1549 30.0252 64.413 29.98C65.6793 30.0204 66.935 29.7373 68.062 29.1575C69.0142 28.6317 69.7892 27.8347 70.289 26.8675C70.4204 26.614 70.5331 26.3511 70.626 26.0811V29.7596H81V26.5359H74.685ZM60.193 16.4601C59.2268 16.4518 58.2749 16.226 57.4076 15.7992C56.5404 15.3724 55.7801 14.7557 55.183 13.9947C54.6164 13.2093 54.2337 12.3062 54.0632 11.3524C53.8926 10.3986 53.9387 9.41852 54.198 8.48498C54.7658 6.30229 56.0695 4.38338 57.888 3.05339C59.5759 1.75304 61.6379 1.03347 63.767 1.00176C64.7912 0.964657 65.8098 1.16884 66.7409 1.5979C67.672 2.02695 68.4896 2.6689 69.128 3.47213C69.6935 4.25709 70.0755 5.15937 70.2458 6.11222C70.4161 7.06507 70.3704 8.0441 70.112 8.97685C69.5441 11.1595 68.2405 13.0784 66.422 14.4084C64.6429 15.7894 62.443 16.514 60.193 16.4601ZM66.293 26.0961C66.0308 26.3663 65.717 26.5808 65.3703 26.7268C65.0235 26.8728 64.6509 26.9473 64.2748 26.9459C63.8987 26.9445 63.5267 26.8672 63.181 26.7186C62.8354 26.57 62.5232 26.3532 62.263 26.0811C61.7043 25.2368 61.4464 24.2284 61.531 23.219C61.4382 22.2065 61.7025 21.1935 62.278 20.356C62.5188 20.0727 62.8205 19.8477 63.1605 19.6978C63.5004 19.5479 63.8698 19.477 64.241 19.4904C64.6201 19.4718 64.9986 19.5387 65.3486 19.6861C65.6985 19.8334 66.011 20.0576 66.263 20.3419C66.8297 21.1237 67.0953 22.0843 67.011 23.0467C67.1156 24.1153 66.8616 25.1884 66.289 26.0961H66.293ZM62.023 10.6438C62.1235 11.0133 62.0975 11.4059 61.949 11.7588C61.7605 12.1992 61.4442 12.5727 61.041 12.8307C60.6731 13.1139 60.2484 13.3141 59.796 13.4177C59.4516 13.4719 59.0988 13.4206 58.784 13.2704C58.4302 13.0971 58.1238 12.8403 57.891 12.5221L59.151 11.348C59.2537 11.51 59.3825 11.6539 59.532 11.7738C59.6338 11.8489 59.7566 11.8899 59.883 11.891C59.9845 11.8893 60.0825 11.8541 60.162 11.7908C60.2372 11.7457 60.2986 11.6809 60.3399 11.6034C60.3811 11.526 60.4005 11.4387 60.396 11.351C60.355 11.0982 60.2492 10.8604 60.089 10.6608L58.037 7.76671L59.5 6.7389L61.3 9.30743C61.606 9.71439 61.8497 10.1648 62.023 10.6438ZM67.093 7.42912C67.0797 7.06602 66.9623 6.71444 66.755 6.41633C66.5929 6.16183 66.358 5.96216 66.081 5.84331C65.7756 5.71524 65.4391 5.68039 65.114 5.74314C64.5386 5.86006 63.9783 6.04222 63.444 6.2861C63.2551 6.39116 63.0448 6.45147 62.829 6.46241C62.7802 6.4605 62.7326 6.44763 62.6894 6.42474C62.6463 6.40184 62.6089 6.36952 62.58 6.33017C62.5421 6.28073 62.5169 6.22272 62.5066 6.16123C62.4963 6.09975 62.5013 6.03667 62.521 5.97755C62.576 5.81821 62.685 5.68319 62.829 5.59588L62.872 5.5518C63.0379 5.42656 63.2463 5.37179 63.4522 5.39935C63.658 5.42691 63.8448 5.53458 63.972 5.69906L65.29 4.65421C65.132 4.45281 64.9322 4.28814 64.7045 4.17157C64.4768 4.055 64.2265 3.98931 63.971 3.97902C63.3782 4.02191 62.8119 4.24173 62.345 4.61014C61.9411 4.8739 61.5926 5.21421 61.319 5.61191C61.1329 5.89466 61.0361 6.22696 61.041 6.56559C61.0527 6.86516 61.1491 7.15524 61.319 7.40207C61.4361 7.58005 61.5918 7.72924 61.7744 7.83852C61.9571 7.9478 62.1621 8.01435 62.374 8.03318C62.9868 8.04801 63.5944 7.91721 64.147 7.65151C64.4392 7.50449 64.7585 7.41957 65.085 7.40207C65.1303 7.40487 65.1749 7.41502 65.217 7.43212C65.3445 7.47576 65.4497 7.56788 65.51 7.68859C65.5702 7.8093 65.5806 7.94891 65.539 8.07726C65.4739 8.27928 65.3387 8.45128 65.158 8.56212C65.0398 8.65529 64.9009 8.71858 64.7532 8.74666C64.6054 8.77473 64.453 8.76675 64.309 8.7234C64.0973 8.64692 63.9098 8.51515 63.766 8.34173L62.433 9.39559C62.7717 9.83162 63.2646 10.1207 63.81 10.203C64.5386 10.228 65.25 9.97769 65.803 9.50178C66.1997 9.23804 66.5397 8.89743 66.803 8.50001C67.007 8.1813 67.1083 7.80743 67.093 7.42912Z" fill="black"/>
</svg>