<svg xmlns="http://www.w3.org/2000/svg" xmlns:xlink="http://www.w3.org/1999/xlink" viewBox="0 0 40 40"><defs><style>.cls-1{fill:none;}.cls-2{clip-path:url(#clip-path);}.cls-3{fill:#25477c;}.cls-4{fill:#c7483d;}.cls-5{fill:#fff;}</style><clipPath id="clip-path"><circle class="cls-1" cx="20" cy="20" r="20"/></clipPath></defs><g id="Capa_2" data-name="Capa 2"><g id="Capa_1-2" data-name="Capa 1"><g class="cls-2"><path class="cls-3" d="M-19.78,27.22q0-7,0-14c0-.39.15-.5.5-.46h.47q38.84,0,77.66,0c.76,0,1,.13,1,1-.06,4.5,0,9-.05,13.49a1.1,1.1,0,0,1-.8.25c-.26,0-.52,0-.78,0H-18.2C-18.73,27.47-19.3,27.61-19.78,27.22Z"/><path class="cls-4" d="M-19.78,27.22H59.76c0,3.56,0,7.12,0,10.68a3.23,3.23,0,0,1-3.2,3H-16c-1.94,0-3.2-.83-3.65-2.42a2.12,2.12,0,0,1-.11-.61Q-19.78,32.56-19.78,27.22Z"/><path class="cls-5" d="M-19.77,12.78H59.77c0-3.56,0-7.12,0-10.68a3.24,3.24,0,0,0-3.2-3H-16c-1.94,0-3.19.83-3.64,2.42a2.12,2.12,0,0,0-.11.61Q-19.79,7.44-19.77,12.78Z"/></g></g></g></svg>